<?xml version="1.0" encoding="UTF-8" standalone="no"?><!DOCTYPE svg PUBLIC "-//W3C//DTD SVG 1.1//EN" "http://www.w3.org/Graphics/SVG/1.1/DTD/svg11.dtd"><svg width="100%" height="100%" viewBox="0 0 6250 6250" version="1.1" xmlns="http://www.w3.org/2000/svg" xmlns:xlink="http://www.w3.org/1999/xlink" xml:space="preserve" xmlns:serif="http://www.serif.com/" style="fill-rule:evenodd;clip-rule:evenodd;stroke-linejoin:round;stroke-miterlimit:2;"><g><g><path d="M3464.176,225.415c-62.606,23.169 -111.003,57.699 -137.939,98.413c-12.126,18.327 -36.174,40.519 -53.426,49.325c-17.261,8.797 -47.738,34.896 -67.716,57.975c-52.751,60.921 -66.642,74.805 -92.969,92.952c-34.644,23.877 -50.627,68.831 -43.823,123.283c3.109,24.821 11.157,52.409 17.879,61.304c6.73,8.887 12.37,24.935 12.524,35.669c0.407,28.776 57.324,87.183 96.346,98.877c30.273,9.074 32.495,11.719 23.796,28.271c-14.543,27.686 -43.066,60.27 -156.576,178.866c-109.855,114.779 -180.754,212.036 -223.82,307.015c-48.299,106.519 -53.182,142.611 -59.424,439.51c-4.305,204.932 -8.691,278.874 -17.529,295.142c-23.226,42.733 -76.416,89.518 -174.674,153.646c-208.651,136.165 -392.635,291.414 -616.545,520.239c-183.862,187.907 -305.339,329.94 -474.178,554.411c-42.334,56.283 -188.403,270.426 -214.551,314.543c-4.679,7.886 0.22,9.399 18.555,5.737c20.923,-4.183 56.828,6.388 98.828,29.102c3.133,1.693 10.107,-10.319 15.519,-26.701c14.502,-43.945 36.011,-60.49 64.543,-49.642c36.108,13.729 54.256,82.023 27.661,104.102c-10.645,8.83 -11.743,3.507 -7.601,-36.662c4.093,-39.64 2.45,-47.917 -10.474,-52.873c-33.016,-12.671 -83.415,51.896 -64.201,82.243c15.641,24.699 7.178,27.653 -15.942,5.542c-45.353,-43.351 -131.478,-45.467 -139.575,-3.426c-4.451,23.088 22.412,48.405 80.981,76.302c55.55,26.465 84.497,30.225 122.257,15.869c19.889,-7.56 21.973,-7.048 13.379,3.296c-5.591,6.738 -21.867,14.591 -36.174,17.448c-57.161,11.434 -190.609,-65.592 -190.609,-110.018c0,-24.211 -7.21,-15.731 -61.279,72.192c-107.129,174.162 -106.738,173.34 -93.872,197.371c6.453,12.044 20.703,25.993 31.689,30.99c10.986,5.013 18.84,14.502 17.456,21.086c-3.084,14.762 -65.031,51.164 -73.185,43.018c-7.796,-7.796 22.363,-40.731 37.305,-40.731c19.857,0 12.866,-17.334 -10.596,-26.261c-12.248,-4.647 -25.814,-8.464 -30.151,-8.464c-11.727,0 -31.844,45.426 -27.873,62.939c2.132,9.424 -1.676,15.186 -10.034,15.186c-18.815,0 -50.562,66.081 -53.597,111.572c-2.124,31.86 0.252,38.647 14.941,42.48c9.611,2.523 21.289,14.64 25.977,26.945l8.512,22.38l21.826,-27.905c12.02,-15.34 27.417,-27.897 34.229,-27.897c20.776,0 13.867,16.154 -12.793,29.94c-22.03,11.393 -25.643,18.766 -28.833,58.813c-2.01,25.187 -0.952,48.991 2.352,52.897c3.288,3.914 20.345,1.107 37.891,-6.226c27.905,-11.662 32.52,-11.735 36.792,-0.594c8.13,21.167 29.077,14.705 29.077,-8.968c0,-11.93 4.167,-21.696 9.261,-21.696c5.094,0 7.031,7.039 4.305,15.641c-4.15,13.07 0.374,15.788 27.604,16.561c17.912,0.505 34.538,-2.1 36.93,-5.786c2.401,-3.695 13.143,-9.456 23.893,-12.817c23.47,-7.324 28.215,15.926 5.062,24.821c-10.832,4.159 -11.987,8.032 -4.574,15.446c7.406,7.406 15.69,7.251 32.951,-0.61c28.833,-13.135 32.316,-9.733 20.866,20.378c-11.141,29.297 3.394,54.362 22.388,38.607c12.508,-10.384 47.005,-3.149 47.005,9.863c0,4.46 -3.906,8.105 -8.683,8.105c-13.794,0 -10.059,26.058 4.549,31.657c9.766,3.752 11.833,12.5 7.902,33.464c-3.158,16.805 -1.465,30.762 4.134,34.22c5.208,3.215 9.456,19.287 9.456,35.718c0,36.458 12.866,38.289 57.251,8.171c38.639,-26.221 43.604,-26.66 49.438,-4.346c6.136,23.486 20.182,21.851 37.345,-4.338c12.834,-19.596 19.889,-21.704 72.721,-21.704c58.276,0 58.545,0.114 66.406,27.539c10.376,36.157 29.256,42.594 29.598,10.075c0.228,-20.776 1.636,-22.257 9.058,-9.513c6.006,10.303 5.786,20.662 -0.667,32.723c-11.296,21.102 -5.273,33.073 21.818,43.384c17.692,6.722 19.539,11.849 15.381,42.863c-3.857,28.711 -2.116,35.221 9.432,35.221c11.003,0 14.168,8.724 14.168,39.062c0,21.484 3.63,39.062 8.065,39.062c4.435,0 22.941,-14.03 41.121,-31.177c27.075,-25.537 35.815,-29.476 48.242,-21.704c22.868,14.282 36.418,11.523 45.915,-9.342c9.098,-19.979 17.83,-25.545 62.817,-40.031c16.52,-5.322 28.215,-5.754 28.215,-1.05c0,4.5 15.259,5.583 34.814,2.458c32.837,-5.257 34.692,-4.386 32.552,15.055c-1.733,15.788 2.458,21.305 17.798,23.503c11.035,1.579 22.201,8.431 24.805,15.226c2.596,6.787 11.043,12.345 18.758,12.345c10.653,0 9.391,3.247 -5.265,13.509c-29.419,20.605 -25.293,41.423 7.259,36.646c27.913,-4.102 51.571,16.821 51.571,45.597c0,7.576 5.249,20.964 11.678,29.753c10.986,15.015 13.892,13.818 48.787,-20.044c25.863,-25.098 44.604,-36.019 61.8,-36.019c15.845,0 28.035,-6.25 34.025,-17.44c6.771,-12.655 14.868,-16.048 29.508,-12.378c15.487,3.89 21.265,0.887 24.878,-12.939c7.3,-27.922 25.033,-22.282 18.424,5.868c-9.367,39.901 -80.762,210.645 -118.091,282.438c-52.987,101.88 -94.987,143.799 -178.158,177.799c-92.765,37.931 -122.795,69.01 -176.294,182.544c-24.08,51.09 -63.143,122.412 -86.8,158.496c-44.971,68.571 -51.546,89.86 -30.314,98.006c8.643,3.32 29.224,-17.928 64.307,-66.341c28.369,-39.176 63.485,-82.528 78.044,-96.346c25.757,-24.463 27.051,-24.74 48.934,-10.4c40.267,26.383 49.137,79.801 25.944,156.258c-27.775,91.577 -8.911,156.315 65.975,226.359c40.405,37.809 138.721,91.268 167.814,91.268c15.088,0 39.746,-32.682 39.746,-52.653c0,-7.747 -16.17,-38.151 -35.929,-67.586c-33.626,-50.073 -35.881,-57.275 -35.189,-112.036c0.838,-66.007 53.451,-313.77 78.442,-369.434c8.968,-19.971 33.732,-59.749 55.046,-88.395c42.879,-57.658 397.575,-432.715 403.556,-426.725c12.044,12.044 74.023,410.938 75.065,483.154c1.107,76.896 -0.716,86.263 -27.059,138.883c-15.527,31.038 -41.813,77.734 -58.407,103.784c-35.612,55.884 -37.614,83.569 -11.523,159.082c13.078,37.842 20.28,85.71 24.097,160.107c5.469,106.681 12.386,128.841 37.248,119.312c10.669,-4.102 14.762,-27.58 19.694,-113.135c3.426,-59.383 8.765,-107.943 11.865,-107.918c3.101,0.024 20.557,4.191 38.802,9.253c47.363,13.151 96.688,61.694 133.089,130.973c17.326,32.959 41.724,67.212 54.224,76.123c35.994,25.627 94.466,37.874 178.825,37.443c84.456,-0.423 145.768,-15.715 149.951,-37.41c4.744,-24.634 -31.079,-57.243 -84.131,-76.587c-28.695,-10.465 -63.745,-30.599 -77.905,-44.751c-29.622,-29.639 -150.163,-257.731 -175.106,-331.364c-18.612,-54.98 -21.484,-127.58 -7.845,-198.747c7.267,-37.915 69.165,-461.344 69.165,-473.112c0,-1.831 7.812,-3.328 17.367,-3.328c9.546,0 17.358,3.906 17.358,8.675c0,4.777 7.511,8.683 16.683,8.683c11.377,0 19.889,-9.668 26.717,-30.379c5.518,-16.715 14.299,-30.387 19.523,-30.387c5.216,0 16.317,-6.169 24.642,-13.713c12.174,-11.003 18.856,-11.727 33.96,-3.646c15.316,8.195 21.908,7.259 35.498,-5.046c21.615,-19.556 30.892,-9.855 17.887,18.685c-14.453,31.706 -5.151,40.267 40.194,36.979c39.103,-2.84 39.998,-2.303 70.207,42.505c28.8,42.716 31.51,44.548 46.248,31.209c8.618,-7.796 15.788,-18.457 15.942,-23.682c0.146,-5.225 10.319,-20.939 22.591,-34.904c19.214,-21.859 24.674,-23.934 39.144,-14.893c26.432,16.504 35.889,3.402 31.38,-43.481c-3.605,-37.508 -2.303,-41.903 11.165,-37.63c8.382,2.661 33.268,-5.233 55.298,-17.529c34.123,-19.043 40.828,-20.386 45.207,-8.993c7.007,18.278 29.183,16.935 29.858,-1.815c0.431,-11.768 2.303,-10.856 8.309,4.077c4.264,10.604 17.399,21.696 29.199,24.658c11.8,2.954 23.568,10.889 26.147,17.619c5.387,14.038 36.296,16.52 44.303,3.556c9.025,-14.608 19.832,-9.961 52.262,22.461c32.381,32.373 56.25,34.473 56.25,4.924c0,-9.123 5.892,-30.68 13.086,-47.909c10.091,-24.154 17.546,-30.851 32.528,-29.272c14.844,1.571 20.15,-3.076 22.477,-19.645c4.395,-31.364 53.841,-104.167 70.744,-104.167c7.918,0 23.56,9.766 34.774,21.704c11.995,12.769 30.046,21.696 43.856,21.696c14.624,0 28.459,7.365 36.727,19.531c11.076,16.341 15.991,17.896 29.997,9.505c13.851,-8.285 21.558,-6.266 44.491,11.686c35.474,27.759 53.263,21.313 53.263,-19.312c0,-45.117 14.16,-67.497 38.786,-61.312c27.295,6.852 43.937,-13.411 30.957,-37.663c-5.273,-9.855 -13.631,-17.92 -18.571,-17.92c-11.865,0 -6.217,-36.784 6.283,-40.894c6.169,-2.035 8.325,5.656 5.933,21.012l-3.784,24.219l18.286,-20.915c10.067,-11.507 21.232,-26.188 24.845,-32.633c5.428,-9.692 13.818,-9.237 48.714,2.661c32.446,11.043 45.793,12.085 57.918,4.517c11.271,-7.039 22.559,-7.251 39.657,-0.749c19.067,7.243 25.903,6.348 33.797,-4.451c13.371,-18.278 21.924,-17.147 58.602,7.747c33.455,22.697 44.222,18.197 35.889,-15.007c-3.32,-13.241 -0.317,-24.601 8.423,-31.852c15.259,-12.663 17.676,-49.3 5.387,-81.624c-7.674,-20.19 -0.212,-31.893 18.123,-28.41c3.084,0.586 14.087,-6.616 24.471,-16.007c17.773,-16.089 21.029,-16.309 55.754,-3.817c53.06,19.076 58.455,13.892 37.394,-35.946c-20.418,-48.356 -27.751,-52.726 -35.636,-21.289c-5.9,23.503 -22.477,29.907 -22.477,8.683c0,-7.161 3.467,-13.021 7.699,-13.021c10.921,0 16.675,-48.535 7.658,-64.657c-4.142,-7.406 -13.664,-13.468 -21.134,-13.468c-9.285,0 -12.183,-5.461 -9.115,-17.163c2.889,-11.068 -7.528,-34.302 -29.378,-65.487c-18.62,-26.579 -33.854,-52.515 -33.854,-57.642c0,-5.16 -8.073,-7.194 -18.148,-4.557c-15.161,3.963 -17.383,1.628 -13.501,-14.185c5.444,-22.144 -41.04,-91.154 -50.789,-75.399c-4.289,6.95 -9.172,6.877 -17.773,-0.269c-8.911,-7.389 -9.513,-13.59 -2.409,-24.976c7.935,-12.695 -21.68,-56.958 -184.855,-276.318c-92,-123.649 -183.927,-247.355 -275.781,-371.118c-44.808,-60.449 -144.417,-188.053 -221.354,-283.553c-76.929,-95.5 -149.634,-186.654 -161.572,-202.563c-143.522,-191.3 -316.455,-403.76 -479.395,-588.981c-37.183,-42.253 -70.003,-86.442 -72.949,-98.193c-4.94,-19.678 15.031,-81.299 33.187,-102.401c4.264,-4.964 27.303,11.304 56.991,40.243c93.571,91.195 100.863,90.812 267.131,-14.014c88.501,-55.794 163.241,-111.849 234.383,-175.781c198.258,-178.166 202.84,-180.868 317.969,-187.427c93.433,-5.322 131.51,-18.547 212.736,-73.853c60.929,-41.496 84.863,-66.691 76.375,-80.42c-9.66,-15.641 -68.791,-4.281 -90.462,17.399c-32.503,32.495 -39.274,19.474 -41.935,-80.591c-2.319,-87.272 -1.473,-92.619 14.681,-92.619c30.363,0 29.598,-18.14 -2.124,-50.692c-28.727,-29.476 -31.152,-36.157 -33.545,-92.537l-2.588,-60.758l-30.379,0c-27.743,0 -30.762,2.498 -34.725,28.784l-4.338,28.792l-29.915,-30.965c-16.455,-17.025 -37.256,-30.957 -46.232,-30.957c-21.191,0 -205.965,173.267 -205.973,193.148c0,9.399 6.616,15.186 17.358,15.186c16.195,0 17.367,5.794 17.367,85.807l0,85.799l-42.944,0c-54.346,0 -84.757,16.813 -239.193,132.235c-65.796,49.154 -139.103,96.785 -162.915,105.835l-43.286,16.447l23.21,-37.28c80.33,-129.061 80.526,-160.994 2.409,-411.23c-31.421,-100.643 -69.238,-213.477 -84.049,-250.757l-26.929,-67.79l19.596,-22.673c31.234,-36.141 51.676,-53.06 64.103,-53.06c6.356,0 33.87,19.531 61.149,43.408c63.949,55.949 89.673,57.804 120.687,8.675c12.052,-19.092 27.018,-34.717 33.26,-34.717c6.242,0 19.849,-9.766 30.216,-21.704c10.384,-11.938 22.534,-21.704 27.026,-21.704c4.484,0 10.555,-7.576 13.493,-16.838c3.54,-11.149 14.754,-17.749 33.138,-19.531l27.791,-2.694l4.346,-67.122c3.711,-57.422 7.21,-69.149 24.219,-81.038c29.272,-20.467 54.549,-48.869 63.192,-71.004c4.346,-11.084 22.729,-25.553 42.603,-33.504c19.238,-7.699 45.142,-26.074 57.568,-40.837c19.897,-23.649 22.16,-32.788 18.962,-76.847c-4.053,-56.152 -19.686,-79.655 -62.329,-93.726c-22.127,-7.308 -30.265,-17.383 -43.018,-53.288c-23.25,-65.446 -142.692,-178.467 -231.405,-218.953c-57.78,-26.359 -179.508,-29.451 -242.448,-6.144m647.437,1300.879c-9.049,10.002 -14.364,30.868 -14.364,56.421l0,40.552l95.483,0l0,-42.057c0,-62.948 -45.793,-93.953 -81.12,-54.915m-192.318,205.981c-16.178,13.737 -19.198,18.84 -7.967,13.444c16.138,-7.731 45.402,-35.718 37.24,-35.604c-1.774,0.024 -14.95,9.985 -29.272,22.16m-2406.38,2058.39c-10.571,11.051 -17.196,20.101 -14.714,20.101c2.482,0 -6.437,9.432 -19.832,20.964c-13.395,11.523 -21.989,23.34 -19.092,26.237c7.324,7.357 34.644,-4.077 29.533,-12.362c-2.295,-3.703 9.416,-15.983 26.034,-27.295c28.621,-19.499 38.167,-37.329 23.804,-44.482c-3.589,-1.79 -15.161,5.802 -25.732,16.846m71.305,28.304c-22.078,5.216 -18.424,6.706 24.064,9.814c41.659,3.06 47.591,1.839 35.229,-7.178c-16.089,-11.735 -20.052,-11.914 -59.294,-2.637m-394.84,6.982c0.326,15.43 15.169,29.891 21.004,20.459c3.263,-5.29 3.524,-13.517 0.57,-18.294c-6.258,-10.124 -21.761,-11.686 -21.574,-2.165m37.59,24.243c-2.832,7.365 -3.263,15.267 -0.977,17.57c7.739,7.731 32.707,-6.681 32.707,-18.872c0,-16.423 -25.326,-15.397 -31.73,1.302m3227.043,17.863c-9.774,12.419 -20.068,36.841 -22.884,54.256c-2.808,17.407 -8.781,40.649 -13.249,51.611c-11.759,28.833 -9.424,35.579 3.963,11.442c7.414,-13.371 13.639,-17.212 17.57,-10.856c3.345,5.42 12.012,9.855 19.263,9.855c16.406,0 64.046,-46.655 63.574,-62.264c-0.187,-6.34 -6.128,-0.879 -13.184,12.134c-32.153,59.245 -74.422,39.811 -56.242,-25.854c11.898,-42.993 22.371,-59.041 30.208,-46.354c3.296,5.347 -0.13,22.021 -7.633,37.052c-7.503,15.039 -11.841,29.142 -9.635,31.348c7.658,7.658 33.219,-57.414 27.954,-71.134c-7.568,-19.735 -19.336,-17.131 -39.705,8.765m-2871.965,8c-24.87,17.578 -24.967,42.757 -0.236,60.075c26.237,18.376 72.713,16.683 119.051,-4.346c37.004,-16.789 61.304,-17.22 61.304,-1.09c0,4.191 -15.804,14.754 -35.124,23.47c-26.807,12.093 -34.521,20.117 -32.552,33.87c2.002,14.038 9.302,18.302 32.959,19.255c23.755,0.96 25.065,0.35 5.998,-2.791c-33.26,-5.485 -25.83,-20.109 24.08,-47.396l41.919,-22.925l-25.146,-13.298c-21.444,-11.336 -22.909,-14.176 -9.961,-19.238c8.35,-3.263 15.194,-9.692 15.194,-14.274c0,-11.06 -36.564,0.838 -47.713,15.511c-12.663,16.675 -68.962,38.086 -100.155,38.086c-35.002,0 -61.108,-14.274 -55.046,-30.086c6.364,-16.585 76.807,-42.969 95.532,-35.791c20.785,7.975 5.143,20.435 -31.51,25.106c-23.47,2.995 -21.493,3.63 8.683,2.791c32.91,-0.911 39.062,-3.817 39.062,-18.441c0,-14.722 -6.608,-17.741 -43.408,-19.832c-29.053,-1.644 -49.862,2.1 -62.931,11.344m2590.592,19.727c-17.318,19.141 -31.991,90.373 -31.991,155.306c0,80.664 -44.255,133.87 -50.431,60.645c-3.54,-41.878 -13.363,-40.299 -31.087,5.013c-19.303,49.325 -37.769,72.982 -48.551,62.207c-14.242,-14.25 6.771,-70.028 35.506,-94.206c14.624,-12.305 21.012,-22.257 14.282,-22.257c-19.01,0 -47.396,35.107 -75.83,93.807c-32.406,66.886 -55.542,73.584 -50.854,14.697c1.701,-21.484 1.335,-39.062 -0.83,-39.062c-2.157,0 -15.177,10.75 -28.939,23.877l-25.008,23.869l5.949,-23.869c4.484,-18.042 2.775,-23.877 -7.023,-23.877c-12.354,0 -41.292,35.238 -40.739,49.609c0.146,3.752 4.248,-0.024 9.115,-8.374c14.323,-24.585 22.054,-17.537 19.076,17.358c-2.441,28.662 -1.457,30.615 8.26,16.333c6.063,-8.919 17.741,-24.544 25.936,-34.725c14.852,-18.433 14.901,-18.408 15.194,8.659c0.155,14.925 6.112,31.974 13.224,37.891c10.677,8.854 17.163,6.226 36.995,-15.015c19.775,-21.159 26.847,-24.04 39.673,-16.187c12.817,7.845 19.401,5.2 36.792,-14.803c11.637,-13.387 21.322,-30.965 21.517,-39.062c0.236,-9.847 4.712,-6.649 13.574,9.709c15.845,29.207 27.531,26.945 52.726,-10.246c16.268,-24.007 20.02,-25.895 26.937,-13.534c11.67,20.841 41.219,8.488 54.11,-22.616c12.402,-29.948 15.706,-31.079 30.941,-10.563c10.506,14.152 12.28,14.209 25.903,0.781c13.696,-13.493 13.607,-14.315 -1.636,-13.021c-13.346,1.131 -16.756,-5.64 -18.986,-37.679c-2.93,-42.025 -18.953,-70.89 -19.035,-34.285c-0.073,33.105 -16.138,82.992 -33.7,104.688l-15.959,19.702l-10.758,-20.101c-8.097,-15.112 -8.374,-25.374 -1.123,-41.268c5.868,-12.882 6.217,-19.043 0.895,-15.755c-22.632,13.989 0.195,-134.131 23.649,-153.475c12.467,-10.27 13.306,-7.064 8.309,31.991c-3.044,23.869 -7.56,53.166 -10.018,65.104c-2.458,11.938 1.465,4.126 8.7,-17.358c22.713,-67.375 7.707,-115.788 -24.764,-79.907m350.643,-1.839c0.415,10.107 2.474,12.166 5.241,5.249c2.515,-6.266 2.197,-13.761 -0.684,-16.642c-2.881,-2.881 -4.932,2.238 -4.557,11.393m-3319.564,0.724c-13.387,13.379 -5.07,30.037 13.656,27.376c24.577,-3.507 32.34,-33.162 8.683,-33.162c-9.106,0 -19.157,2.604 -22.339,5.786m701.676,10.547c-19.092,8.781 -56.095,32.129 -82.227,51.896c-26.131,19.767 -49.748,35.938 -52.49,35.938c-2.743,0 -4.793,9.912 -4.565,22.021c0.505,27.572 19.352,40.202 50.309,33.7c17.782,-3.735 23.869,-1.652 23.869,8.187c0,7.251 3.866,15.576 8.586,18.498c4.826,2.987 6.429,-0.309 3.654,-7.528c-11.019,-28.735 81.755,-59.497 119.23,-39.535c18.62,9.937 19.385,9.611 8.537,-3.54c-16.349,-19.808 -62.256,-18.294 -128.963,4.232c-38.411,12.972 -58.057,15.91 -64.347,9.619c-13.33,-13.338 6.551,-45.654 28.084,-45.654c9.66,0 15.34,-3.613 12.614,-8.024c-8.455,-13.68 98.942,-78.784 129.964,-78.784c22.941,0 5.811,16.187 -46.354,43.823c-51.953,27.507 -28.784,26.27 26.066,-1.408c40.934,-20.654 48.494,-33.423 28.475,-48.071c-19.881,-14.535 -18.49,-14.648 -60.441,4.631m-781.315,11.1c-2.751,7.129 -0.122,24.39 5.819,38.346l10.799,25.366l3.215,-29.313c3.459,-31.714 -11.149,-57.048 -19.832,-34.399m3220.939,23.934c-7.373,14.242 -13.143,30.973 -12.85,37.174c0.301,6.209 4.801,1.522 9.993,-10.417c9.285,-21.338 9.546,-21.159 15.519,11.296c7.804,42.399 19.222,54.248 40.381,41.951c13.688,-7.959 13.949,-9.359 1.766,-9.587c-17.188,-0.309 -24.805,-17.773 -24.805,-56.885c0,-39.111 -13.607,-45.256 -30.005,-13.534m-120.19,4.126c-3.556,9.033 -4.411,18.481 -1.921,20.98c7.926,7.918 14.884,-5.062 11.572,-21.541c-3.035,-15.104 -3.507,-15.08 -9.652,0.562m-3061.621,26.335c0,16.797 4.451,22.339 17.969,22.339c13.639,0 17.293,-4.679 15.194,-19.45c-4.126,-28.849 -33.162,-31.388 -33.162,-2.889m60.767,-3.068c0,12.419 4.679,17.098 15.096,15.096c22.624,-4.362 25.146,-33.097 2.897,-33.097c-12.419,0 -17.993,5.575 -17.993,18.001m3068.587,33.26c0,23.413 2.922,40.755 6.51,38.542c3.589,-2.214 6.51,4.81 6.51,15.592c0,30.754 15.316,7.829 21.118,-31.608c3.719,-25.236 2.873,-29.972 -3.052,-17.358c-7.943,16.878 -8.179,16.846 -8.781,-1.457c-0.741,-22.982 -9.163,-46.289 -16.724,-46.289c-3.076,0 -5.583,19.157 -5.583,42.578m-3077.271,15.763c-33.179,5.957 -41.805,18.929 -22.209,33.39c16.886,12.459 56.934,17.31 56.934,6.877c0,-3.052 -6.844,-10.734 -15.194,-17.082c-14.453,-10.97 -14.445,-11.54 0.122,-11.8c8.423,-0.163 22.892,4.451 32.153,10.238c19.401,12.118 30.819,5.029 23.324,-14.486c-5.062,-13.192 -28.784,-15.454 -75.13,-7.137m3368.075,14.388c0,6.567 6.022,16.951 13.379,23.063c10.563,8.765 15.609,8.87 23.877,0.48c8.211,-8.325 6.828,-13.338 -6.364,-23.071c-21.191,-15.641 -30.892,-15.788 -30.892,-0.472m-3041.097,11.19c-11.06,11.06 -5.949,46.289 6.714,46.289c17.163,0 24.414,-14.128 17.847,-34.798c-5.615,-17.692 -14.307,-21.761 -24.561,-11.491m363.135,21.794c-39.095,14.941 -40.356,16.211 -12.744,12.72c28.402,-3.597 30.632,-2.189 30.379,19.141c-0.236,19.556 3.646,23.226 25.765,24.398c17.489,0.92 19.629,0.008 6.51,-2.775c-25.659,-5.452 -24.772,-23.592 2.173,-44.792c40.951,-32.218 19.043,-35.872 -52.083,-8.691m-784.961,12.646c-21.159,26.896 -22.746,37.891 -5.469,37.891c13.851,0 39.559,-32.284 39.559,-49.674c0,-17.904 -14.754,-12.809 -34.09,11.784m929.972,-9.261c-18.799,13.167 -18.945,14.429 -4.728,38.501c12.183,20.614 12.76,27.205 3.41,38.46c-13.208,15.926 -65.763,19.271 -56.063,3.573c3.841,-6.209 2.384,-7.666 -3.825,-3.825c-22.152,13.68 -8.081,23.356 30.322,20.833c49.878,-3.271 66.927,-22.974 42.871,-49.552c-21.777,-24.064 -12.174,-42.122 26.229,-49.325c24.715,-4.639 34.627,-2.759 42.546,8.065c5.672,7.756 12.826,11.605 15.894,8.529c3.068,-3.06 1.221,-10.815 -4.093,-17.22c-13.184,-15.885 -68.766,-14.705 -92.562,1.961m-574.707,11.922c0,9.269 3.467,18.986 7.699,21.598c10.579,6.543 29.85,-18.18 22.925,-29.386c-9.505,-15.373 -30.623,-10.01 -30.623,7.788m707.471,0.513c-8.634,9.546 -18.604,17.358 -22.127,17.358c-3.524,0 -18.97,11.719 -34.294,26.042c-15.332,14.323 -25.374,26.042 -22.323,26.042c3.068,0 1.709,7.21 -3.011,16.032c-5.9,11.027 -5.461,19.149 1.432,26.042c14.331,14.331 28.011,12.402 15.861,-2.23c-8.073,-9.741 -4.549,-18.628 17.196,-43.4c15.055,-17.147 30.688,-31.169 34.749,-31.169c7.585,0 51.579,-41.056 51.579,-48.128c0,-10.604 -25.146,-1.969 -39.062,13.411m1425.789,9.375c-19.857,11.556 -19.36,48.779 1.09,82.324l16.227,26.603l-40.788,18.709c-23.877,10.954 -44.922,27.791 -50.765,40.641c-16.577,36.353 7.194,75.553 44.564,73.535c5.575,-0.309 1.343,-4.093 -9.391,-8.407c-43.457,-17.464 -3.67,-95.508 55.314,-108.512c43.734,-9.652 53.166,-15.43 31.396,-19.23c-33.773,-5.9 -58.211,-72.795 -35.067,-95.947c16.772,-16.772 33.008,-12.231 60.14,16.813c25.977,27.808 38.289,29.785 28.63,4.614c-6.014,-15.674 -50.903,-40.674 -72.306,-40.259c-7.625,0.146 -20.695,4.24 -29.045,9.115m-2399.162,39.852c6.217,45.312 8.952,50.513 22.266,42.269c19.775,-12.215 4.191,-82.821 -18.262,-82.821c-6.38,0 -7.707,13.468 -4.004,40.552m207.349,-30.599c-5.664,5.656 -7.739,20.988 -4.818,35.596c4.362,21.794 2.669,25.179 -11.222,22.51c-8.993,-1.733 -17.83,-10.921 -19.621,-20.41c-3.906,-20.589 -16.715,-30.07 -40.332,-29.875c-15.601,0.13 -14.941,2.271 6.51,21.151c13.127,11.556 23.869,24.837 23.869,29.525c0,12.728 37.671,22.542 41.577,10.832c1.799,-5.404 8.366,-9.831 14.591,-9.831c6.217,0 12.939,-11.1 14.925,-24.658c6.038,-41.138 -4.614,-55.713 -25.48,-34.839m840.796,-1.888c-7.454,4.622 -8.35,9.09 -2.515,12.695c4.956,3.06 11.621,1.335 14.819,-3.833c7.967,-12.899 1.628,-17.464 -12.305,-8.862m2334.09,0.838c0,13.249 44.539,28.158 54.484,18.213c4.525,-4.525 5.615,-12.484 2.409,-17.676c-7.406,-11.971 -56.893,-12.451 -56.893,-0.537m-3561.54,11.597c-7.446,20.337 3.084,31.877 20.565,22.534c9.155,-4.907 16.659,-12.231 16.659,-16.284c0,-11.654 -33.203,-17.236 -37.223,-6.25m120.638,3.996c-2.417,3.923 1.514,18.538 8.748,32.479c12.655,24.39 12.231,26.082 -11.296,44.914c-24.821,19.865 -17.782,24.593 21.126,14.176c15.918,-4.272 19.531,-11.353 19.531,-38.33c0,-37.557 -25.651,-73.389 -38.11,-53.239m376.042,6.624c-10.026,12.085 -8.39,13.403 13.46,10.856c13.68,-1.603 26.473,-7.788 28.434,-13.761c5.176,-15.763 -28.328,-13.436 -41.895,2.905m-257.633,0.667c-12.476,5.037 -14.852,28.979 -2.881,28.979c17.814,0 35.433,-11.263 35.433,-22.632c0,-12.126 -12.28,-14.518 -32.552,-6.348m926.652,36.068c-21.484,16.854 -32.137,28.092 -23.674,24.984c12.858,-4.712 13.957,-2.97 6.698,10.62c-6.323,11.808 -5.42,18.962 3.304,26.213c12.565,10.417 53.662,4.403 61.995,-9.082c2.612,-4.224 -5.876,-3.654 -18.864,1.286c-39.478,15.015 -43.099,-3.491 -8.219,-42.098c40.552,-44.873 29.028,-51.335 -21.24,-11.922m-736.117,-14.038c-5.729,5.729 -10.295,16.471 -10.14,23.877c0.236,11.32 2.108,11.051 11.808,-1.742c15.47,-20.369 22.64,-19.124 22.64,3.906c0,13.883 2.604,16.496 9.538,9.562c11.637,-11.629 2.124,-46.021 -12.72,-46.021c-5.892,0 -15.397,4.688 -21.126,10.417m3192.464,7.438c-8.179,15.267 -7.454,21.558 3.752,32.764c12.703,12.703 13.867,12.183 13.867,-6.283c0,-14.754 3.654,-18.75 13.656,-14.909c9.66,3.711 12.801,0.838 10.75,-9.823c-4.305,-22.363 -30.412,-23.446 -42.025,-1.75m-3591.333,-2.938c-14.803,5.314 -13.786,28.491 1.237,28.491c13.102,0 25.773,-23.299 15.739,-28.931c-3.369,-1.896 -11.003,-1.693 -16.976,0.439m1221.208,26.318c-24.17,27.384 -44.873,63.77 -39.404,69.246c2.043,2.043 24.04,-10.254 48.869,-27.336c55.884,-38.444 83.13,-42.163 49.17,-6.714c-39.429,41.162 -22.729,76.839 25.651,54.793c18.669,-8.504 23.934,-7.332 36.45,8.114c12.573,15.544 18.083,16.732 39.583,8.561c13.729,-5.225 22.811,-11.654 20.158,-14.29c-2.637,-2.645 -13.363,-0.22 -23.836,5.387c-31.372,16.789 -37.419,-2.767 -9.204,-29.801c17.871,-17.114 37.467,-25.732 65.885,-28.931c26.912,-3.027 36.58,-7.048 28.866,-12.012c-17.643,-11.369 -58.065,-0.179 -117.139,32.438c-29.427,16.227 -57.747,29.517 -62.939,29.517c-17.31,0 -9.741,-25.09 16.602,-55.094c14.323,-16.309 26.042,-32.072 26.042,-35.026c0,-11.711 -32.3,-4.061 -67.277,15.942c-38.932,22.257 -48.698,18.115 -19.531,-8.285c9.546,-8.634 17.358,-19.01 17.358,-23.047c0,-13.949 -14.315,-7.243 -35.303,16.536m696.273,-10.913c-20.801,6.486 -47.168,20.581 -58.594,31.315c-21.948,20.622 -27.58,54.671 -10.75,65.055c6.234,3.866 7.658,2.393 3.776,-3.898c-11.515,-18.636 4.549,-44.816 37.939,-61.857c38.11,-19.442 142.293,-38.184 171.501,-30.859c44.434,11.157 12.077,59.562 -47.257,70.687c-40.356,7.576 -42.293,16.895 -10.921,52.62c20.605,23.478 26.611,37.541 23.918,55.957c-2.889,19.653 -1.302,22.689 7.869,15.08c6.323,-5.241 11.483,-22.607 11.483,-38.59c0,-22.339 -6.136,-33.586 -26.522,-48.665l-26.522,-19.613l40.812,-13.2c51.864,-16.772 69.727,-40.69 50.692,-67.855c-11.629,-16.61 -21.086,-19.059 -71.501,-18.555c-31.958,0.326 -75.122,5.884 -95.923,12.378m1614.73,0.513c3.564,18.123 29.867,36.304 39.128,27.043c9.261,-9.261 -8.911,-35.563 -27.035,-39.136c-10.392,-2.035 -14.136,1.701 -12.093,12.093m-3490.975,8.228c0,8.944 5.68,13.2 15.186,11.377c18.302,-3.524 17.147,-18.937 -1.709,-22.86c-7.861,-1.636 -13.477,3.141 -13.477,11.483m160.588,2.523l-26.042,14.844l26.53,2.596c30.599,2.995 73.299,-11.035 73.299,-24.08c0,-13.859 -44.922,-9.806 -73.787,6.641m2532.52,11.662c-8.521,32.861 -3.353,87.427 7.625,80.648c7.324,-4.533 33.651,-60.474 33.651,-71.501c0,-2.718 -6.104,2.637 -13.558,11.906c-12.744,15.837 -13.241,14.876 -8.293,-15.698c6.478,-39.941 -9.334,-44.295 -19.425,-5.355m926.082,-4.842l-21.012,22.355l30.347,25.138c32.357,26.807 46.045,28.394 50.415,5.868c1.929,-9.928 -7.601,-16.772 -32.821,-23.56c-32.943,-8.87 -41.39,-26.115 -12.785,-26.115c6.885,0 12.508,-5.859 12.508,-13.021c0,-17.464 -2.214,-16.691 -26.66,9.334m-3198.031,12.077c-16.927,32.731 -11.385,43.693 22.07,43.693c29.232,0 31.348,-5.225 11.157,-27.531c-13.501,-14.933 -13.208,-15.877 5.062,-15.877c24.495,0 19.36,-20.654 -6.063,-24.406c-13.167,-1.945 -22.257,4.858 -32.227,24.121m-516.642,-7.886c0,5.054 3.906,6.779 8.683,3.833c4.769,-2.954 8.675,-7.088 8.675,-9.196c0,-2.108 -3.906,-3.825 -8.675,-3.825c-4.777,0 -8.683,4.142 -8.683,9.188m394.971,6.307c-19.1,1.359 -40.584,4.565 -47.746,7.129c-24.373,8.724 16.227,29.207 46.639,23.535c54.069,-10.067 54.948,-34.505 1.107,-30.664m1615.698,9.31c-19.743,21.818 -85.368,158.586 -79.11,164.852c2.751,2.751 11.947,0.667 20.435,-4.639c12.345,-7.707 17.489,-6.348 25.724,6.836c5.656,9.066 15.934,16.479 22.835,16.479c8.447,0 5.33,-7.227 -9.546,-22.103c-17.497,-17.497 -24.65,-19.987 -34.334,-11.963c-9.578,7.951 -12.223,7.349 -12.223,-2.816c0,-21.444 85.392,-145.41 100.171,-145.41c7.536,0 11.287,-3.906 8.341,-8.683c-8.317,-13.452 -26.237,-10.295 -42.293,7.446m-397.062,3.8c-12.467,5.754 -35.343,25.106 -50.814,43.009c-28.019,32.43 -31.413,45.076 -5.005,18.669c10.189,-10.189 16.886,-11.393 25.163,-4.517c8.683,7.202 11.125,4.997 10.604,-9.562c-0.822,-23.275 33.268,-43.172 66.61,-38.892c28.67,3.703 31.909,-7.096 4.338,-14.486c-24.658,-6.608 -23.844,-6.698 -50.895,5.77m-1574.17,5.526c-2.751,4.443 -1.025,10.531 3.825,13.534c4.858,3.003 8.822,-0.643 8.822,-8.081c0,-15.251 -5.208,-17.497 -12.646,-5.452m2704.492,16.016c-14.046,33.757 -46.493,58.407 -112.769,85.677c-26.782,11.003 -40.495,20.109 -30.501,20.223c27.897,0.326 126.546,-53.394 145.028,-78.955c9.049,-12.508 15.015,-30.086 13.257,-39.062c-2.482,-12.728 -5.786,-10.059 -15.015,12.118m906.893,-16.439c-0.342,0.553 -0.627,1.139 -0.854,1.758c-0.228,0.61 -0.399,1.245 -0.505,1.888c-0.098,0.651 -0.138,1.302 -0.122,1.961c0.024,0.651 0.114,1.302 0.26,1.937c0.155,0.635 0.366,1.253 0.635,1.855c0.277,0.594 0.602,1.156 0.985,1.693c0.382,0.529 0.806,1.025 1.286,1.473c0.48,0.448 1.001,0.846 1.554,1.188c5.436,3.361 4.98,12.964 -1.27,26.676c-10.099,22.16 -3.63,39.396 9.448,25.114c14.876,-16.26 18.392,-53.662 5.998,-63.949c-7.666,-6.364 -14.111,-6.958 -17.415,-1.595m-3390.405,8.301c-0,9.627 39.722,27.441 61.174,27.441c24.235,0 20.939,-16.276 -5.314,-26.261c-27.336,-10.384 -55.859,-10.986 -55.859,-1.18m199.658,23.104c0,21.493 3.89,30.379 13.289,30.379c9.798,0 12.76,-7.992 11.247,-30.379c-1.213,-18.042 -6.616,-30.379 -13.289,-30.379c-7.064,0 -11.247,11.287 -11.247,30.379m3101.139,-24.837c-5.965,2.515 -10.856,12.524 -10.856,22.233c0,14.339 3.67,16.496 19.531,11.483c10.742,-3.385 30.273,-8.195 43.408,-10.677c26.318,-4.972 32.756,-19.832 8.683,-20.028c-8.358,-0.057 -23.006,-1.799 -32.552,-3.849c-9.554,-2.059 -22.241,-1.676 -28.215,0.838m-3386.971,26.009c-9.896,12.573 -17.993,30.908 -17.993,40.747c0,14.974 3.524,13.094 21.704,-11.54c33,-44.727 29.59,-71.549 -3.711,-29.207m639.022,-17.269c-11.922,11.93 -5.745,30.347 9.22,27.466c8.35,-1.611 15.194,-8.407 15.194,-15.104c0,-13.704 -15.316,-21.46 -24.414,-12.362m-585.946,30.615c2.995,30.322 24.422,45.5 24.422,17.293c0,-23.804 -8.838,-44.832 -18.84,-44.832c-4.565,0 -7.088,12.394 -5.583,27.539m536.702,-16.691c0.081,5.973 3.491,16.154 7.593,22.632c9.546,15.055 22.103,-2.417 15.023,-20.874c-5.924,-15.43 -22.795,-16.74 -22.616,-1.758m724.308,19.132c-17.643,37.199 -26.408,44.491 -93.441,77.905c-44.32,22.103 -53.735,30.583 -53.735,48.429c0,16.187 5.208,22.371 20.662,24.561c15.715,2.222 31.405,-8.431 65.405,-44.385c24.601,-26.017 57.292,-53.8 72.648,-61.735c15.356,-7.943 27.913,-16.431 27.913,-18.864c0,-2.433 -8.146,-0.057 -18.107,5.273c-26.603,14.233 -28.353,5.501 -3.556,-17.798c24.072,-22.616 28.402,-43.368 9.049,-43.368c-6.934,0 -19.019,13.485 -26.839,29.98m1806.242,-21.761c-7.642,12.354 2.1,26.506 18.221,26.506c7.601,0 11.963,-6.104 10.335,-14.478c-3.377,-17.44 -20.711,-24.731 -28.556,-12.028m-3186.418,9.725c-3.149,5.086 -3.947,11.043 -1.758,13.216c6.055,6.063 32.495,-5.924 32.495,-14.73c0,-10.864 -23.812,-9.692 -30.737,1.514m3237.565,2.327c-3.101,8.073 -0.61,20.728 5.534,28.133c10.05,12.109 11.987,12.004 19.279,-1.025c5.688,-10.164 4.028,-18.571 -5.542,-28.133c-12.41,-12.41 -14.152,-12.321 -19.271,1.025m352.214,8.602c0,11.499 35.148,49.251 45.858,49.251c8.195,0 -2.873,-27.799 -18.14,-45.573c-15.503,-18.05 -27.718,-19.67 -27.718,-3.678m-3327.661,13.045c-23.519,25.977 -17.285,41.976 7.332,18.848c21.956,-20.63 27.791,-34.725 14.372,-34.725c-4.036,0 -13.802,7.145 -21.704,15.877m329.72,-9.855c-8.398,8.407 -6.641,61.719 2.23,67.196c9.408,5.819 18.27,-15.063 18.27,-43.034c0,-21.183 -10.775,-33.887 -20.492,-24.162m1526.449,17.847c-22.827,35.994 -58.122,71.615 -70.947,71.615c-17.993,0 -13.346,-22.388 10.531,-50.765c12.061,-14.331 18.441,-28.206 14.176,-30.835c-8.683,-5.387 -28.597,14.998 -44.336,45.386c-26.514,51.204 28.158,63.135 65.43,14.282c12.842,-16.846 24.992,-28.988 26.994,-26.978c10.539,10.522 -29.004,73.047 -71.794,113.501c-49.878,47.176 -59.131,75.252 -26.839,81.47c22.827,4.403 48.796,-22.412 71.956,-74.316c11.149,-25 35.978,-59.635 55.168,-76.969c19.189,-17.334 34.888,-35.27 34.888,-39.852c0,-4.582 -10.107,3.678 -22.469,18.368c-32.145,38.2 -40.365,32.983 -20.622,-13.07c9.375,-21.883 17.049,-43.368 17.049,-47.746c0,-16.895 -24.756,-6.844 -39.185,15.91m-2165.682,-1.896c0,14.038 13.566,17.236 21.134,4.98c2.645,-4.281 -1.034,-10.01 -8.171,-12.752c-7.869,-3.019 -12.964,0.024 -12.964,7.772m348.739,6.73c-14.128,15.088 -17.131,23.429 -10.018,27.832c13.59,8.39 36.979,-15.967 33.203,-34.562c-2.572,-12.695 -5.892,-11.735 -23.185,6.73m-140.405,1.676c0,7.161 3.906,13.021 8.683,13.021c4.769,0 8.675,-5.859 8.675,-13.021c0,-7.161 -3.906,-13.021 -8.675,-13.021c-4.777,0 -8.683,5.859 -8.683,13.021m288.525,-2.922c-5.908,5.9 -10.75,17.765 -10.75,26.359c0,19.019 -11.466,20.174 -26.042,2.604c-11.686,-14.087 -43.4,-17.928 -43.4,-5.257c0,15.885 50.7,61.662 63.045,56.934c13.672,-5.249 36.646,-65.12 31.217,-81.38c-2.45,-7.365 -6.169,-7.17 -14.071,0.741m242.196,7.552l-20.492,17.074l35.685,0c29.891,0 35.685,-2.816 35.685,-17.367c0,-22.363 -23.836,-22.225 -50.879,0.293m806.087,-1.107c0,20.671 -29.492,38.932 -52.97,32.796c-9.058,-2.368 -16.471,-0.773 -16.471,3.556c0,12.85 46.68,8.944 67.505,-5.648c20.345,-14.233 25.203,-33.895 10.62,-42.912c-4.777,-2.946 -8.683,2.547 -8.683,12.207m1788.2,-7.292c0,5.086 4.329,17.334 9.611,27.214c7.715,14.412 11.133,15.584 17.236,5.941c13.599,-21.468 8.911,-42.407 -9.481,-42.407c-9.554,0 -17.367,4.167 -17.367,9.253m-118.506,10.246c-6.551,10.596 21.916,34.294 32.983,27.458c4.069,-2.523 7.397,-9.749 7.397,-16.073c0,-14.486 -32.756,-23.722 -40.381,-11.385m-3084.627,10.881c0,7.161 3.906,13.021 8.683,13.021c4.769,0 8.675,-5.859 8.675,-13.021c0,-7.161 -3.906,-13.021 -8.675,-13.021c-4.777,0 -8.683,5.859 -8.683,13.021m122.868,0.456c1.652,8.504 8.252,17.22 14.681,19.36c7.471,2.49 10.596,-1.685 8.683,-11.58c-1.66,-8.512 -8.252,-17.228 -14.689,-19.36c-7.463,-2.49 -10.588,1.685 -8.675,11.58m316.374,-1.31c4.964,12.923 33.944,23.918 41.951,15.902c8.097,-8.097 -13.672,-28.068 -30.591,-28.068c-10.189,0 -14.323,4.443 -11.361,12.166m2831.266,7.275c-18.522,18.522 -18.644,19.572 -2.743,22.64c9.18,1.766 21.826,-3.817 28.117,-12.41c24.422,-33.398 5.452,-41.056 -25.374,-10.229m89.014,0.098c0.203,29.972 14.071,47.86 27.043,34.88c8.073,-8.073 8.203,-15.682 0.553,-32.479c-12.402,-27.205 -27.775,-28.54 -27.596,-2.401m-2963.835,-3.337c-3.743,6.047 -4.451,13.338 -1.587,16.203c7.764,7.772 16.243,-3.654 12.036,-16.235c-2.93,-8.822 -4.98,-8.822 -10.449,0.033m3023.975,15.405c-17.993,47.233 -20.085,72.567 -5.99,72.567c11.646,0 20.793,-16.04 35.531,-62.305c2.555,-8 -0.928,-19.173 -7.723,-24.821c-10.034,-8.325 -14.144,-5.591 -21.818,14.559m-3536.849,-5.566c-2.954,4.777 -1.457,8.683 3.312,8.683c4.777,0 11.1,-3.906 14.046,-8.683c2.954,-4.769 1.457,-8.675 -3.312,-8.675c-4.777,0 -11.092,3.906 -14.046,8.675m3591.593,2.173c1.986,5.973 12.736,10.848 23.869,10.848c11.141,0 21.883,-4.875 23.877,-10.848c2.384,-7.161 -5.745,-10.848 -23.877,-10.848c-18.132,0 -26.253,3.687 -23.869,10.848m119.36,6.51c5.111,9.546 11.108,17.358 13.322,17.358c2.222,0 4.036,-7.812 4.036,-17.358c0,-9.814 -5.794,-17.358 -13.322,-17.358c-10.636,0 -11.45,3.507 -4.036,17.358m-3046.891,0c0,16.667 3.906,21.688 14.933,19.149c6.112,-1.4 11.108,3.483 11.108,10.856c0,7.365 3.906,13.395 8.683,13.395c12.093,0 10.872,-29.053 -1.742,-41.667c-12.638,-12.638 -32.983,-13.713 -32.983,-1.733m-388.737,10.018c4.508,13.525 23.926,15.885 24.609,3.003c0.252,-4.777 -6.055,-10.026 -14.014,-11.686c-9.058,-1.864 -13.021,1.383 -10.596,8.683m80.363,-0.977c-7.015,11.344 11.279,34.359 27.311,34.359c17.855,0 14.437,-24.105 -4.867,-34.44c-11.67,-6.242 -18.555,-6.217 -22.445,0.081m2927.026,-3.247c-8.903,8.895 -6.86,44.604 2.889,50.635c4.769,2.946 8.675,-3.166 8.675,-13.574c0,-15.316 2.344,-16.992 12.248,-8.773c17.725,14.705 25.716,-3.564 8.919,-20.353c-14.852,-14.852 -23.682,-17 -32.731,-7.935m-1971.875,22.803c-19.059,10.791 -35.938,26.343 -37.533,34.57c-4.655,24.194 13.9,17.35 52.987,-19.548c41.154,-38.843 35.799,-44.059 -15.454,-15.023m2365.389,-10.27c0,6.901 -7.812,19.23 -17.358,27.401c-9.554,8.179 -17.367,21.37 -17.367,29.321c0,13.289 1.335,13.241 16.585,-0.562c17.033,-15.413 31.38,-55.461 22.9,-63.94c-2.62,-2.612 -4.761,0.887 -4.761,7.78m-3170.589,13.761c-42.204,17.082 -42.651,32.585 -0.741,25.789c36.336,-5.9 54.004,-19.108 41.545,-31.063c-4.997,-4.793 -21.094,-2.71 -40.804,5.273m241.187,-6.527c-3.117,5.037 -3.475,12.703 -0.798,17.025c6.812,11.035 40.983,0.757 37.028,-11.133c-4.395,-13.216 -29.215,-17.244 -36.23,-5.892m-152.205,8.577c0,5.103 6.177,9.261 13.737,9.261c22.9,0 8.317,21.509 -16.577,24.447c-12.76,1.514 -23.201,6.396 -23.201,10.856c0,12.744 55.615,9.456 74.292,-4.386c14.95,-11.076 15.381,-13.916 3.833,-25.114c-17.448,-16.911 -52.083,-26.929 -52.083,-15.063m469.613,0.057c-8.83,5.452 -9.115,11.133 -1.326,25.708c11.353,21.2 26.506,16.732 26.506,-7.821c0,-20.044 -10.099,-27.214 -25.179,-17.887m2136.572,2.222c3.8,11.377 50.651,26.66 58.301,19.01c7.292,-7.292 -26.79,-29.386 -45.329,-29.386c-9.033,0 -14.868,4.671 -12.972,10.376m159.196,3.263c-26.774,26.782 -11.963,47.127 34.31,47.127c11.255,0 22.884,-3.906 25.838,-8.683c2.979,-4.818 -3.548,-8.74 -14.681,-8.805c-11.019,-0.081 -25.789,-3.776 -32.821,-8.228c-10.946,-6.917 -10.628,-8.895 2.173,-13.81c15.731,-6.038 20.662,-21.24 6.885,-21.24c-4.427,0 -14.193,6.136 -21.704,13.639m226.53,-7.845c-12.646,12.638 -4.59,21.265 17.415,18.652c29.891,-3.532 37.891,-24.447 9.351,-24.447c-11.54,0 -23.592,2.604 -26.766,5.794m-3267.521,8.634c-15.112,6.104 -13.59,20.296 2.173,20.296c7.161,0 13.021,-5.859 13.021,-13.021c0,-7.161 -0.985,-12.712 -2.173,-12.337c-1.188,0.374 -7.048,2.661 -13.021,5.062m2594.922,18.05c3.206,27.759 33.13,39.762 33.13,13.298c0,-16.951 -15.397,-37.093 -28.353,-37.093c-4.142,0 -6.283,10.71 -4.777,23.796m530.273,-3.475l24.064,19.686l-32.747,16.65l-32.731,16.659l28.035,2.946c28.849,3.027 70.996,-19.588 71.517,-38.371c0.391,-14.168 -39.062,-37.948 -62.362,-37.581c-19.458,0.309 -19.377,0.692 4.224,20.011m-3184.058,-2.523c-8.252,13.346 3.044,21.956 14.193,10.815c6.234,-6.234 6.38,-11.092 0.448,-14.754c-4.858,-3.003 -11.45,-1.229 -14.64,3.939m3443.888,8.634c-6.706,10.742 -7.275,16.968 -1.571,16.968c4.972,0 11.336,-6.022 14.168,-13.395c7.812,-20.361 -0.627,-22.746 -12.598,-3.573m-2679.24,-1.172c-6.958,11.247 3.003,33.317 17.537,38.9c12.996,4.989 16.113,-9.554 7.088,-33.065c-5.851,-15.251 -17.155,-17.936 -24.626,-5.835m-655.876,13.477c-18.424,10.262 -19.515,12.939 -7.186,17.725c16.016,6.217 50.594,-8.838 50.594,-22.046c0,-11.702 -17.806,-9.928 -43.408,4.321m317.163,6.836c-22.274,19.466 -22.29,19.629 -6.982,49.886c8.431,16.691 22.184,31.632 30.534,33.187c20.597,3.841 19.336,-18.042 -2.165,-37.5c-24.194,-21.891 -22.949,-42.586 2.165,-35.856c10.75,2.873 23.82,5.29 29.053,5.347c5.249,0.073 13.379,8.765 18.091,19.312c7.682,17.22 8.569,16.105 8.691,-10.856c0.212,-47.282 -38.924,-58.879 -79.386,-23.519m2267.049,0.789c-2.458,6.396 -0.846,17.147 3.581,23.869c6.673,10.164 10.164,9.448 20.614,-4.232c6.917,-9.066 10.522,-19.8 8.008,-23.877c-7.064,-11.41 -27.222,-8.765 -32.202,4.24m337.166,-3.54c-3.491,5.656 0.033,6.901 9.383,3.312c12.166,-4.671 13.647,-2.612 7.902,10.946c-3.89,9.188 -8.911,28.418 -11.157,42.741c-3.8,24.3 -3.092,25.098 10.677,11.938c20.125,-19.23 22.323,-71.086 3.174,-75.033c-7.902,-1.636 -16.903,1.107 -19.979,6.095m-2503.573,12.231c-12.899,15.544 -5.412,21.484 20.776,16.471c11.825,-2.254 21.493,-9.513 21.493,-16.121c0,-15.365 -29.598,-15.617 -42.269,-0.35m1288.045,18.018c-32.967,34.945 -39.99,60.238 -15.413,55.501c16.016,-3.076 59.798,-73.958 51.074,-82.682c-2.84,-2.84 -18.888,9.391 -35.661,27.181m-1566.96,-8.48c0,17.7 17.017,26.034 28.898,14.152c7.568,-7.576 6.86,-12.02 -2.922,-18.205c-18.327,-11.58 -25.977,-10.392 -25.977,4.053m587.573,-6.901c-11.93,11.922 -5.745,30.347 9.22,27.466c8.35,-1.619 15.186,-8.415 15.186,-15.104c0,-13.704 -15.308,-21.46 -24.406,-12.362m2114.258,8.919c-10.734,7.503 -19.531,17.057 -19.531,21.257c0,12.557 31.779,8.602 43.408,-5.404c5.941,-7.161 18.368,-13.021 27.612,-13.021c9.253,0 14.396,-3.906 11.45,-8.683c-7.902,-12.785 -40.576,-9.741 -62.939,5.851m359.619,-5.168c10.205,10.197 72.241,26.432 72.241,18.896c0,-2.555 -6.836,-9.831 -15.186,-16.17c-18.774,-14.25 -71.069,-16.748 -57.056,-2.726m-3158.757,18.848c-29.924,46.769 -24.105,74.154 8.244,38.794c24.113,-26.359 33.358,-58.325 16.862,-58.325c-6.934,0 -18.229,8.789 -25.106,19.531m570.679,-11.296c-3.361,5.436 1.017,20.467 9.717,33.382l15.837,23.486l3.027,-20.638c3.491,-23.893 -18.766,-52.116 -28.581,-36.23m1927.531,-0.716c-3.743,6.055 -4.451,13.346 -1.587,16.211c7.772,7.764 16.243,-3.654 12.036,-16.243c-2.93,-8.822 -4.98,-8.822 -10.449,0.033m-2440.951,13.639c-6.396,16.642 1.579,39.608 13.737,39.608c11.532,0 11.711,-40.666 0.212,-47.778c-4.81,-2.979 -11.084,0.708 -13.949,8.171m2534.521,0.545c-2.751,7.161 -2.482,19.572 0.586,27.588c5.127,13.338 6.746,13.403 19.474,0.667c14.323,-14.315 10.506,-41.276 -5.843,-41.276c-5.078,0 -11.475,5.859 -14.217,13.021m535.05,0.358c0,21.509 25.374,64.746 37.988,64.746c9.106,0 9.587,-6.144 2.295,-29.435c-10.229,-32.674 -40.283,-59.017 -40.283,-35.311m-2946.476,15.275c-11.361,17.074 -13.452,27.051 -7.015,33.488c11.239,11.247 30.762,-20.833 26.213,-43.058c-2.409,-11.784 -6.266,-9.863 -19.198,9.57m817.147,-14.494c-3.011,3.019 -1.44,13.037 3.499,22.266c7.194,13.444 11.466,14.714 21.501,6.388c9.497,-7.886 10.148,-13.265 2.669,-22.266c-10.742,-12.939 -19.173,-14.884 -27.669,-6.388m2079.419,18.018c-18.498,39.827 -10.905,59.888 13.452,35.531c11.328,-11.328 14.486,-59.066 3.906,-58.96c-3.581,0.041 -11.385,10.588 -17.358,23.429m-3146.712,-8.838c-8.35,2.189 -15.194,7.601 -15.194,12.02c0,12.891 31.584,9.269 43.4,-4.98c11.54,-13.9 4.647,-15.625 -28.206,-7.039m3023.014,-2.043c0,11.076 21.126,48.145 27.441,48.145c10.978,0 8.74,-29.785 -3.141,-41.667c-10.319,-10.319 -24.3,-14.046 -24.3,-6.478m-2734.603,27.01c-4.655,12.248 -8.333,26.896 -8.179,32.552c0.407,14.339 34.44,-27.913 34.44,-42.757c0,-20.174 -17.261,-13.468 -26.261,10.205m286.678,-15.194c0,11.23 43.522,39.111 50.35,32.267c9.326,-9.318 -12.118,-34.855 -31.706,-37.777c-10.254,-1.522 -18.644,0.952 -18.644,5.509m1277.433,3.695c-11.361,11.361 -13.786,50 -3.125,50c12.109,0 27.775,-20.272 27.775,-35.946c0,-19.84 -12.02,-26.685 -24.65,-14.054m341.496,-2.083c-7.267,11.751 2.531,26.042 17.871,26.042c6.885,0 12.508,-7.812 12.508,-17.367c0,-17.969 -20.947,-23.958 -30.379,-8.675m902.425,0.578c-3.149,5.086 -3.638,11.336 -1.099,13.892c6.226,6.217 23.153,-4.736 23.153,-14.982c0,-11.092 -14.982,-10.36 -22.054,1.09m-2917.114,11.369c-7.349,19.165 2.433,28.947 15.698,15.682c7.829,-7.829 7.853,-12.679 0.138,-20.402c-7.731,-7.723 -11.499,-6.6 -15.837,4.72m518.612,-1.123c-14.648,14.648 -12.223,25.024 5.184,22.111c10.295,-1.725 14.388,2.295 12.671,12.5c-1.75,10.457 1.554,13.485 10.856,9.92c18.441,-7.072 16.797,-35.547 -2.669,-45.964c-11.019,-5.9 -19.149,-5.461 -26.042,1.432m64.404,11.466c-7.373,29.378 -2.637,33.895 20.435,19.539c20.85,-12.98 20.516,-35.929 -0.586,-39.998c-9.106,-1.758 -16.073,5.428 -19.849,20.459m1490.267,-15.959c-12.63,4.411 -14.917,54.427 -2.474,54.427c13.184,0 27.808,-33.708 20.199,-46.582c-3.776,-6.396 -11.751,-9.928 -17.725,-7.845m292.969,5.632c0,6.567 5.859,16.813 13.021,22.754c11.011,9.147 13.021,7.3 13.021,-11.955c0,-14.445 -4.753,-22.762 -13.021,-22.762c-7.161,0 -13.021,5.379 -13.021,11.963m716.715,-4.191c-2.653,4.272 1.587,10.221 9.408,13.224c16.903,6.486 24.382,1.139 16.423,-11.735c-6.982,-11.296 -19.336,-12.004 -25.83,-1.489m-2773.169,32.235l-11.328,31.331l-24.658,-26.994c-22.55,-24.691 -51.701,-36.247 -51.636,-20.475c0.008,3.589 15.324,24.089 34.041,45.573c33.301,38.232 34.326,38.688 48.014,21.704c32.072,-39.803 41.081,-56.999 36.328,-69.377c-8.187,-21.346 -18.709,-15.104 -30.762,18.237m533.065,-22.721c-6.388,10.335 10.002,34.798 23.315,34.798c11.523,0 4.867,-36.979 -7.381,-41.007c-5.526,-1.823 -12.703,0.968 -15.934,6.209m470.15,-2.816c-10.921,10.921 -5.794,37.614 7.227,37.614c8.097,0 13.021,-8.195 13.021,-21.704c0,-21.077 -8.455,-27.718 -20.247,-15.91m1111.108,0c-8.757,8.748 -6.934,37.614 2.384,37.614c4.492,0 10.84,-4.321 14.103,-9.611c4.142,-6.689 8.195,-6.038 13.403,2.173c5.216,8.236 7.503,4.598 7.593,-12.093c0.098,-17.415 -4.175,-23.869 -15.78,-23.869c-8.757,0 -18.522,2.604 -21.704,5.786m393.522,2.181c0,17.708 11.222,35.433 22.445,35.433c9.554,0 9.953,-4.297 2.018,-21.704c-9.684,-21.24 -24.463,-29.541 -24.463,-13.729m-1890.202,6.453c-5.957,2.417 -10.848,12.288 -10.848,21.948c0,12.459 4.004,16.032 13.729,12.297c7.552,-2.897 15.365,-5.265 17.367,-5.265c1.994,0 3.63,-7.812 3.63,-17.358c0,-17.546 -4.159,-19.572 -23.877,-11.621m1584.212,6.34c-16.691,12.663 -20.386,31.315 -6.209,31.315c13.062,0 51.782,-26.709 51.782,-35.718c0,-11.483 -28.247,-8.748 -45.573,4.403m84.635,-3.402c-2.954,4.769 -1.229,8.675 3.825,8.675c5.054,0 9.196,-3.906 9.196,-8.675c0,-4.777 -1.717,-8.683 -3.833,-8.683c-2.108,0 -6.242,3.906 -9.188,8.683m31.486,19.531c1.335,15.519 -0.326,29.183 -3.687,30.379c-15.023,5.339 -31.925,1.147 -43.994,-10.921c-9.082,-9.082 -14.901,-10.148 -19.035,-3.459c-9.22,14.917 23.039,40.739 59.098,47.29c32.357,5.876 32.552,5.737 32.43,-23.267c-0.155,-38.167 -8.488,-68.237 -18.913,-68.237c-4.582,0 -7.243,12.695 -5.9,28.215m-2709.448,-2.173c0,16.211 2.319,18.514 10.417,10.417c8.097,-8.097 8.097,-12.736 0,-20.833c-8.097,-8.097 -10.417,-5.786 -10.417,10.417m-103.353,3.361c-7.104,8.553 -7.463,14.225 -1.172,18.115c5.037,3.117 11.572,-0.61 14.51,-8.276c7.332,-19.1 -0.724,-25.041 -13.338,-9.839m323.356,1.351c-2.824,7.373 -2.954,15.576 -0.301,18.229c7.609,7.609 23.348,-5.282 23.348,-19.108c0,-16.659 -16.561,-16.016 -23.047,0.879m1125.488,-2.026c0,6.25 5.233,18.514 11.621,27.254c11.035,15.088 11.93,15.112 17.505,0.562c5.9,-15.365 -7.186,-39.176 -21.509,-39.176c-4.191,0 -7.617,5.111 -7.617,11.361m721.932,-0.09c-12.533,15.104 -4.59,23.446 22.339,23.446c15.177,0 20.093,-4.134 17.985,-15.096c-3.695,-19.173 -27.279,-24.064 -40.324,-8.35m708.195,15.519c-28.581,50.22 -13.265,71.338 18.937,26.123c9.871,-13.875 17.952,-31.453 17.952,-39.062c0,-22.827 -20.662,-15.584 -36.89,12.939m211.841,-14.315c1.652,7.967 6.909,14.274 11.678,14.022c12.882,-0.684 10.522,-20.101 -3.003,-24.609c-7.3,-2.433 -10.547,1.538 -8.675,10.588m83.7,7.381c-4.753,24.845 0.741,42.562 11.19,36.1c10.189,-6.291 10.433,-55.965 0.277,-55.965c-4.224,0 -9.383,8.936 -11.466,19.865m-2953.109,2.71c-3.084,8.049 -3.662,16.585 -1.27,18.978c2.384,2.384 6.86,-2.254 9.953,-10.303c3.092,-8.04 3.662,-16.585 1.278,-18.97c-2.384,-2.393 -6.868,2.246 -9.961,10.295m420.142,-5.208c0,4.769 7.812,8.675 17.367,8.675c27.441,0 20.207,16.13 -10.856,24.178c-28.825,7.479 -35.099,21.419 -11.816,26.278c19.051,3.971 57.389,-23.966 57.389,-41.838c0,-15.348 -16.268,-25.977 -39.771,-25.977c-6.771,0 -12.313,3.906 -12.313,8.683m1166.081,5.013c-6.201,16.17 17.424,42.952 30.68,34.766c6.413,-3.963 6.25,-12.134 -0.553,-27.075c-11.19,-24.552 -22.542,-27.458 -30.127,-7.69m90.438,-4.045c-15.275,8.618 -21.533,42.432 -7.853,42.432c4.036,0 14.486,-7.91 23.226,-17.57c18.75,-20.711 8.016,-38.053 -15.373,-24.862m1035.156,-0.968c0,4.769 9.766,8.675 21.704,8.675c11.938,0 21.704,-3.906 21.704,-8.675c0,-4.777 -9.766,-8.683 -21.704,-8.683c-11.938,0 -21.704,3.906 -21.704,8.683m-636.572,5.786c-8.643,8.651 -6.982,72.339 1.88,72.339c4.215,0 9.766,-8.797 12.321,-19.531c3.206,-13.118 6.779,-26.139 10.701,-39.062c4.362,-14.054 2.531,-19.531 -6.535,-19.531c-6.917,0 -15.186,2.604 -18.368,5.786m208.569,-0.244c-10.254,10.254 3.483,20.5 27.474,20.5c13.094,0 28.483,4.688 34.212,10.417c8.097,8.097 10.417,7.202 10.417,-4.036c0,-23.283 -55.143,-43.831 -72.103,-26.88m801.27,3.133c0,4.777 3.906,8.683 8.683,8.683c4.777,0 8.683,-3.906 8.683,-8.683c0,-4.769 -3.906,-8.675 -8.683,-8.675c-4.777,0 -8.683,3.906 -8.683,8.675m-3250.879,8.683c-2.954,4.777 0.952,8.683 8.683,8.683c7.723,0 11.629,-3.906 8.675,-8.683c-2.946,-4.769 -6.852,-8.683 -8.675,-8.683c-1.823,0 -5.729,3.914 -8.683,8.683m91.146,0c0,4.777 3.906,8.683 8.683,8.683c4.769,0 8.675,-3.906 8.675,-8.683c0,-4.769 -3.906,-8.683 -8.675,-8.683c-4.777,0 -8.683,3.914 -8.683,8.683m388.094,9.871c-18.742,9.481 -30.436,20.662 -27.165,25.96c7.65,12.386 54.647,2.572 74.699,-15.576c35.107,-31.763 6.893,-37.931 -47.534,-10.384m249.927,-9.871c-2.946,4.777 -16.431,8.683 -29.964,8.683c-14.307,0 -26.774,5.672 -29.81,13.566c-5.273,13.761 13.81,59.269 28.735,68.49c14.404,8.895 17.871,-9.521 4.997,-26.53c-16.715,-22.07 -17.725,-52.873 -1.286,-39.233c8.561,7.104 19.718,7.186 41.235,0.301c58.024,-18.571 56.974,-17.871 38.175,-25.594c-24.357,-10.018 -45.768,-9.888 -52.083,0.317m208.48,-0.236c-2.865,4.655 2.759,15.291 12.508,23.641c22.013,18.84 23.633,40.389 2.539,33.74c-19.857,-6.258 -65.21,6.112 -69.499,18.97c-5.9,17.708 40.243,22.998 58.276,6.689c13.517,-12.231 19.645,-12.948 35.97,-4.207c19.474,10.417 19.344,10.71 -12.297,26.945c-17.586,9.017 -31.982,22.168 -31.982,29.215c0,18.758 14.673,15.747 48.324,-9.92c33.26,-25.366 39.16,-54.565 12.443,-61.556c-11.019,-2.881 -17.358,-11.841 -17.358,-24.52c0,-40.015 -23.649,-63.704 -38.924,-38.997m525.033,9.635c0,21.159 20.288,18.172 24.504,-3.605c1.668,-8.569 -2.759,-14.478 -10.848,-14.478c-8.049,0 -13.656,7.422 -13.656,18.083m-1142.082,0.228c-6.307,10.213 10.457,24.74 28.8,24.967c16.585,0.195 12.915,-15.511 -5.981,-25.635c-11.898,-6.364 -18.595,-6.16 -22.819,0.667m682.316,7.161c-12.305,22.998 -11.279,29.346 3.809,23.568c7.031,-2.702 16.26,1.286 20.5,8.862c12.972,23.185 22.428,-4.5 9.668,-28.337c-13.517,-25.26 -22.095,-26.294 -33.976,-4.093m1536.157,-8.83c0,4.378 4.867,9.578 10.807,11.556c6.844,2.287 0.472,13.949 -17.358,31.779c-32.951,32.951 -33.748,35.514 -11.125,35.514c23.535,0 64.022,-59.782 51.066,-75.399c-10.815,-13.029 -33.39,-15.365 -33.39,-3.451m60.767,4.077c0,11.54 48.812,40.047 68.587,40.047c20.654,0 7.796,-17.896 -24.837,-34.546c-40.78,-20.801 -43.75,-21.175 -43.75,-5.501m399.308,-4.378c0,4.777 3.906,11.092 8.675,14.046c4.777,2.954 8.683,1.457 8.683,-3.32c0,-4.769 -3.906,-11.092 -8.683,-14.038c-4.769,-2.954 -8.675,-1.465 -8.675,3.312m169.271,1.025c2.954,4.777 11.222,8.683 18.384,8.683c7.161,0 10.612,-3.906 7.658,-8.683c-2.954,-4.777 -11.222,-8.683 -18.384,-8.683c-7.161,0 -10.612,3.906 -7.658,8.683m-3210.889,13.729c-2.897,7.552 -5.151,20.247 -4.997,28.215c0.236,12.492 2.026,12.158 13.021,-2.368c14.233,-18.815 16.854,-39.575 4.997,-39.575c-4.264,0 -10.124,6.177 -13.021,13.729m1117.765,-0.977c-2.962,7.723 -2.759,16.659 0.439,19.865c7.349,7.349 35.97,-10.124 33.675,-20.54c-3.125,-14.111 -28.63,-13.599 -34.115,0.675m1865.072,-2.441c5.371,16.097 24.056,18.758 24.056,3.426c0,-7.56 -6.177,-13.737 -13.737,-13.737c-7.568,0 -12.207,4.631 -10.319,10.311m132.56,-1.636c-6.323,10.246 1.888,26.042 13.534,26.042c4.5,0 8.171,-7.812 8.171,-17.358c0,-18.302 -12.63,-23.356 -21.704,-8.683m149.536,-3.402c-3.133,3.125 -1.562,13.403 3.491,22.843c6.746,12.606 11.735,14.591 18.856,7.471c7.104,-7.104 6.185,-13.159 -3.491,-22.835c-7.251,-7.243 -15.731,-10.612 -18.856,-7.479m-3174.715,12.085c0,4.777 3.906,8.683 8.675,8.683c4.777,0 8.683,-3.906 8.683,-8.683c0,-4.769 -3.906,-8.683 -8.683,-8.683c-4.769,0 -8.675,3.914 -8.675,8.683m221.354,0c-7.088,11.458 3.296,27.71 13.615,21.33c10.547,-6.51 10.482,-30.013 -0.081,-30.013c-4.5,0 -10.588,3.914 -13.534,8.683m2595.158,3.516c-9.351,6.836 -14.258,15.169 -10.905,18.514c9.448,9.448 51.953,-4.053 48.21,-15.291c-5.208,-15.609 -18.766,-16.781 -37.305,-3.223m-1514.429,4.199c0,12.622 32.764,49.178 38.745,43.221c11.45,-11.393 -5.876,-50.936 -22.323,-50.936c-9.033,0 -16.423,3.475 -16.423,7.715m355.908,2.58c0,13.428 33.838,36.882 41.772,28.955c8.057,-8.057 -11.247,-34.505 -27.515,-37.712c-7.845,-1.546 -14.258,2.393 -14.258,8.757m390.625,1.799c0,12.484 17.977,22.632 40.08,22.632c9.92,0 10.628,-3.703 3.32,-17.367c-10.539,-19.686 -43.4,-23.674 -43.4,-5.265m75.602,-6.673c-8.936,8.927 -7.552,37.98 1.807,37.98c4.37,0 9.595,-4.875 11.605,-10.848c2.799,-8.333 7.186,-7.926 18.913,1.758c13.916,11.483 14.998,10.71 12.264,-8.683c-2.954,-20.931 -31.112,-33.691 -44.588,-20.207m857.56,3.263c2.954,4.769 7.088,8.675 9.196,8.675c2.108,0 3.825,-3.906 3.825,-8.675c0,-4.777 -4.142,-8.683 -9.188,-8.683c-5.054,0 -6.787,3.906 -3.833,8.683m-2687.85,16.61c-11.271,9.147 -17.342,19.775 -13.485,23.641c8.35,8.382 50.838,-13.94 55.949,-29.403c5.42,-16.374 -19.295,-13.021 -42.464,5.762m1138.46,-3.703c-5.892,7.096 -8.179,19.539 -5.07,27.637c5.135,13.363 7.316,13.045 23.722,-3.361c9.953,-9.937 15.43,-22.371 12.174,-27.629c-8.081,-13.07 -18.099,-11.987 -30.827,3.353m374.91,-2.49c-5.729,5.729 -10.417,17.716 -10.417,26.628c0,15.324 1.44,15.194 26.042,-2.327c14.323,-10.197 26.042,-22.184 26.042,-26.628c0,-11.621 -29.362,-9.985 -41.667,2.327m-1071.077,4.191c6.258,2.507 13.753,2.197 16.634,-0.684c2.881,-2.881 -2.238,-4.932 -11.385,-4.557c-10.116,0.415 -12.174,2.474 -5.249,5.241m1001.733,4.386c-5.778,5.778 -10.067,18.522 -9.513,28.312c0.822,14.648 1.709,15.104 4.972,2.604c5.493,-21.029 19.019,-18.994 28.849,4.338c7.17,17.017 7.967,15.706 6.234,-10.181c-2.165,-32.17 -13.851,-41.764 -30.542,-25.073m490.78,-0.936c-16.105,9.383 -21.183,42.708 -6.51,42.708c4.777,0 8.683,-3.247 8.683,-7.218c0,-3.963 9.766,-12.435 21.704,-18.823c11.93,-6.396 21.696,-14.868 21.696,-18.831c0,-9.896 -27.083,-8.61 -45.573,2.165m-1787.142,10.701c13.159,16.17 40.487,19.507 48.861,5.965c2.946,-4.777 -2.368,-8.683 -11.8,-8.683c-9.448,0 -24.325,-2.686 -33.065,-5.965c-13.997,-5.249 -14.478,-4.207 -3.996,8.683m322.64,1.204c-12.492,15.055 -9.017,40.934 6.169,45.988c7.332,2.45 10.848,-6.47 10.848,-27.49c0,-34.627 -1.912,-36.702 -17.017,-18.498m603.825,-6.234c-2.865,2.856 -5.208,12.842 -5.208,22.176c0,14.111 2.205,15.153 13.021,6.177c8.993,-7.463 13.021,-7.796 13.021,-1.058c0,13.729 14.583,12.134 20.085,-2.205c4.753,-12.378 -31.437,-34.578 -40.918,-25.09m958.333,9.644c0,8.813 7.821,23.088 17.367,31.73c16.121,14.591 17.358,14.64 17.358,0.773c0,-19.572 -15.723,-48.519 -26.343,-48.519c-4.614,0 -8.382,7.21 -8.382,16.016m-1987.134,9.31c-9.937,9.945 -18.075,21.663 -18.075,26.05c0,4.378 -2.376,14.144 -5.273,21.696c-3.312,8.651 -0.586,13.737 7.365,13.737c13.2,0 47.713,-65.942 39.054,-74.601c-2.734,-2.734 -13.118,3.166 -23.071,13.118m225.692,4.305c-6.576,16.545 -7.096,28.223 -1.522,33.797c5.583,5.583 10.49,0.724 14.193,-14.054c8.569,-34.123 -1.034,-49.072 -12.671,-19.743m480.591,-11.515c-3.206,5.192 -2.458,12.467 1.66,16.154c9.578,8.602 63.916,-5.99 63.916,-17.163c0,-11.589 -58.35,-10.693 -65.576,1.009m1366.602,0.96c-15.503,12.451 -36.759,67.733 -26.042,67.733c15.194,0 45.711,-42.855 43.001,-60.376c-2.466,-15.999 -4.891,-17.057 -16.96,-7.365m119.832,-4.744c-10.311,10.311 -6.478,26.489 11.271,47.648l17.204,20.492l-5.33,-30.379c-5.868,-33.488 -14.054,-46.851 -23.145,-37.76m37.476,18.538c0,29.826 11.89,37.337 21.094,13.338c3.166,-8.236 -0.203,-20.345 -7.747,-27.897c-12.004,-12.004 -13.346,-10.539 -13.346,14.559m56.388,-15.438c-2.979,4.81 0.716,11.084 8.187,13.957c18.571,7.129 58.903,-3.849 52.458,-14.274c-6.868,-11.108 -53.735,-10.864 -60.645,0.317m151.945,-0.521c0,11.125 19.767,24.593 45.63,31.087c23.543,5.908 33.634,-6.177 14.852,-17.782c-17.391,-10.742 -60.482,-20.223 -60.482,-13.306m-2543.408,13.477c0,7.967 4.199,13.07 9.334,11.361c5.127,-1.709 9.326,-6.82 9.326,-11.361c0,-4.533 -4.199,-9.644 -9.326,-11.353c-5.135,-1.709 -9.334,3.394 -9.334,11.353m160.14,13.021c3.166,16.715 5.965,39.176 6.193,49.919c0.684,30.583 14.543,22.884 21.029,-11.662c4.793,-25.57 2.344,-34.562 -13.574,-49.91l-19.434,-18.726l5.786,30.379Zm313.062,-17.529c-2.905,4.696 4.256,22.583 15.91,39.738c22.949,33.757 32.837,30.916 25.521,-7.324c-4.932,-25.806 -32.292,-47.217 -41.431,-32.414m287.801,-2.718c-11.523,11.507 -5.42,43.937 11.068,58.862c27.816,25.171 40.251,11.605 15.617,-17.033c-19.873,-23.096 -20.565,-26.408 -7.642,-36.239c12.728,-9.684 12.777,-10.856 0.488,-11.1c-7.56,-0.163 -16.357,2.327 -19.531,5.509m1710.791,3.841c-15.82,8.952 -21.444,51.131 -6.812,51.131c11.222,0 28.125,-32.601 24.723,-47.681c-1.994,-8.854 -6.755,-9.774 -17.912,-3.451m-2113.623,29.427c-9.595,31.25 -4.915,38.241 13.354,19.971c11.792,-11.792 14.242,-50.35 3.198,-50.35c-3.979,0 -11.426,13.672 -16.553,30.379m657.454,-24.642c0,6.014 52.49,55.029 58.936,55.029c7.642,0 -8.626,-47.835 -18.384,-54.036c-12.646,-8.049 -40.552,-8.724 -40.552,-0.993m585.449,6.576c-9.261,6.771 -13.835,15.308 -10.173,18.97c8.87,8.879 51.693,-6.681 56.258,-20.435c4.891,-14.754 -25.212,-13.802 -46.086,1.465m911.955,7.218c11.711,41.553 24.17,67.277 32.568,67.277c11.198,0 2.238,-57.983 -11.507,-74.561c-15.495,-18.669 -27.23,-14.608 -21.061,7.284m-1300.936,2.303c-2.775,7.227 -14.909,16.903 -26.969,21.484c-12.052,4.582 -21.924,11.816 -21.924,16.056c0,13.989 35.718,53.475 48.372,53.475c16.724,0 15.641,-6.177 -5.851,-33.35l-18.229,-23.079l24.74,-2.93c28.792,-3.418 46.452,-15.91 46.452,-32.845c0,-16.366 -40.251,-15.332 -46.59,1.188m176.799,-6.567c0,11.458 33.496,28.06 46.517,23.071c6.868,-2.645 15.072,-0.627 18.221,4.476c3.158,5.094 14.29,9.383 24.748,9.521c17.554,0.236 16.854,2.23 -9.188,25.92c-42.773,38.908 -35.539,60.856 8.61,26.123c38.851,-30.566 36.011,-48.698 -11.548,-73.568c-41.235,-21.566 -77.36,-28.825 -77.36,-15.544m390.625,2.1c0,4.769 10.938,8.675 24.308,8.675c13.371,0 29.159,4.858 35.083,10.783c8.577,8.577 12.443,8.146 18.962,-2.173c14.225,-22.493 9.546,-25.968 -34.945,-25.968c-23.877,0 -43.408,3.906 -43.408,8.683m95.492,-0.724c0,4.378 4.883,10.01 10.848,12.516c7.104,2.995 1.107,13.208 -17.358,29.565c-28.947,25.651 -36.621,45.638 -17.367,45.199c5.973,-0.13 22.07,-11.662 35.767,-25.635c19.279,-19.645 23.665,-30.396 19.368,-47.493c-5.127,-20.41 -31.258,-32.243 -31.258,-14.152m60.758,2.205c0,18.27 35.986,49.715 60.132,52.539c31.388,3.687 30.973,-16.105 -0.578,-27.108c-15.422,-5.371 -35.132,-16.187 -43.799,-24.023c-13.281,-12.028 -15.755,-12.24 -15.755,-1.408m-1009.701,4.159c-8.748,8.748 -7.202,53.304 2.051,59.025c10.775,6.657 21.924,-46.924 11.849,-56.991c-4.37,-4.378 -10.636,-5.298 -13.9,-2.035m-894.002,8.586c-3.052,3.052 -3.573,8.748 -1.172,12.646c5.42,8.757 29.867,0.212 29.867,-10.441c0,-8.911 -20.418,-10.482 -28.695,-2.205m185.954,27.002c0.578,18.384 2.824,25 5.184,15.194c2.303,-9.546 7.699,-21.077 12.012,-25.61c11.759,-12.362 9.465,-22.135 -5.176,-22.135c-9.44,0 -12.744,8.96 -12.02,32.552m51.693,-20.264c-6.47,7.788 -9.188,16.748 -6.047,19.889c8.105,8.114 25.448,-11.198 21.281,-23.69c-2.393,-7.186 -7.096,-6.014 -15.234,3.8m146.956,-5.347c0,12.663 20.581,27.783 37.801,27.783c16.431,0 16.463,-0.57 1.261,-17.367c-15.682,-17.326 -39.062,-23.568 -39.062,-10.417m149.202,11.637c-39.071,25.179 -23.381,39.917 20.142,18.913c32.625,-15.747 41.357,-31.226 19.922,-35.295c-6.226,-1.18 -24.259,6.193 -40.063,16.382m2062.223,3.125c2.279,11.938 5.648,21.704 7.479,21.704c1.831,0 3.328,-9.766 3.328,-21.704c0,-11.938 -3.369,-21.704 -7.479,-21.704c-4.11,0 -5.615,9.766 -3.328,21.704m-1664.551,-4.346c0,4.777 3.906,8.683 8.683,8.683c4.777,0 8.683,-3.906 8.683,-8.683c0,-4.769 -3.906,-8.675 -8.683,-8.675c-4.777,0 -8.683,3.906 -8.683,8.675m147.575,2.946c0,6.396 -9.766,16.089 -21.704,21.517c-25,11.393 -28.833,27.645 -6.51,27.58c21.908,-0.057 67.008,-38.428 59.481,-50.594c-8.577,-13.883 -31.266,-12.793 -31.266,1.497m633.683,-2.433c0,5.054 3.906,6.779 8.675,3.833c4.777,-2.954 8.683,-7.088 8.683,-9.196c0,-2.108 -3.906,-3.825 -8.683,-3.825c-4.769,0 -8.675,4.142 -8.675,9.188m303.817,3.32c0,15.625 5.086,18.498 45.573,25.806c41.797,7.544 45.809,-14.632 5.216,-28.784c-36.768,-12.817 -50.789,-11.995 -50.789,2.979m161.312,1.75c-3.003,7.853 -3.76,15.975 -1.668,18.066c5.9,5.892 40.015,-14.526 40.015,-23.95c0,-14.225 -32.536,-9.229 -38.346,5.884m194.596,3.613c0,9.831 3.906,15.462 8.675,12.508c4.777,-2.946 8.683,-10.986 8.683,-17.871c0,-6.885 -3.906,-12.508 -8.683,-12.508c-4.769,0 -8.675,8.049 -8.675,17.871m-879.159,7.772c-2.433,9.318 0.041,22.493 5.509,29.272c12.663,15.69 64.551,33.146 70.402,23.682c5.518,-8.919 -10.824,-22.469 -36.605,-30.379c-23.185,-7.104 -25.879,-27.922 -4.338,-33.553c9.774,-2.555 7.039,-4.329 -7.666,-4.98c-15.894,-0.7 -24.219,4.167 -27.303,15.959m136.963,-8.285c2.954,4.777 7.088,8.683 9.196,8.683c2.108,0 3.825,-3.906 3.825,-8.683c0,-4.769 -4.142,-8.683 -9.188,-8.683c-5.054,0 -6.779,3.914 -3.833,8.683m43.359,1.497c-6.209,16.016 8.846,50.586 22.054,50.586c11.702,0 9.928,-17.806 -4.329,-43.4c-10.254,-18.433 -12.931,-19.515 -17.725,-7.186m-1577.62,9.351c-7.21,19.637 2.474,34.408 15.487,23.608c6.421,-5.33 9.53,-15.251 6.909,-22.07c-5.868,-15.283 -17.057,-16.048 -22.396,-1.538m713.949,2.124c0,15.275 68.132,66.984 79.232,60.132c11.938,-7.381 -8.643,-38.371 -31.177,-46.94c-11.182,-4.256 -22.892,-11.873 -26.025,-16.943c-8.366,-13.55 -22.03,-11.222 -22.03,3.752m1736.035,-0.049c5.908,7.113 14.258,10.75 18.571,8.089c11.076,-6.852 0.48,-21.012 -15.723,-21.012c-11.035,0 -11.572,2.417 -2.848,12.931m-1865.495,14.73c-6.445,12.826 -9.115,30.078 -5.949,38.338c9.318,24.292 24.251,1.009 20.736,-32.34l-3.092,-29.313l-11.694,23.315Zm606.893,11.401c0,21.606 3.491,30.672 10.848,28.215c5.973,-1.986 10.848,-14.689 10.848,-28.215c0,-13.525 -4.875,-26.221 -10.848,-28.215c-7.357,-2.45 -10.848,6.608 -10.848,28.215m976.562,-21.704c-2.946,4.777 -1.221,8.683 3.833,8.683c5.046,0 9.188,-3.906 9.188,-8.683c0,-4.769 -1.717,-8.675 -3.825,-8.675c-2.108,0 -6.242,3.906 -9.196,8.675m183.822,3.491c-4.744,12.37 0.643,22.55 11.93,22.55c3.418,0 8.26,-7.812 10.758,-17.358c5.208,-19.914 -15.251,-24.593 -22.689,-5.192m-2444.499,8.797c-6.47,7.796 -9.188,16.748 -6.047,19.897c8.105,8.105 25.448,-11.198 21.281,-23.69c-2.393,-7.194 -7.096,-6.022 -15.234,3.792m358.236,1.253c-7.593,19.759 4.248,26.392 19.629,11.003c12.199,-12.199 12.15,-14.006 -0.529,-18.864c-8.423,-3.239 -16.048,-0.098 -19.1,7.869m418.905,-6.217c-3.003,4.858 -1.229,11.45 3.931,14.64c13.354,8.252 21.965,-3.044 10.815,-14.193c-6.234,-6.234 -11.084,-6.38 -14.746,-0.448m147.225,11.971c-13.411,19.141 -18.042,41.463 -8.594,41.463c9.285,0 64.518,-45.467 64.518,-53.117c0,-15.926 -42.863,-7.007 -55.924,11.654m803.092,3.573c-19.263,24.479 -21.379,31.616 -12.126,40.861c8.879,8.887 46.216,-29.801 46.216,-47.884c0,-22.38 -13.094,-19.678 -34.09,7.023m667.773,-5.509c0,11.19 4.386,17.342 10.848,15.186c5.973,-1.986 10.848,-8.822 10.848,-15.186c0,-6.364 -4.875,-13.208 -10.848,-15.194c-6.462,-2.148 -10.848,4.004 -10.848,15.194m-1981.348,4.964c-26.579,14.421 -33.781,41.406 -8.683,32.511c19.287,-6.844 45.573,-29.232 45.573,-38.818c0,-10.262 -9.261,-8.683 -36.89,6.307m156.25,-7.666c-21.851,5.713 -18.693,18.856 6.014,25.057c28.353,7.113 43.783,-2.466 30.241,-18.791c-5.591,-6.73 -12.614,-11.792 -15.609,-11.239c-3.003,0.553 -12.297,2.791 -20.646,4.972m147.184,17.887c-2.531,13.135 -3.076,25.415 -1.229,27.287c7.113,7.194 29.826,-19.352 29.826,-34.855c0,-25.366 -23.47,-19.157 -28.597,7.568m870.614,-11.67c0,14.876 74.919,60.262 87.069,52.743c12.459,-7.69 3.052,-19.23 -35.539,-43.595c-38.525,-24.316 -51.53,-26.619 -51.53,-9.147m283.919,5.282c-5.591,21.37 6.307,51.969 20.207,51.969c12.378,0 10.164,-37.646 -3.296,-56.055c-11.092,-15.169 -11.93,-14.974 -16.911,4.093m121.899,-11.507c-20.215,5.29 -19.287,17.594 1.839,24.3c23.161,7.349 59.578,-11.735 42.733,-22.396c-12.679,-8.04 -19.906,-8.341 -44.572,-1.904m220.817,3.247c2.083,6.258 8.927,13.102 15.194,15.194c6.51,2.165 9.766,-1.09 7.593,-7.601c-2.091,-6.266 -8.927,-13.102 -15.194,-15.186c-6.51,-2.173 -9.766,1.082 -7.593,7.593m-878.857,27.433c-25.098,27.474 -33.13,50.146 -17.773,50.146c9.88,0 61.662,-58.569 61.662,-69.751c0,-16.341 -18.677,-7.992 -43.888,19.604m582.088,2.401c0,27.913 1.839,30.981 13.021,21.704c7.161,-5.949 13.021,-15.715 13.021,-21.704c0,-5.99 -5.859,-15.755 -13.021,-21.704c-11.182,-9.277 -13.021,-6.201 -13.021,21.704m225.96,-23.869c0.521,12.394 43.685,38.053 58.569,34.823c11.418,-2.482 7.764,-7.739 -15.43,-22.266c-31.934,-19.971 -43.587,-23.364 -43.14,-12.557m-2083.61,19.531c0,4.769 3.906,8.675 8.683,8.675c4.777,0 8.683,-3.906 8.683,-8.675c0,-4.777 -3.906,-8.683 -8.683,-8.683c-4.777,0 -8.683,3.906 -8.683,8.683m401.172,15.186c-16.87,45.166 -18.441,53.711 -10.758,58.464c11.841,7.324 34.937,-31.177 34.937,-58.228c0,-30.876 -12.671,-31.006 -24.178,-0.236m624.341,-12.419c-7.406,9.001 -9.66,22.99 -6.03,37.443c8.04,32.031 24.276,13.794 20.654,-23.21c-2.498,-25.496 -4.077,-27.043 -14.624,-14.233m122.469,-0.675c4.671,13.997 55.656,43.75 67.961,39.64c14.299,-4.761 -35.181,-50.415 -54.655,-50.415c-9.587,0 -15.34,4.655 -13.306,10.775m854.24,5.103c-15.576,17.212 -19.393,44.889 -6.177,44.889c10.4,0 35.213,-35.01 35.213,-49.683c0,-15.747 -12.28,-13.721 -29.036,4.793m55.355,15.617c-0.163,21.549 4.915,40.129 12.744,46.631c11.149,9.245 13.021,6.51 13.021,-18.97c0,-16.39 -5.737,-37.37 -12.744,-46.647c-11.873,-15.698 -12.769,-14.404 -13.021,18.986m372.99,-22.811c0,4.769 3.906,8.675 8.683,8.675c4.769,0 8.675,-3.906 8.675,-8.675c0,-4.777 -3.906,-8.683 -8.675,-8.683c-4.777,0 -8.683,3.906 -8.683,8.683m-2469.897,13.021c-2.238,7.161 -6.022,19.206 -8.423,26.766c-2.572,8.162 -0.114,12.337 6.047,10.278c12.76,-4.248 26.164,-50.065 14.64,-50.065c-4.508,0 -10.034,5.859 -12.264,13.021m499.406,-1.294c0,20.467 15.69,49.032 26.937,49.032c11.353,0 1.416,-34.676 -14.844,-51.766c-10.563,-11.108 -12.093,-10.767 -12.093,2.734m112.85,0.781c0,7.438 3.906,13.534 8.675,13.534c4.777,0 8.683,-3.67 8.683,-8.171c0,-4.492 -3.906,-10.579 -8.683,-13.534c-4.769,-2.946 -8.675,0.732 -8.675,8.171m140.999,-1.66c1.969,5.973 14.99,11.922 28.939,13.224c24.202,2.254 24.601,1.75 8.521,-10.856c-20.361,-15.975 -42.383,-17.367 -37.459,-2.368m345.109,19.531c0,29.574 10.555,39.738 22.005,21.208c7.56,-12.24 -2.726,-51.587 -13.493,-51.587c-4.688,0 -8.512,13.672 -8.512,30.379m657.552,-21.004c-17.44,10.156 -20.524,34.163 -4.338,33.748c17.692,-0.448 43.441,-23.853 37.248,-33.862c-7.007,-11.336 -13.289,-11.312 -32.91,0.114m-1673.177,7.983c0,4.777 3.906,8.683 8.675,8.683c4.777,0 8.683,-3.906 8.683,-8.683c0,-4.769 -3.906,-8.683 -8.683,-8.683c-4.769,0 -8.675,3.914 -8.675,8.683m865.161,-2.889c-11.678,11.686 -5.249,20.247 15.202,20.247c26.579,0 48.454,-8.252 48.454,-18.286c0,-8.944 -54.98,-10.636 -63.656,-1.961m497.689,9.44c0,9.554 5.859,22.225 13.021,28.174c10.832,8.993 13.021,7.886 13.021,-6.559c0,-9.546 -5.859,-22.217 -13.021,-28.166c-10.832,-8.993 -13.021,-7.886 -13.021,6.551m1059.033,-3.231c0,7.161 3.906,15.43 8.675,18.384c4.777,2.946 8.683,-0.496 8.683,-7.658c0,-7.161 -3.906,-15.438 -8.683,-18.384c-4.769,-2.954 -8.675,0.496 -8.675,7.658m-1953.133,9.701c0,7.959 4.199,13.062 9.326,11.353c5.135,-1.709 9.334,-6.812 9.334,-11.353c0,-4.541 -4.199,-9.644 -9.334,-11.353c-5.127,-1.709 -9.326,3.394 -9.326,11.353m828.996,-2.645c-32.65,18.514 -41.772,46.493 -12.093,37.077c24.414,-7.756 51.343,-31.437 45.858,-40.316c-5.778,-9.351 -12.744,-8.683 -33.765,3.239m108.504,2.132c0,6.885 3.499,14.673 7.772,17.31c8.944,5.526 19.71,-16.805 11.882,-24.626c-9.31,-9.31 -19.653,-5.469 -19.653,7.316m490.454,-3.825c-3.459,5.607 -2.393,14.095 2.376,18.872c5.794,5.786 10.783,5.282 14.99,-1.514c3.459,-5.607 2.393,-14.095 -2.384,-18.872c-5.786,-5.786 -10.783,-5.282 -14.982,1.514m-1601.742,13.224c-6.038,7.275 -8.285,15.934 -4.989,19.23c7.243,7.243 33.162,-7.951 37.923,-22.217c4.948,-14.852 -20.02,-12.573 -32.935,2.987m432.031,5.135c-25.049,18.693 -31.966,42.407 -12.362,42.407c13.973,0 49.259,-36.165 49.259,-50.472c0,-14.502 -9.383,-12.459 -36.898,8.065m340.715,-1.929c0,8.854 21.069,18.294 40.837,18.294c10.897,0 11.377,-2.409 2.563,-13.021c-11.678,-14.087 -43.4,-17.936 -43.4,-5.273m403.646,0.928c2.954,4.777 14.901,8.683 26.554,8.683c11.662,0 21.191,-3.906 21.191,-8.683c0,-4.769 -11.955,-8.675 -26.554,-8.675c-15.495,0 -24.325,3.613 -21.191,8.675m-863.713,8.683c0,4.777 3.906,8.683 8.675,8.683c4.777,0 8.683,-3.906 8.683,-8.683c0,-4.777 -3.906,-8.683 -8.683,-8.683c-4.769,0 -8.675,3.906 -8.675,8.683m217.293,9.505c-0.155,12.386 7.528,29.598 17.082,38.241c16.821,15.226 17.358,15.161 17.358,-2.035c0,-9.766 -7.682,-26.969 -17.074,-38.241l-17.065,-20.492l-0.301,22.526Zm916.243,-10.669c-3.743,6.047 -4.46,13.338 -1.595,16.203c7.772,7.772 16.243,-3.654 12.044,-16.235c-2.938,-8.822 -4.98,-8.822 -10.449,0.033m326.693,2.498c2.132,6.437 10.848,13.029 19.352,14.689c9.896,1.912 14.079,-1.213 11.58,-8.683c-2.132,-6.429 -10.848,-13.029 -19.352,-14.681c-9.896,-1.912 -14.071,1.213 -11.58,8.675m-1411.043,4.451c-3.182,3.182 -5.786,11.466 -5.786,18.424c0,10.254 2.458,10.596 13.021,1.831c7.161,-5.949 13.021,-14.233 13.021,-18.424c0,-8.993 -12.012,-10.075 -20.256,-1.831m121.533,0c-8.618,8.618 -7.007,70.565 1.978,76.115c10.425,6.445 18.27,-15.975 18.27,-52.23c0,-28.101 -7.357,-36.784 -20.247,-23.885m159.139,2.384c0,4.492 3.906,10.579 8.683,13.534c4.769,2.946 8.675,-0.732 8.675,-8.171c0,-7.438 -3.906,-13.534 -8.675,-13.534c-4.777,0 -8.683,3.67 -8.683,8.171m598.958,9.188c-17.969,17.969 -23.421,43.4 -9.31,43.4c9.277,0 44.035,-42.033 44.035,-53.255c0,-12.939 -16.65,-8.219 -34.725,9.855m95.776,-3.516c-0.155,10.002 7.528,25.26 17.074,33.895c14.657,13.265 17.358,13.623 17.358,2.311c0,-7.373 -7.682,-22.632 -17.074,-33.895c-16.618,-19.954 -17.074,-20.02 -17.358,-2.311m344.181,-8.203c-8.651,8.667 -7.251,37.76 1.823,37.76c11.344,0 20.109,-27.702 11.491,-36.32c-4.053,-4.053 -10.042,-4.704 -13.314,-1.44m-1585.791,19.889c0,9.269 3.906,19.263 8.675,22.209c4.924,3.052 8.683,-4.248 8.683,-16.846c0,-12.215 -3.906,-22.217 -8.683,-22.217c-4.769,0 -8.675,7.585 -8.675,16.854m499.699,-9.082c-2.653,4.281 0.903,9.969 7.886,12.646c13.558,5.2 25.146,-5.623 15.902,-14.868c-7.845,-7.845 -18.164,-6.885 -23.787,2.222m235.295,9.977c-12.752,10.034 -23.185,21.859 -23.185,26.294c0,13.07 20.109,8.879 43.4,-9.041c15.535,-11.963 19.043,-19.368 12.337,-26.099c-6.714,-6.738 -15.918,-4.24 -32.552,8.846m564.437,-12.199c-6.934,6.934 0.903,20.492 11.849,20.492c4.492,0 8.171,-5.859 8.171,-13.021c0,-13.42 -10.246,-17.244 -20.02,-7.471m93.799,3.133c-2.946,4.777 -1.221,8.683 3.833,8.683c5.054,0 9.188,-3.906 9.188,-8.683c0,-4.769 -1.717,-8.683 -3.825,-8.683c-2.108,0 -6.242,3.914 -9.196,8.683m-438.363,12.508c0,7.438 3.906,13.534 8.675,13.534c4.777,0 8.683,-3.67 8.683,-8.171c0,-4.492 -3.906,-10.579 -8.683,-13.534c-4.769,-2.946 -8.675,0.732 -8.675,8.171m91.146,-3.825c2.946,4.769 7.08,8.675 9.188,8.675c2.108,0 3.833,-3.906 3.833,-8.675c0,-4.777 -4.142,-8.683 -9.196,-8.683c-5.054,0 -6.779,3.906 -3.825,8.683m157.829,-3.019c-13.436,13.428 -1.693,93.604 12.427,84.871c9.57,-5.908 9.904,-64.925 0.456,-79.818c-3.833,-6.038 -9.627,-8.309 -12.882,-5.054m-370.508,12.72c0,16.504 32.406,47.599 40.828,39.168c3.296,-3.296 -4.541,-16.528 -17.415,-29.411c-17.155,-17.139 -23.413,-19.751 -23.413,-9.757m694.45,-1.025c0,4.777 5.859,8.683 13.021,8.683c7.161,0 13.021,-3.906 13.021,-8.683c0,-4.769 -5.859,-8.675 -13.021,-8.675c-7.161,0 -13.021,3.906 -13.021,8.675m-1614.591,13.021c0,7.967 4.199,13.07 9.334,11.361c5.127,-1.709 9.326,-6.82 9.326,-11.361c0,-4.533 -4.199,-9.644 -9.326,-11.353c-5.135,-1.709 -9.334,3.394 -9.334,11.353m750.513,-3.752c-3.149,5.086 -3.638,11.336 -1.09,13.883c6.226,6.217 23.153,-4.736 23.153,-14.982c0,-11.092 -14.982,-10.352 -22.062,1.099m123.446,15.487c-5.444,27.254 1.001,62.052 11.507,62.052c9.432,0 18.783,-55.518 12.223,-72.624c-8.252,-21.484 -18.205,-17.049 -23.73,10.563m115.633,-16.064c0,4.777 5.851,8.683 13.021,8.683c7.161,0 13.021,-3.906 13.021,-8.683c0,-4.769 -5.859,-8.683 -13.021,-8.683c-7.17,0 -13.021,3.914 -13.021,8.683m182.292,4.338c0,7.17 3.906,13.021 8.675,13.021c4.777,0 8.683,-5.851 8.683,-13.021c0,-7.161 -3.906,-13.021 -8.683,-13.021c-4.769,0 -8.675,5.859 -8.675,13.021m-798.617,21.704c0,15.837 3.605,24.845 8.683,21.704c4.769,-2.954 8.675,-12.72 8.675,-21.704c0,-8.984 -3.906,-18.75 -8.675,-21.704c-5.078,-3.141 -8.683,5.876 -8.683,21.704m51.831,-12.72c-15.08,18.172 -2.507,27.881 14.315,11.06c8.114,-8.114 10.189,-15.78 5.111,-18.921c-4.688,-2.897 -13.428,0.643 -19.425,7.861m1281.331,-5.77c-2.661,4.313 0.977,12.663 8.081,18.571c10.514,8.724 12.931,8.195 12.931,-2.848c0,-16.203 -14.16,-26.799 -21.012,-15.723m55.729,1.644c0,5.054 3.906,6.779 8.683,3.825c4.777,-2.954 8.683,-7.08 8.683,-9.188c0,-2.116 -3.906,-3.833 -8.683,-3.833c-4.777,0 -8.683,4.142 -8.683,9.196m-1710.075,12.508c0,7.161 3.906,13.021 8.683,13.021c4.769,0 8.675,-5.859 8.675,-13.021c0,-7.161 -3.906,-13.021 -8.675,-13.021c-4.777,0 -8.683,5.859 -8.683,13.021m1188.843,13.77c-5.33,9.953 -7.511,20.272 -4.85,22.933c7.17,7.17 31.291,-15.251 31.291,-29.085c0,-17.977 -15.454,-14.38 -26.44,6.152m-1217.773,-3.638c-9.009,9.001 -6.803,37.614 2.889,37.614c4.777,0 8.683,-9.766 8.683,-21.704c0,-22.729 -2.01,-25.488 -11.572,-15.91m490.633,3.434c2.083,6.258 8.927,13.102 15.194,15.194c6.51,2.165 9.766,-1.09 7.593,-7.601c-2.091,-6.266 -8.936,-13.102 -15.194,-15.186c-6.51,-2.173 -9.766,1.082 -7.593,7.593m320.939,1.538c-13.574,13.574 -12.703,23.958 2.026,23.958c13.753,0 25.448,-23.275 14.95,-29.761c-3.8,-2.352 -11.434,0.26 -16.976,5.802m901.522,-4.256c0.081,3.589 3.768,12.256 8.211,19.279c10.002,15.82 21.737,5.924 14.705,-12.394c-5.192,-13.525 -23.161,-18.921 -22.917,-6.885m-714.827,7.959c-3.19,3.182 -5.794,9.823 -5.794,14.762c0,5.428 4.045,4.924 10.27,-1.302c5.656,-5.656 8.26,-12.297 5.794,-14.762c-2.466,-2.466 -7.096,-1.88 -10.27,1.302m306.706,1.831c0,11.1 25.521,30.518 31.836,24.211c6.299,-6.307 -13.118,-31.828 -24.211,-31.828c-1.009,0 -1.978,0.195 -2.913,0.586c-0.936,0.382 -1.758,0.936 -2.474,1.652c-0.708,0.716 -1.261,1.538 -1.652,2.466c-0.382,0.936 -0.578,1.904 -0.586,2.913m-132.56,6.307c-3.475,3.483 -6.323,12.321 -6.323,19.645c0,9.766 2.563,10.734 9.652,3.646c5.314,-5.306 8.171,-14.152 6.34,-19.637c-1.839,-5.485 -6.185,-7.137 -9.668,-3.654m-748.511,12.118c-2.954,4.769 -1.229,8.683 3.825,8.683c5.054,0 9.196,-3.914 9.196,-8.683c0,-4.777 -1.725,-8.683 -3.833,-8.683c-2.108,0 -6.242,3.906 -9.188,8.683m332.064,2.173c-5.607,15.259 2.043,33.634 11.556,27.751c10.221,-6.323 10.376,-38.607 0.187,-38.607c-4.264,0 -9.546,4.891 -11.743,10.856m141.024,1.237c0,12.337 25,26.562 32.869,18.709c5.534,-5.55 -15.169,-30.802 -25.244,-30.802c-4.199,0 -7.625,5.444 -7.625,12.093m343.97,20.874c-2.352,3.817 -0.692,12.598 3.695,19.531c6.226,9.847 8.008,8.325 8.114,-6.925c0.13,-20.076 -4.281,-24.788 -11.808,-12.606m60.4,0.594c-3.743,6.047 -4.451,13.338 -1.587,16.203c7.764,7.772 16.235,-3.654 12.036,-16.235c-2.93,-8.822 -4.98,-8.822 -10.449,0.033m-482.495,18.522c0,4.777 3.906,8.683 8.683,8.683c4.769,0 8.675,-3.906 8.675,-8.683c0,-4.769 -3.906,-8.675 -8.675,-8.675c-4.777,0 -8.683,3.906 -8.683,8.675m65.104,8.683c2.954,4.769 7.088,8.683 9.196,8.683c2.108,0 3.825,-3.914 3.825,-8.683c0,-4.777 -4.142,-8.683 -9.188,-8.683c-5.054,0 -6.787,3.906 -3.833,8.683m386.418,23.869c0.106,18.604 1.994,20.996 8.553,10.856c10.97,-16.992 10.97,-34.725 0,-34.725c-4.777,0 -8.626,10.734 -8.553,23.869m-421.281,-4.867c-3.101,8.065 -1.685,21.737 3.174,30.379c8.13,14.486 9.269,14.567 14.469,1.058c3.109,-8.065 1.685,-21.737 -3.166,-30.379c-8.138,-14.486 -9.277,-14.567 -14.478,-1.058" style="fill:#581d33;"/></g></g></svg>