<?xml version="1.0" encoding="UTF-8" standalone="no"?>
<!DOCTYPE svg PUBLIC "-//W3C//DTD SVG 1.1//EN" "http://www.w3.org/Graphics/SVG/1.1/DTD/svg11.dtd">
<svg width="100%" height="100%" viewBox="0 0 720 720" version="1.1" xmlns="http://www.w3.org/2000/svg" xmlns:xlink="http://www.w3.org/1999/xlink" xml:space="preserve" xmlns:serif="http://www.serif.com/" style="fill-rule:evenodd;clip-rule:evenodd;stroke-linejoin:round;stroke-miterlimit:2;">
    <g transform="matrix(0.24,0,0,0.24,0,0.000001)">
        <g>
            <path d="M1662.805,108.199C1632.754,119.32 1609.523,135.895 1596.594,155.438C1590.773,164.234 1579.23,174.887 1570.949,179.113C1562.664,183.336 1548.035,195.863 1538.445,206.941C1513.125,236.184 1506.457,242.848 1493.82,251.559C1477.191,263.02 1469.52,284.598 1472.785,310.734C1474.277,322.648 1478.141,335.891 1481.367,340.16C1484.598,344.426 1487.305,352.129 1487.379,357.281C1487.574,371.094 1514.895,399.129 1533.625,404.742C1548.156,409.098 1549.223,410.367 1545.047,418.312C1538.066,431.602 1524.375,447.242 1469.891,504.168C1417.16,559.262 1383.129,605.945 1362.457,651.535C1339.273,702.664 1336.93,719.988 1333.934,862.5C1331.867,960.867 1329.762,996.359 1325.52,1004.168C1314.371,1024.68 1288.84,1047.137 1241.676,1077.918C1141.523,1143.277 1053.211,1217.797 945.734,1327.633C857.48,1417.828 799.172,1486.004 718.129,1593.75C697.809,1620.766 627.695,1723.555 615.145,1744.73C612.898,1748.516 615.25,1749.242 624.051,1747.484C634.094,1745.477 651.328,1750.551 671.488,1761.453C672.992,1762.266 676.34,1756.5 678.938,1748.637C685.898,1727.543 696.223,1719.602 709.918,1724.809C727.25,1731.398 735.961,1764.18 723.195,1774.777C718.086,1779.016 717.559,1776.461 719.547,1757.18C721.512,1738.152 720.723,1734.18 714.52,1731.801C698.672,1725.719 674.48,1756.711 683.703,1771.277C691.211,1783.133 687.148,1784.551 676.051,1773.938C654.281,1753.129 612.941,1752.113 609.055,1772.293C606.918,1783.375 619.812,1795.527 647.926,1808.918C674.59,1821.621 688.484,1823.426 706.609,1816.535C716.156,1812.906 717.156,1813.152 713.031,1818.117C710.348,1821.352 702.535,1825.121 695.668,1826.492C668.23,1831.98 604.176,1795.008 604.176,1773.684C604.176,1762.062 600.715,1766.133 574.762,1808.336C523.34,1891.934 523.527,1891.539 529.703,1903.074C532.801,1908.855 539.641,1915.551 544.914,1917.949C550.188,1920.355 553.957,1924.91 553.293,1928.07C551.812,1935.156 522.078,1952.629 518.164,1948.719C514.422,1944.977 528.898,1929.168 536.07,1929.168C545.602,1929.168 542.246,1920.848 530.984,1916.562C525.105,1914.332 518.594,1912.5 516.512,1912.5C510.883,1912.5 501.227,1934.305 503.133,1942.711C504.156,1947.234 502.328,1950 498.316,1950C489.285,1950 474.047,1981.719 472.59,2003.555C471.57,2018.848 472.711,2022.105 479.762,2023.945C484.375,2025.156 489.98,2030.973 492.23,2036.879L496.316,2047.621L506.793,2034.227C512.562,2026.863 519.953,2020.836 523.223,2020.836C533.195,2020.836 529.879,2028.59 517.082,2035.207C506.508,2040.676 504.773,2044.215 503.242,2063.438C502.277,2075.527 502.785,2086.953 504.371,2088.828C505.949,2090.707 514.137,2089.359 522.559,2085.84C535.953,2080.242 538.168,2080.207 540.219,2085.555C544.121,2095.715 554.176,2092.613 554.176,2081.25C554.176,2075.523 556.176,2070.836 558.621,2070.836C561.066,2070.836 561.996,2074.215 560.688,2078.344C558.695,2084.617 560.867,2085.922 573.938,2086.293C582.535,2086.535 590.516,2085.285 591.664,2083.516C592.816,2081.742 597.973,2078.977 603.133,2077.363C614.398,2073.848 616.676,2085.008 605.562,2089.277C600.363,2091.273 599.809,2093.133 603.367,2096.691C606.922,2100.246 610.898,2100.172 619.184,2096.398C633.023,2090.094 634.695,2091.727 629.199,2106.18C623.852,2120.242 630.828,2132.273 639.945,2124.711C645.949,2119.727 662.508,2123.199 662.508,2129.445C662.508,2131.586 660.633,2133.336 658.34,2133.336C651.719,2133.336 653.512,2145.844 660.523,2148.531C665.211,2150.332 666.203,2154.531 664.316,2164.594C662.801,2172.66 663.613,2179.359 666.301,2181.02C668.801,2182.562 670.84,2190.277 670.84,2198.164C670.84,2215.664 677.016,2216.543 698.32,2202.086C716.867,2189.5 719.25,2189.289 722.051,2200C724.996,2211.273 731.738,2210.488 739.977,2197.918C746.137,2188.512 749.523,2187.5 774.883,2187.5C802.855,2187.5 802.984,2187.555 806.758,2200.719C811.738,2218.074 820.801,2221.164 820.965,2205.555C821.074,2195.582 821.75,2194.871 825.312,2200.988C828.195,2205.934 828.09,2210.906 824.992,2216.695C819.57,2226.824 822.461,2232.57 835.465,2237.52C843.957,2240.746 844.844,2243.207 842.848,2258.094C840.996,2271.875 841.832,2275 847.375,2275C852.656,2275 854.176,2279.188 854.176,2293.75C854.176,2304.062 855.918,2312.5 858.047,2312.5C860.176,2312.5 869.059,2305.766 877.785,2297.535C890.781,2285.277 894.977,2283.387 900.941,2287.117C911.918,2293.973 918.422,2292.648 922.98,2282.633C927.348,2273.043 931.539,2270.371 953.133,2263.418C961.062,2260.863 966.676,2260.656 966.676,2262.914C966.676,2265.074 974,2265.594 983.387,2264.094C999.148,2261.57 1000.039,2261.988 999.012,2271.32C998.18,2278.898 1000.191,2281.547 1007.555,2282.602C1012.852,2283.359 1018.211,2286.648 1019.461,2289.91C1020.707,2293.168 1024.762,2295.836 1028.465,2295.836C1033.578,2295.836 1032.973,2297.395 1025.938,2302.32C1011.816,2312.211 1013.797,2322.203 1029.422,2319.91C1042.82,2317.941 1054.176,2327.984 1054.176,2341.797C1054.176,2345.434 1056.695,2351.859 1059.781,2356.078C1065.055,2363.285 1066.449,2362.711 1083.199,2346.457C1095.613,2334.41 1104.609,2329.168 1112.863,2329.168C1120.469,2329.168 1126.32,2326.168 1129.195,2320.797C1132.445,2314.723 1136.332,2313.094 1143.359,2314.855C1150.793,2316.723 1153.566,2315.281 1155.301,2308.645C1158.805,2295.242 1167.316,2297.949 1164.145,2311.461C1159.648,2330.613 1125.379,2412.57 1107.461,2447.031C1082.027,2495.934 1061.867,2516.055 1021.945,2532.375C977.418,2550.582 963.004,2565.5 937.324,2619.996C925.766,2644.52 907.016,2678.754 895.66,2696.074C874.074,2728.988 870.918,2739.207 881.109,2743.117C885.258,2744.711 895.137,2734.512 911.977,2711.273C925.594,2692.469 942.449,2671.66 949.438,2665.027C961.801,2653.285 962.422,2653.152 972.926,2660.035C992.254,2672.699 996.512,2698.34 985.379,2735.039C972.047,2778.996 981.102,2810.07 1017.047,2843.691C1036.441,2861.84 1083.633,2887.5 1097.598,2887.5C1104.84,2887.5 1116.676,2871.812 1116.676,2862.227C1116.676,2858.508 1108.914,2843.914 1099.43,2829.785C1083.289,2805.75 1082.207,2802.293 1082.539,2776.008C1082.941,2744.324 1108.195,2625.398 1120.191,2598.68C1124.496,2589.094 1136.383,2570 1146.613,2556.25C1167.195,2528.574 1337.449,2348.547 1340.32,2351.422C1346.102,2357.203 1375.852,2548.672 1376.352,2583.336C1376.883,2620.246 1376.008,2624.742 1363.363,2650C1355.91,2664.898 1343.293,2687.312 1335.328,2699.816C1318.234,2726.641 1317.273,2739.93 1329.797,2776.176C1336.074,2794.34 1339.531,2817.316 1341.363,2853.027C1343.988,2904.234 1347.309,2914.871 1359.242,2910.297C1364.363,2908.328 1366.328,2897.059 1368.695,2855.992C1370.34,2827.488 1372.902,2804.18 1374.391,2804.191C1375.879,2804.203 1384.258,2806.203 1393.016,2808.633C1415.75,2814.945 1439.426,2838.246 1456.898,2871.5C1465.215,2887.32 1476.926,2903.762 1482.926,2908.039C1500.203,2920.34 1528.27,2926.219 1568.762,2926.012C1609.301,2925.809 1638.73,2918.469 1640.738,2908.055C1643.016,2896.23 1625.82,2880.578 1600.355,2871.293C1586.582,2866.27 1569.758,2856.605 1562.961,2849.812C1548.742,2835.586 1490.883,2726.102 1478.91,2690.758C1469.977,2664.367 1468.598,2629.52 1475.145,2595.359C1478.633,2577.16 1508.344,2373.914 1508.344,2368.266C1508.344,2367.387 1512.094,2366.668 1516.68,2366.668C1521.262,2366.668 1525.012,2368.543 1525.012,2370.832C1525.012,2373.125 1528.617,2375 1533.02,2375C1538.48,2375 1542.566,2370.359 1545.844,2360.418C1548.492,2352.395 1552.707,2345.832 1555.215,2345.832C1557.719,2345.832 1563.047,2342.871 1567.043,2339.25C1572.887,2333.969 1576.094,2333.621 1583.344,2337.5C1590.695,2341.434 1593.859,2340.984 1600.383,2335.078C1610.758,2325.691 1615.211,2330.348 1608.969,2344.047C1602.031,2359.266 1606.496,2363.375 1628.262,2361.797C1647.031,2360.434 1647.461,2360.691 1661.961,2382.199C1675.785,2402.703 1677.086,2403.582 1684.16,2397.18C1688.297,2393.438 1691.738,2388.32 1691.812,2385.812C1691.883,2383.305 1696.766,2375.762 1702.656,2369.059C1711.879,2358.566 1714.5,2357.57 1721.445,2361.91C1734.133,2369.832 1738.672,2363.543 1736.508,2341.039C1734.777,2323.035 1735.402,2320.926 1741.867,2322.977C1745.891,2324.254 1757.836,2320.465 1768.41,2314.562C1784.789,2305.422 1788.008,2304.777 1790.109,2310.246C1793.473,2319.02 1804.117,2318.375 1804.441,2309.375C1804.648,2303.727 1805.547,2304.164 1808.43,2311.332C1810.477,2316.422 1816.781,2321.746 1822.445,2323.168C1828.109,2324.586 1833.758,2328.395 1834.996,2331.625C1837.582,2338.363 1852.418,2339.555 1856.262,2333.332C1860.594,2326.32 1865.781,2328.551 1881.348,2344.113C1896.891,2359.652 1908.348,2360.66 1908.348,2346.477C1908.348,2342.098 1911.176,2331.75 1914.629,2323.48C1919.473,2311.887 1923.051,2308.672 1930.242,2309.43C1937.367,2310.184 1939.914,2307.953 1941.031,2300C1943.141,2284.945 1966.875,2250 1974.988,2250C1978.789,2250 1986.297,2254.688 1991.68,2260.418C1997.438,2266.547 2006.102,2270.832 2012.73,2270.832C2019.75,2270.832 2026.391,2274.367 2030.359,2280.207C2035.676,2288.051 2038.035,2288.797 2044.758,2284.77C2051.406,2280.793 2055.105,2281.762 2066.113,2290.379C2083.141,2303.703 2091.68,2300.609 2091.68,2281.109C2091.68,2259.453 2098.477,2248.711 2110.297,2251.68C2123.398,2254.969 2131.387,2245.242 2125.156,2233.602C2122.625,2228.871 2118.613,2225 2116.242,2225C2110.547,2225 2113.258,2207.344 2119.258,2205.371C2122.219,2204.395 2123.254,2208.086 2122.105,2215.457L2120.289,2227.082L2129.066,2217.043C2133.898,2211.52 2139.258,2204.473 2140.992,2201.379C2143.598,2196.727 2147.625,2196.945 2164.375,2202.656C2179.949,2207.957 2186.355,2208.457 2192.176,2204.824C2197.586,2201.445 2203.004,2201.344 2211.211,2204.465C2220.363,2207.941 2223.645,2207.512 2227.434,2202.328C2233.852,2193.555 2237.957,2194.098 2255.562,2206.047C2271.621,2216.941 2276.789,2214.781 2272.789,2198.844C2271.195,2192.488 2272.637,2187.035 2276.832,2183.555C2284.156,2177.477 2285.316,2159.891 2279.418,2144.375C2275.734,2134.684 2279.316,2129.066 2288.117,2130.738C2289.598,2131.02 2294.879,2127.562 2299.863,2123.055C2308.395,2115.332 2309.957,2115.227 2326.625,2121.223C2352.094,2130.379 2354.684,2127.891 2344.574,2103.969C2334.773,2080.758 2331.254,2078.66 2327.469,2093.75C2324.637,2105.031 2316.68,2108.105 2316.68,2097.918C2316.68,2094.48 2318.344,2091.668 2320.375,2091.668C2325.617,2091.668 2328.379,2068.371 2324.051,2060.633C2322.062,2057.078 2317.492,2054.168 2313.906,2054.168C2309.449,2054.168 2308.059,2051.547 2309.531,2045.93C2310.918,2040.617 2305.918,2029.465 2295.43,2014.496C2286.492,2001.738 2279.18,1989.289 2279.18,1986.828C2279.18,1984.352 2275.305,1983.375 2270.469,1984.641C2263.191,1986.543 2262.125,1985.422 2263.988,1977.832C2266.602,1967.203 2244.289,1934.078 2239.609,1941.641C2237.551,1944.977 2235.207,1944.941 2231.078,1941.512C2226.801,1937.965 2226.512,1934.988 2229.922,1929.523C2233.73,1923.43 2219.516,1902.184 2141.191,1796.891C2097.031,1737.539 2052.906,1678.16 2008.816,1618.754C1987.309,1589.738 1939.496,1528.488 1902.566,1482.648C1865.641,1436.809 1830.742,1393.055 1825.012,1385.418C1756.121,1293.594 1673.113,1191.613 1594.902,1102.707C1577.055,1082.426 1561.301,1061.215 1559.887,1055.574C1557.516,1046.129 1567.102,1016.551 1575.816,1006.422C1577.863,1004.039 1588.922,1011.848 1603.172,1025.738C1648.086,1069.512 1651.586,1069.328 1731.395,1019.012C1773.875,992.23 1809.75,965.324 1843.898,934.637C1939.062,849.117 1941.262,847.82 1996.523,844.672C2041.371,842.117 2059.648,835.77 2098.637,809.223C2127.883,789.305 2139.371,777.211 2135.297,770.621C2130.66,763.113 2102.277,768.566 2091.875,778.973C2076.273,794.57 2073.023,788.32 2071.746,740.289C2070.633,698.398 2071.039,695.832 2078.793,695.832C2093.367,695.832 2093,687.125 2077.773,671.5C2063.984,657.352 2062.82,654.145 2061.672,627.082L2060.43,597.918L2045.848,597.918C2032.531,597.918 2031.082,599.117 2029.18,611.734L2027.098,625.555L2012.738,610.691C2004.84,602.52 1994.855,595.832 1990.547,595.832C1980.375,595.832 1891.684,679 1891.68,688.543C1891.68,693.055 1894.855,695.832 1900.012,695.832C1907.785,695.832 1908.348,698.613 1908.348,737.02L1908.348,778.203L1887.734,778.203C1861.648,778.203 1847.051,786.273 1772.922,841.676C1741.34,865.27 1706.152,888.133 1694.723,892.477L1673.945,900.371L1685.086,882.477C1723.645,820.527 1723.738,805.199 1686.242,685.086C1671.16,636.777 1653.008,582.617 1645.898,564.723L1632.973,532.184L1642.379,521.301C1657.371,503.953 1667.184,495.832 1673.148,495.832C1676.199,495.832 1689.406,505.207 1702.5,516.668C1733.195,543.523 1745.543,544.414 1760.43,520.832C1766.215,511.668 1773.398,504.168 1776.395,504.168C1779.391,504.168 1785.922,499.48 1790.898,493.75C1795.883,488.02 1801.715,483.332 1803.871,483.332C1806.023,483.332 1808.938,479.695 1810.348,475.25C1812.047,469.898 1817.43,466.73 1826.254,465.875L1839.594,464.582L1841.68,432.363C1843.461,404.801 1845.141,399.172 1853.305,393.465C1867.355,383.641 1879.488,370.008 1883.637,359.383C1885.723,354.062 1894.547,347.117 1904.086,343.301C1913.32,339.605 1925.754,330.785 1931.719,323.699C1941.27,312.348 1942.355,307.961 1940.82,286.812C1938.875,259.859 1931.371,248.578 1910.902,241.824C1900.281,238.316 1896.375,233.48 1890.254,216.246C1879.094,184.832 1821.762,130.582 1779.18,111.148C1751.445,98.496 1693.016,97.012 1662.805,108.199M1973.574,732.621C1969.23,737.422 1966.68,747.438 1966.68,759.703L1966.68,779.168L2012.512,779.168L2012.512,758.98C2012.512,728.766 1990.531,713.883 1973.574,732.621M1881.262,831.492C1873.496,838.086 1872.047,840.535 1877.438,837.945C1885.184,834.234 1899.23,820.801 1895.312,820.855C1894.461,820.867 1888.137,825.648 1881.262,831.492M726.199,1819.52C721.125,1824.824 717.945,1829.168 719.137,1829.168C720.328,1829.168 716.047,1833.695 709.617,1839.23C703.188,1844.762 699.062,1850.434 700.453,1851.824C703.969,1855.355 717.082,1849.867 714.629,1845.891C713.527,1844.113 719.148,1838.219 727.125,1832.789C740.863,1823.43 745.445,1814.871 738.551,1811.438C736.828,1810.578 731.273,1814.223 726.199,1819.523M760.426,1833.109C749.828,1835.613 751.582,1836.328 771.977,1837.82C791.973,1839.289 794.82,1838.703 788.887,1834.375C781.164,1828.742 779.262,1828.656 760.426,1833.109M570.902,1836.461C571.059,1843.867 578.184,1850.809 580.984,1846.281C582.551,1843.742 582.676,1839.793 581.258,1837.5C578.254,1832.641 570.812,1831.891 570.902,1836.461M588.945,1848.098C587.586,1851.633 587.379,1855.426 588.477,1856.531C592.191,1860.242 604.176,1853.324 604.176,1847.473C604.176,1839.59 592.02,1840.082 588.945,1848.098M2137.926,1856.672C2133.234,1862.633 2128.293,1874.355 2126.941,1882.715C2125.594,1891.07 2122.727,1902.227 2120.582,1907.488C2114.938,1921.328 2116.059,1924.566 2122.484,1912.98C2126.043,1906.562 2129.031,1904.719 2130.918,1907.77C2132.523,1910.371 2136.684,1912.5 2140.164,1912.5C2148.039,1912.5 2170.906,1890.105 2170.68,1882.613C2170.59,1879.57 2167.738,1882.191 2164.352,1888.438C2148.918,1916.875 2128.629,1907.547 2137.355,1876.027C2143.066,1855.391 2148.094,1847.688 2151.855,1853.777C2153.438,1856.344 2151.793,1864.348 2148.191,1871.562C2144.59,1878.781 2142.508,1885.551 2143.566,1886.609C2147.242,1890.285 2159.512,1859.051 2156.984,1852.465C2153.352,1842.992 2147.703,1844.242 2137.926,1856.672M759.383,1860.512C747.445,1868.949 747.398,1881.035 759.27,1889.348C771.863,1898.168 794.172,1897.355 816.414,1887.262C834.176,1879.203 845.84,1878.996 845.84,1886.738C845.84,1888.75 838.254,1893.82 828.98,1898.004C816.113,1903.809 812.41,1907.66 813.355,1914.262C814.316,1921 817.82,1923.047 829.176,1923.504C840.578,1923.965 841.207,1923.672 832.055,1922.164C816.09,1919.531 819.656,1912.512 843.613,1899.414L863.734,1888.41L851.664,1882.027C841.371,1876.586 840.668,1875.223 846.883,1872.793C850.891,1871.227 854.176,1868.141 854.176,1865.941C854.176,1860.633 836.625,1866.344 831.273,1873.387C825.195,1881.391 798.172,1891.668 783.199,1891.668C766.398,1891.668 753.867,1884.816 756.777,1877.227C759.832,1869.266 793.645,1856.602 802.633,1860.047C812.609,1863.875 805.102,1869.855 787.508,1872.098C776.242,1873.535 777.191,1873.84 791.676,1873.438C807.473,1873 810.426,1871.605 810.426,1864.586C810.426,1857.52 807.254,1856.07 789.59,1855.066C775.645,1854.277 765.656,1856.074 759.383,1860.512M2002.867,1869.98C1994.555,1879.168 1987.512,1913.359 1987.512,1944.527C1987.512,1983.246 1966.27,2008.785 1963.305,1973.637C1961.605,1953.535 1956.891,1954.293 1948.383,1976.043C1939.117,1999.719 1930.254,2011.074 1925.078,2005.902C1918.242,1999.062 1928.328,1972.289 1942.121,1960.684C1949.141,1954.777 1952.207,1950 1948.977,1950C1939.852,1950 1926.227,1966.852 1912.578,1995.027C1897.023,2027.133 1885.918,2030.348 1888.168,2002.082C1888.984,1991.77 1888.809,1983.332 1887.77,1983.332C1886.734,1983.332 1880.484,1988.492 1873.879,1994.793L1861.875,2006.25L1864.73,1994.793C1866.883,1986.133 1866.062,1983.332 1861.359,1983.332C1855.43,1983.332 1841.539,2000.246 1841.805,2007.145C1841.875,2008.945 1843.844,2007.133 1846.18,2003.125C1853.055,1991.324 1856.766,1994.707 1855.336,2011.457C1854.164,2025.215 1854.637,2026.152 1859.301,2019.297C1862.211,2015.016 1867.816,2007.516 1871.75,2002.629C1878.879,1993.781 1878.902,1993.793 1879.043,2006.785C1879.117,2013.949 1881.977,2022.133 1885.391,2024.973C1890.516,2029.223 1893.629,2027.961 1903.148,2017.766C1912.641,2007.609 1916.035,2006.227 1922.191,2009.996C1928.344,2013.762 1931.504,2012.492 1939.852,2002.891C1945.438,1996.465 1950.086,1988.027 1950.18,1984.141C1950.293,1979.414 1952.441,1980.949 1956.695,1988.801C1964.301,2002.82 1969.91,2001.734 1982.004,1983.883C1989.812,1972.359 1991.613,1971.453 1994.934,1977.387C2000.535,1987.391 2014.719,1981.461 2020.906,1966.531C2026.859,1952.156 2028.445,1951.613 2035.758,1961.461C2040.801,1968.254 2041.652,1968.281 2048.191,1961.836C2054.766,1955.359 2054.723,1954.965 2047.406,1955.586C2041,1956.129 2039.363,1952.879 2038.293,1937.5C2036.887,1917.328 2029.195,1903.473 2029.156,1921.043C2029.121,1936.934 2021.41,1960.879 2012.98,1971.293L2005.32,1980.75L2000.156,1971.102C1996.27,1963.848 1996.137,1958.922 1999.617,1951.293C2002.434,1945.109 2002.602,1942.152 2000.047,1943.73C1989.184,1950.445 2000.141,1879.348 2011.398,1870.062C2017.383,1865.133 2017.785,1866.672 2015.387,1885.418C2013.926,1896.875 2011.758,1910.938 2010.578,1916.668C2009.398,1922.398 2011.281,1918.648 2014.754,1908.336C2025.656,1875.996 2018.453,1852.758 2002.867,1869.98M2171.176,1869.098C2171.375,1873.949 2172.363,1874.938 2173.691,1871.617C2174.898,1868.609 2174.746,1865.012 2173.363,1863.629C2171.98,1862.246 2170.996,1864.703 2171.176,1869.098M577.785,1869.445C571.359,1875.867 575.352,1883.863 584.34,1882.586C596.137,1880.902 599.863,1866.668 588.508,1866.668C584.137,1866.668 579.312,1867.918 577.785,1869.445M914.59,1874.508C905.426,1878.723 887.664,1889.93 875.121,1899.418C862.578,1908.906 851.242,1916.668 849.926,1916.668C848.609,1916.668 847.625,1921.426 847.734,1927.238C847.977,1940.473 857.023,1946.535 871.883,1943.414C880.418,1941.621 883.34,1942.621 883.34,1947.344C883.34,1950.824 885.195,1954.82 887.461,1956.223C889.777,1957.656 890.547,1956.074 889.215,1952.609C883.926,1938.816 928.457,1924.051 946.445,1933.633C955.383,1938.402 955.75,1938.246 950.543,1931.934C942.695,1922.426 920.66,1923.152 888.641,1933.965C870.203,1940.191 860.773,1941.602 857.754,1938.582C851.355,1932.18 860.898,1916.668 871.234,1916.668C875.871,1916.668 878.598,1914.934 877.289,1912.816C873.23,1906.25 924.781,1875 939.672,1875C950.684,1875 942.461,1882.77 917.422,1896.035C892.484,1909.238 903.605,1908.645 929.934,1895.359C949.582,1885.445 953.211,1879.316 943.602,1872.285C934.059,1865.309 934.727,1865.254 914.59,1874.508M539.559,1879.836C538.238,1883.258 539.5,1891.543 542.352,1898.242L547.535,1910.418L549.078,1896.348C550.738,1881.125 543.727,1868.965 539.559,1879.836M2085.609,1891.324C2082.07,1898.16 2079.301,1906.191 2079.441,1909.168C2079.586,1912.148 2081.746,1909.898 2084.238,1904.168C2088.695,1893.926 2088.82,1894.012 2091.688,1909.59C2095.434,1929.941 2100.914,1935.629 2111.07,1929.727C2117.641,1925.906 2117.766,1925.234 2111.918,1925.125C2103.668,1924.977 2100.012,1916.594 2100.012,1897.82C2100.012,1879.047 2093.48,1876.098 2085.609,1891.324M2027.918,1893.305C2026.211,1897.641 2025.801,1902.176 2026.996,1903.375C2030.801,1907.176 2034.141,1900.945 2032.551,1893.035C2031.094,1885.785 2030.867,1885.797 2027.918,1893.305M558.34,1905.945C558.34,1914.008 560.477,1916.668 566.965,1916.668C573.512,1916.668 575.266,1914.422 574.258,1907.332C572.277,1893.484 558.34,1892.266 558.34,1905.945M587.508,1904.473C587.508,1910.434 589.754,1912.68 594.754,1911.719C605.613,1909.625 606.824,1895.832 596.145,1895.832C590.184,1895.832 587.508,1898.508 587.508,1904.473M2060.43,1920.438C2060.43,1931.676 2061.832,1940 2063.555,1938.938C2065.277,1937.875 2066.68,1941.246 2066.68,1946.422C2066.68,1961.184 2074.031,1950.18 2076.816,1931.25C2078.602,1919.137 2078.195,1916.863 2075.352,1922.918C2071.539,1931.02 2071.426,1931.004 2071.137,1922.219C2070.781,1911.188 2066.738,1900 2063.109,1900C2061.633,1900 2060.43,1909.195 2060.43,1920.438M583.34,1928.004C567.414,1930.863 563.273,1937.09 572.68,1944.031C580.785,1950.012 600.008,1952.34 600.008,1947.332C600.008,1945.867 596.723,1942.18 592.715,1939.133C585.777,1933.867 585.781,1933.594 592.773,1933.469C596.816,1933.391 603.762,1935.605 608.207,1938.383C617.52,1944.199 623,1940.797 619.402,1931.43C616.973,1925.098 605.586,1924.012 583.34,1928.004M2200.016,1934.91C2200.016,1938.062 2202.906,1943.047 2206.438,1945.98C2211.508,1950.188 2213.93,1950.238 2217.898,1946.211C2221.84,1942.215 2221.176,1939.809 2214.844,1935.137C2204.672,1927.629 2200.016,1927.559 2200.016,1934.91M740.289,1940.281C734.98,1945.59 737.434,1962.5 743.512,1962.5C751.75,1962.5 755.23,1955.719 752.078,1945.797C749.383,1937.305 745.211,1935.352 740.289,1940.281M914.594,1950.742C895.828,1957.914 895.223,1958.523 908.477,1956.848C922.109,1955.121 923.18,1955.797 923.059,1966.035C922.945,1975.422 924.809,1977.184 935.426,1977.746C943.82,1978.188 944.848,1977.75 938.551,1976.414C926.234,1973.797 926.66,1965.09 939.594,1954.914C959.25,1939.449 948.734,1937.695 914.594,1950.742M537.812,1956.812C527.656,1969.723 526.895,1975 535.188,1975C541.836,1975 554.176,1959.504 554.176,1951.156C554.176,1942.562 547.094,1945.008 537.812,1956.812M984.199,1952.367C975.176,1958.688 975.105,1959.293 981.93,1970.848C987.777,1980.742 988.055,1983.906 983.566,1989.309C977.227,1996.953 952,1998.559 956.656,1991.023C958.5,1988.043 957.801,1987.344 954.82,1989.188C944.188,1995.754 950.941,2000.398 969.375,1999.188C993.316,1997.617 1001.5,1988.16 989.953,1975.402C979.5,1963.852 984.109,1955.184 1002.543,1951.727C1014.406,1949.5 1019.164,1950.402 1022.965,1955.598C1025.688,1959.32 1029.121,1961.168 1030.594,1959.691C1032.066,1958.223 1031.18,1954.5 1028.629,1951.426C1022.301,1943.801 995.621,1944.367 984.199,1952.367M708.34,1958.09C708.34,1962.539 710.004,1967.203 712.035,1968.457C717.113,1971.598 726.363,1959.73 723.039,1954.352C718.477,1946.973 708.34,1949.547 708.34,1958.09M1047.926,1958.336C1043.781,1962.918 1038.996,1966.668 1037.305,1966.668C1035.613,1966.668 1028.199,1972.293 1020.844,1979.168C1013.484,1986.043 1008.664,1991.668 1010.129,1991.668C1011.602,1991.668 1010.949,1995.129 1008.684,1999.363C1005.852,2004.656 1006.062,2008.555 1009.371,2011.863C1016.25,2018.742 1022.816,2017.816 1016.984,2010.793C1013.109,2006.117 1014.801,2001.852 1025.238,1989.961C1032.465,1981.73 1039.969,1975 1041.918,1975C1045.559,1975 1066.676,1955.293 1066.676,1951.898C1066.676,1946.809 1054.605,1950.953 1047.926,1958.336M1732.305,1962.836C1722.773,1968.383 1723.012,1986.25 1732.828,2002.352L1740.617,2015.121L1721.039,2024.102C1709.578,2029.359 1699.477,2037.441 1696.672,2043.609C1688.715,2061.059 1700.125,2079.875 1718.062,2078.906C1720.738,2078.758 1718.707,2076.941 1713.555,2074.871C1692.695,2066.488 1711.793,2029.027 1740.105,2022.785C1761.098,2018.152 1765.625,2015.379 1755.176,2013.555C1738.965,2010.723 1727.234,1978.613 1738.344,1967.5C1746.395,1959.449 1754.188,1961.629 1767.211,1975.57C1779.68,1988.918 1785.59,1989.867 1780.953,1977.785C1778.066,1970.262 1756.52,1958.262 1746.246,1958.461C1742.586,1958.531 1736.312,1960.496 1732.305,1962.836M580.707,1981.965C583.691,2003.715 585.004,2006.211 591.395,2002.254C600.887,1996.391 593.406,1962.5 582.629,1962.5C579.566,1962.5 578.93,1968.965 580.707,1981.965M680.234,1967.277C677.516,1969.992 676.52,1977.352 677.922,1984.363C680.016,1994.824 679.203,1996.449 672.535,1995.168C668.219,1994.336 663.977,1989.926 663.117,1985.371C661.242,1975.488 655.094,1970.938 643.758,1971.031C636.27,1971.094 636.586,1972.121 646.883,1981.184C653.184,1986.73 658.34,1993.105 658.34,1995.355C658.34,2001.465 676.422,2006.176 678.297,2000.555C679.16,1997.961 682.312,1995.836 685.301,1995.836C688.285,1995.836 691.512,1990.508 692.465,1984C695.363,1964.254 690.25,1957.258 680.234,1967.277M1083.816,1966.371C1080.238,1968.59 1079.809,1970.734 1082.609,1972.465C1084.988,1973.934 1088.188,1973.105 1089.723,1970.625C1093.547,1964.434 1090.504,1962.242 1083.816,1966.371M2204.18,1966.773C2204.18,1973.133 2225.559,1980.289 2230.332,1975.516C2232.504,1973.344 2233.027,1969.523 2231.488,1967.031C2227.934,1961.285 2204.18,1961.055 2204.18,1966.773M494.641,1972.34C491.066,1982.102 496.121,1987.641 504.512,1983.156C508.906,1980.801 512.508,1977.285 512.508,1975.34C512.508,1969.746 496.57,1967.066 494.641,1972.34M552.547,1974.258C551.387,1976.141 553.273,1983.156 556.746,1989.848C562.82,2001.555 562.617,2002.367 551.324,2011.406C539.41,2020.941 542.789,2023.211 561.465,2018.211C569.105,2016.16 570.84,2012.762 570.84,1999.812C570.84,1981.785 558.527,1964.586 552.547,1974.258M733.047,1977.438C728.234,1983.238 729.02,1983.871 739.508,1982.648C746.074,1981.879 752.215,1978.91 753.156,1976.043C755.641,1968.477 739.559,1969.594 733.047,1977.438M609.383,1977.758C603.395,1980.176 602.254,1991.668 608,1991.668C616.551,1991.668 625.008,1986.262 625.008,1980.805C625.008,1974.984 619.113,1973.836 609.383,1977.758M1054.176,1995.07C1043.863,2003.16 1038.75,2008.555 1042.812,2007.062C1048.984,2004.801 1049.512,2005.637 1046.027,2012.16C1042.992,2017.828 1043.426,2021.262 1047.613,2024.742C1053.645,2029.742 1073.371,2026.855 1077.371,2020.383C1078.625,2018.355 1074.551,2018.629 1068.316,2021C1049.367,2028.207 1047.629,2019.324 1064.371,2000.793C1083.836,1979.254 1078.305,1976.152 1054.176,1995.07M700.84,1988.332C698.09,1991.082 695.898,1996.238 695.973,1999.793C696.086,2005.227 696.984,2005.098 701.641,1998.957C709.066,1989.18 712.508,1989.777 712.508,2000.832C712.508,2007.496 713.758,2008.75 717.086,2005.422C722.672,1999.84 718.105,1983.332 710.98,1983.332C708.152,1983.332 703.59,1985.582 700.84,1988.332M2233.223,1991.902C2229.297,1999.23 2229.645,2002.25 2235.023,2007.629C2241.121,2013.727 2241.68,2013.477 2241.68,2004.613C2241.68,1997.531 2243.434,1995.613 2248.234,1997.457C2252.871,1999.238 2254.379,1997.859 2253.395,1992.742C2251.328,1982.008 2238.797,1981.488 2233.223,1991.902M509.383,1990.492C502.277,1993.043 502.766,2004.168 509.977,2004.168C516.266,2004.168 522.348,1992.984 517.531,1990.281C515.914,1989.371 512.25,1989.469 509.383,1990.492M1095.562,2003.125C1083.961,2016.27 1074.023,2033.734 1076.648,2036.363C1077.629,2037.344 1088.188,2031.441 1100.105,2023.242C1126.93,2004.789 1140.008,2003.004 1123.707,2020.02C1104.781,2039.777 1112.797,2056.902 1136.02,2046.32C1144.98,2042.238 1147.508,2042.801 1153.516,2050.215C1159.551,2057.676 1162.195,2058.246 1172.516,2054.324C1179.105,2051.816 1183.465,2048.73 1182.191,2047.465C1180.926,2046.195 1175.777,2047.359 1170.75,2050.051C1155.691,2058.109 1152.789,2048.723 1166.332,2035.746C1174.91,2027.531 1184.316,2023.395 1197.957,2021.859C1210.875,2020.406 1215.516,2018.477 1211.812,2016.094C1203.344,2010.637 1183.941,2016.008 1155.586,2031.664C1141.461,2039.453 1127.867,2045.832 1125.375,2045.832C1117.066,2045.832 1120.699,2033.789 1133.344,2019.387C1140.219,2011.559 1145.844,2003.992 1145.844,2002.574C1145.844,1996.953 1130.34,2000.625 1113.551,2010.227C1094.863,2020.91 1090.176,2018.922 1104.176,2006.25C1108.758,2002.105 1112.508,1997.125 1112.508,1995.188C1112.508,1988.492 1105.637,1991.711 1095.562,2003.125M1429.773,1997.887C1419.789,2001 1407.133,2007.766 1401.648,2012.918C1391.113,2022.816 1388.41,2039.16 1396.488,2044.145C1399.48,2046 1400.164,2045.293 1398.301,2042.273C1392.773,2033.328 1400.484,2020.762 1416.512,2012.582C1434.805,2003.25 1484.812,1994.254 1498.832,1997.77C1520.16,2003.125 1504.629,2026.359 1476.148,2031.699C1456.777,2035.336 1455.848,2039.809 1470.906,2056.957C1480.797,2068.227 1483.68,2074.977 1482.387,2083.816C1481,2093.25 1481.762,2094.707 1486.164,2091.055C1489.199,2088.539 1491.676,2080.203 1491.676,2072.531C1491.676,2061.809 1488.73,2056.41 1478.945,2049.172L1466.215,2039.758L1485.805,2033.422C1510.699,2025.371 1519.273,2013.891 1510.137,2000.852C1504.555,1992.879 1500.016,1991.703 1475.816,1991.945C1460.477,1992.102 1439.758,1994.77 1429.773,1997.887M2204.844,1998.133C2206.555,2006.832 2219.18,2015.559 2223.625,2011.113C2228.07,2006.668 2219.348,1994.043 2210.648,1992.328C2205.66,1991.352 2203.863,1993.145 2204.844,1998.133M529.176,2002.082C529.176,2006.375 531.902,2008.418 536.465,2007.543C545.25,2005.852 544.695,1998.453 535.645,1996.57C531.871,1995.785 529.176,1998.078 529.176,2002.082M606.258,2003.293L593.758,2010.418L606.492,2011.664C621.18,2013.102 641.676,2006.367 641.676,2000.105C641.676,1993.453 620.113,1995.398 606.258,2003.293M1821.867,2008.891C1817.777,2024.664 1820.258,2050.855 1825.527,2047.602C1829.043,2045.426 1841.68,2018.574 1841.68,2013.281C1841.68,2011.977 1838.75,2014.547 1835.172,2018.996C1829.055,2026.598 1828.816,2026.137 1831.191,2011.461C1834.301,1992.289 1826.711,1990.199 1821.867,2008.891M2266.387,2006.566L2256.301,2017.297L2270.867,2029.363C2286.398,2042.23 2292.969,2042.992 2295.066,2032.18C2295.992,2027.414 2291.418,2024.129 2279.312,2020.871C2263.5,2016.613 2259.445,2008.336 2273.176,2008.336C2276.48,2008.336 2279.18,2005.523 2279.18,2002.086C2279.18,1993.703 2278.117,1994.074 2266.383,2006.566M731.328,2012.363C723.203,2028.074 725.863,2033.336 741.922,2033.336C755.953,2033.336 756.969,2030.828 747.277,2020.121C740.797,2012.953 740.938,2012.5 749.707,2012.5C761.465,2012.5 759,2002.586 746.797,2000.785C740.477,1999.852 736.113,2003.117 731.328,2012.363M483.34,2008.578C483.34,2011.004 485.215,2011.832 487.508,2010.418C489.797,2009 491.672,2007.016 491.672,2006.004C491.672,2004.992 489.797,2004.168 487.508,2004.168C485.215,2004.168 483.34,2006.156 483.34,2008.578M672.926,2011.605C663.758,2012.258 653.445,2013.797 650.008,2015.027C638.309,2019.215 657.797,2029.047 672.395,2026.324C698.348,2021.492 698.77,2009.762 672.926,2011.605M1448.461,2016.074C1438.984,2026.547 1407.484,2092.195 1410.488,2095.203C1411.809,2096.523 1416.223,2095.523 1420.297,2092.977C1426.223,2089.277 1428.691,2089.93 1432.645,2096.258C1435.359,2100.609 1440.293,2104.168 1443.605,2104.168C1447.66,2104.168 1446.164,2100.699 1439.023,2093.559C1430.625,2085.16 1427.191,2083.965 1422.543,2087.816C1417.945,2091.633 1416.676,2091.344 1416.676,2086.465C1416.676,2076.172 1457.664,2016.668 1464.758,2016.668C1468.375,2016.668 1470.176,2014.793 1468.762,2012.5C1464.77,2006.043 1456.168,2007.559 1448.461,2016.074M1257.871,2017.898C1251.887,2020.66 1240.906,2029.949 1233.48,2038.543C1220.031,2054.109 1218.402,2060.18 1231.078,2047.504C1235.969,2042.613 1239.184,2042.035 1243.156,2045.336C1247.324,2048.793 1248.496,2047.734 1248.246,2040.746C1247.852,2029.574 1264.215,2020.023 1280.219,2022.078C1293.98,2023.855 1295.535,2018.672 1282.301,2015.125C1270.465,2011.953 1270.855,2011.91 1257.871,2017.895M502.27,2020.547C500.949,2022.68 501.777,2025.602 504.105,2027.043C506.438,2028.484 508.34,2026.734 508.34,2023.164C508.34,2015.844 505.84,2014.766 502.27,2020.547M1800.426,2028.234C1793.684,2044.438 1778.109,2056.27 1746.297,2069.359C1733.441,2074.641 1726.859,2079.012 1731.656,2079.066C1745.047,2079.223 1792.398,2053.438 1801.27,2041.168C1805.613,2035.164 1808.477,2026.727 1807.633,2022.418C1806.441,2016.309 1804.855,2017.59 1800.426,2028.234M2235.734,2020.344C2235.57,2020.609 2235.434,2020.891 2235.324,2021.188C2235.215,2021.48 2235.133,2021.785 2235.082,2022.094C2235.035,2022.406 2235.016,2022.719 2235.023,2023.035C2235.035,2023.348 2235.078,2023.66 2235.148,2023.965C2235.223,2024.27 2235.324,2024.566 2235.453,2024.855C2235.586,2025.141 2235.742,2025.41 2235.926,2025.668C2236.109,2025.922 2236.312,2026.16 2236.543,2026.375C2236.773,2026.59 2237.023,2026.781 2237.289,2026.945C2239.898,2028.559 2239.68,2033.168 2236.68,2039.75C2231.832,2050.387 2234.938,2058.66 2241.215,2051.805C2248.355,2044 2250.043,2026.047 2244.094,2021.109C2240.414,2018.055 2237.32,2017.77 2235.734,2020.344M608.34,2024.328C608.34,2028.949 627.406,2037.5 637.703,2037.5C649.336,2037.5 647.754,2029.688 635.152,2024.895C622.031,2019.91 608.34,2019.621 608.34,2024.328M704.176,2035.418C704.176,2045.734 706.043,2050 710.555,2050C715.258,2050 716.68,2046.164 715.953,2035.418C715.371,2026.758 712.777,2020.836 709.574,2020.836C706.184,2020.836 704.176,2026.254 704.176,2035.418M2192.723,2023.496C2189.859,2024.703 2187.512,2029.508 2187.512,2034.168C2187.512,2041.051 2189.273,2042.086 2196.887,2039.68C2202.043,2038.055 2211.418,2035.746 2217.723,2034.555C2230.355,2032.168 2233.445,2025.035 2221.891,2024.941C2217.879,2024.914 2210.848,2024.078 2206.266,2023.094C2201.68,2022.105 2195.59,2022.289 2192.723,2023.496M566.977,2035.98C562.227,2042.016 558.34,2050.816 558.34,2055.539C558.34,2062.727 560.031,2061.824 568.758,2050C584.598,2028.531 582.961,2015.656 566.977,2035.98M873.707,2027.691C867.984,2033.418 870.949,2042.258 878.133,2040.875C882.141,2040.102 885.426,2036.84 885.426,2033.625C885.426,2027.047 878.074,2023.324 873.707,2027.691M592.453,2042.387C593.891,2056.941 604.176,2064.227 604.176,2050.688C604.176,2039.262 599.934,2029.168 595.133,2029.168C592.941,2029.168 591.73,2035.117 592.453,2042.387M850.07,2034.375C850.109,2037.242 851.746,2042.129 853.715,2045.238C858.297,2052.465 864.324,2044.078 860.926,2035.219C858.082,2027.812 849.984,2027.184 850.07,2034.375M1197.738,2043.559C1189.27,2061.414 1185.062,2064.914 1152.887,2080.953C1131.613,2091.562 1127.094,2095.633 1127.094,2104.199C1127.094,2111.969 1129.594,2114.938 1137.012,2115.988C1144.555,2117.055 1152.086,2111.941 1168.406,2094.684C1180.215,2082.195 1195.906,2068.859 1203.277,2065.051C1210.648,2061.238 1216.676,2057.164 1216.676,2055.996C1216.676,2054.828 1212.766,2055.969 1207.984,2058.527C1195.215,2065.359 1194.375,2061.168 1206.277,2049.984C1217.832,2039.129 1219.91,2029.168 1210.621,2029.168C1207.293,2029.168 1201.492,2035.641 1197.738,2043.559M2064.734,2033.113C2061.066,2039.043 2065.742,2045.836 2073.48,2045.836C2077.129,2045.836 2079.223,2042.906 2078.441,2038.887C2076.82,2030.516 2068.5,2027.016 2064.734,2033.113M535.254,2037.781C533.742,2040.223 533.359,2043.082 534.41,2044.125C537.316,2047.035 550.008,2041.281 550.008,2037.055C550.008,2031.84 538.578,2032.402 535.254,2037.781M2089.285,2038.898C2087.797,2042.773 2088.992,2048.848 2091.941,2052.402C2096.766,2058.215 2097.695,2058.164 2101.195,2051.91C2103.926,2047.031 2103.129,2042.996 2098.535,2038.406C2092.578,2032.449 2091.742,2032.492 2089.285,2038.898M2258.348,2043.027C2258.348,2048.547 2275.219,2066.668 2280.359,2066.668C2284.293,2066.668 2278.98,2053.324 2271.652,2044.793C2264.211,2036.129 2258.348,2035.352 2258.348,2043.027M661.07,2049.289C649.781,2061.758 652.773,2069.438 664.59,2058.336C675.129,2048.434 677.93,2041.668 671.488,2041.668C669.551,2041.668 664.863,2045.098 661.07,2049.289M819.336,2044.559C815.305,2048.594 816.148,2074.184 820.406,2076.812C824.922,2079.605 829.176,2069.582 829.176,2056.156C829.176,2045.988 824.004,2039.891 819.34,2044.559M1552.035,2053.125C1541.078,2070.402 1524.137,2087.5 1517.98,2087.5C1509.344,2087.5 1511.574,2076.754 1523.035,2063.133C1528.824,2056.254 1531.887,2049.594 1529.84,2048.332C1525.672,2045.746 1516.113,2055.531 1508.559,2070.117C1495.832,2094.695 1522.074,2100.422 1539.965,2076.973C1546.129,2068.887 1551.961,2063.059 1552.922,2064.023C1557.98,2069.074 1539,2099.086 1518.461,2118.504C1494.52,2141.148 1490.078,2154.625 1505.578,2157.609C1516.535,2159.723 1529,2146.852 1540.117,2121.938C1545.469,2109.938 1557.387,2093.312 1566.598,2084.992C1575.809,2076.672 1583.344,2068.062 1583.344,2065.863C1583.344,2063.664 1578.492,2067.629 1572.559,2074.68C1557.129,2093.016 1553.184,2090.512 1562.66,2068.406C1567.16,2057.902 1570.844,2047.59 1570.844,2045.488C1570.844,2037.379 1558.961,2042.203 1552.035,2053.125M512.508,2052.215C512.508,2058.953 519.02,2060.488 522.652,2054.605C523.922,2052.551 522.156,2049.801 518.73,2048.484C514.953,2047.035 512.508,2048.496 512.508,2052.215M679.902,2055.445C673.121,2062.688 671.68,2066.691 675.094,2068.805C681.617,2072.832 692.844,2061.141 691.031,2052.215C689.797,2046.121 688.203,2046.582 679.902,2055.445M612.508,2056.25C612.508,2059.688 614.383,2062.5 616.676,2062.5C618.965,2062.5 620.84,2059.688 620.84,2056.25C620.84,2052.812 618.965,2050 616.676,2050C614.383,2050 612.508,2052.812 612.508,2056.25M751,2054.848C748.164,2057.68 745.84,2063.375 745.84,2067.5C745.84,2076.629 740.336,2077.184 733.34,2068.75C727.73,2061.988 712.508,2060.145 712.508,2066.227C712.508,2073.852 736.844,2095.824 742.77,2093.555C749.332,2091.035 760.359,2062.297 757.754,2054.492C756.578,2050.957 754.793,2051.051 751,2054.848M867.254,2058.473L857.418,2066.668L874.547,2066.668C888.895,2066.668 891.676,2065.316 891.676,2058.332C891.676,2047.598 880.234,2047.664 867.254,2058.473M1254.176,2057.941C1254.176,2067.863 1240.02,2076.629 1228.75,2073.684C1224.402,2072.547 1220.844,2073.312 1220.844,2075.391C1220.844,2081.559 1243.25,2079.684 1253.246,2072.68C1263.012,2065.848 1265.344,2056.41 1258.344,2052.082C1256.051,2050.668 1254.176,2053.305 1254.176,2057.941M2112.512,2054.441C2112.512,2056.883 2114.59,2062.762 2117.125,2067.504C2120.828,2074.422 2122.469,2074.984 2125.398,2070.355C2131.926,2060.051 2129.676,2050 2120.848,2050C2116.262,2050 2112.512,2052 2112.512,2054.441M2055.629,2059.359C2052.484,2064.445 2066.148,2075.82 2071.461,2072.539C2073.414,2071.328 2075.012,2067.859 2075.012,2064.824C2075.012,2057.871 2059.289,2053.438 2055.629,2059.359M575.008,2064.582C575.008,2068.02 576.883,2070.832 579.176,2070.832C581.465,2070.832 583.34,2068.02 583.34,2064.582C583.34,2061.145 581.465,2058.332 579.176,2058.332C576.883,2058.332 575.008,2061.145 575.008,2064.582M633.984,2064.801C634.777,2068.883 637.945,2073.066 641.031,2074.094C644.617,2075.289 646.117,2073.285 645.199,2068.535C644.402,2064.449 641.238,2060.266 638.148,2059.242C634.566,2058.047 633.066,2060.051 633.984,2064.801M785.844,2064.172C788.227,2070.375 802.137,2075.652 805.98,2071.805C809.867,2067.918 799.418,2058.332 791.297,2058.332C786.406,2058.332 784.422,2060.465 785.844,2064.172M2144.852,2067.664C2135.961,2076.555 2135.902,2077.059 2143.535,2078.531C2147.941,2079.379 2154.012,2076.699 2157.031,2072.574C2168.754,2056.543 2159.648,2052.867 2144.852,2067.664M2187.578,2067.711C2187.676,2082.098 2194.332,2090.684 2200.559,2084.453C2204.434,2080.578 2204.496,2076.926 2200.824,2068.863C2194.871,2055.805 2187.492,2055.164 2187.578,2067.711M764.938,2066.109C763.141,2069.012 762.801,2072.512 764.176,2073.887C767.902,2077.617 771.973,2072.133 769.953,2066.094C768.547,2061.859 767.562,2061.859 764.938,2066.109M2216.445,2073.504C2207.809,2096.176 2206.805,2108.336 2213.57,2108.336C2219.16,2108.336 2223.551,2100.637 2230.625,2078.43C2231.852,2074.59 2230.18,2069.227 2226.918,2066.516C2222.102,2062.52 2220.129,2063.832 2216.445,2073.504M518.758,2070.832C517.34,2073.125 518.059,2075 520.348,2075C522.641,2075 525.676,2073.125 527.09,2070.832C528.508,2068.543 527.789,2066.668 525.5,2066.668C523.207,2066.668 520.176,2068.543 518.758,2070.832M2242.723,2071.875C2243.676,2074.742 2248.836,2077.082 2254.18,2077.082C2259.527,2077.082 2264.684,2074.742 2265.641,2071.875C2266.785,2068.438 2262.883,2066.668 2254.18,2066.668C2245.477,2066.668 2241.578,2068.438 2242.723,2071.875M2300.016,2075C2302.469,2079.582 2305.348,2083.332 2306.41,2083.332C2307.477,2083.332 2308.348,2079.582 2308.348,2075C2308.348,2070.289 2305.566,2066.668 2301.953,2066.668C2296.848,2066.668 2296.457,2068.352 2300.016,2075M837.508,2075C837.508,2083 839.383,2085.41 844.676,2084.191C847.609,2083.52 850.008,2085.863 850.008,2089.402C850.008,2092.938 851.883,2095.832 854.176,2095.832C859.98,2095.832 859.395,2081.887 853.34,2075.832C847.273,2069.766 837.508,2069.25 837.508,2075M650.914,2079.809C653.078,2086.301 662.398,2087.434 662.727,2081.25C662.848,2078.957 659.82,2076.438 656,2075.641C651.652,2074.746 649.75,2076.305 650.914,2079.809M689.488,2079.34C686.121,2084.785 694.902,2095.832 702.598,2095.832C711.168,2095.832 709.527,2084.262 700.262,2079.301C694.66,2076.305 691.355,2076.316 689.488,2079.34M2094.461,2077.781C2090.188,2082.051 2091.168,2099.191 2095.848,2102.086C2098.137,2103.5 2100.012,2100.566 2100.012,2095.57C2100.012,2088.219 2101.137,2087.414 2105.891,2091.359C2114.398,2098.418 2118.234,2089.648 2110.172,2081.59C2103.043,2074.461 2098.805,2073.43 2094.461,2077.781M1147.961,2088.727C1138.812,2093.906 1130.711,2101.371 1129.945,2105.32C1127.711,2116.934 1136.617,2113.648 1155.379,2095.938C1175.133,2077.293 1172.562,2074.789 1147.961,2088.727M2283.348,2083.797C2283.348,2087.109 2279.598,2093.027 2275.016,2096.949C2270.43,2100.875 2266.68,2107.207 2266.68,2111.023C2266.68,2117.402 2267.32,2117.379 2274.641,2110.754C2282.816,2103.355 2289.703,2084.133 2285.633,2080.062C2284.375,2078.809 2283.348,2080.488 2283.348,2083.797M761.465,2090.402C741.207,2098.602 740.992,2106.043 761.109,2102.781C778.551,2099.949 787.031,2093.609 781.051,2087.871C778.652,2085.57 770.926,2086.57 761.465,2090.402M877.234,2087.27C875.738,2089.688 875.566,2093.367 876.852,2095.441C880.121,2100.738 896.523,2095.805 894.625,2090.098C892.516,2083.754 880.602,2081.82 877.234,2087.27M804.176,2091.387C804.176,2093.836 807.141,2095.832 810.77,2095.832C821.762,2095.832 814.762,2106.156 802.812,2107.566C796.688,2108.293 791.676,2110.637 791.676,2112.777C791.676,2118.895 818.371,2117.316 827.336,2110.672C834.512,2105.355 834.719,2103.992 829.176,2098.617C820.801,2090.5 804.176,2085.691 804.176,2091.387M1029.59,2091.414C1025.352,2094.031 1025.215,2096.758 1028.953,2103.754C1034.402,2113.93 1041.676,2111.785 1041.676,2100C1041.676,2090.379 1036.828,2086.938 1029.59,2091.414M2055.145,2092.48C2056.969,2097.941 2079.457,2105.277 2083.129,2101.605C2086.629,2098.105 2070.27,2087.5 2061.371,2087.5C2057.035,2087.5 2054.234,2089.742 2055.145,2092.48M2131.559,2094.047C2118.707,2106.902 2125.816,2116.668 2148.027,2116.668C2153.43,2116.668 2159.012,2114.793 2160.43,2112.5C2161.859,2110.188 2158.727,2108.305 2153.383,2108.273C2148.094,2108.234 2141.004,2106.461 2137.629,2104.324C2132.375,2101.004 2132.527,2100.055 2138.672,2097.695C2146.223,2094.797 2148.59,2087.5 2141.977,2087.5C2139.852,2087.5 2135.164,2090.445 2131.559,2094.047M2240.293,2090.281C2234.223,2096.348 2238.09,2100.488 2248.652,2099.234C2263,2097.539 2266.84,2087.5 2253.141,2087.5C2247.602,2087.5 2241.816,2088.75 2240.293,2090.281M671.883,2094.426C664.629,2097.355 665.359,2104.168 672.926,2104.168C676.363,2104.168 679.176,2101.355 679.176,2097.918C679.176,2094.48 678.703,2091.816 678.133,2091.996C677.562,2092.176 674.75,2093.273 671.883,2094.426M1917.445,2103.09C1918.984,2116.414 1933.348,2122.176 1933.348,2109.473C1933.348,2101.336 1925.957,2091.668 1919.738,2091.668C1917.75,2091.668 1916.723,2096.809 1917.445,2103.09M2171.977,2101.422L2183.527,2110.871L2167.809,2118.863L2152.098,2126.859L2165.555,2128.273C2179.402,2129.727 2199.633,2118.871 2199.883,2109.855C2200.07,2103.055 2181.133,2091.641 2169.949,2091.816C2160.609,2091.965 2160.648,2092.148 2171.977,2101.422M643.629,2100.211C639.668,2106.617 645.09,2110.75 650.441,2105.402C653.434,2102.41 653.504,2100.078 650.656,2098.32C648.324,2096.879 645.16,2097.73 643.629,2100.211M2296.695,2104.355C2293.477,2109.512 2293.203,2112.5 2295.941,2112.5C2298.328,2112.5 2301.383,2109.609 2302.742,2106.07C2306.492,2096.297 2302.441,2095.152 2296.695,2104.355M1010.66,2103.793C1007.32,2109.191 1012.102,2119.785 1019.078,2122.465C1025.316,2124.859 1026.812,2117.879 1022.48,2106.594C1019.672,2099.273 1014.246,2097.984 1010.66,2103.793M695.84,2110.262C686.996,2115.188 686.473,2116.473 692.391,2118.77C700.078,2121.754 716.676,2114.527 716.676,2108.188C716.676,2102.57 708.129,2103.422 695.84,2110.262M848.078,2113.543C837.387,2122.887 837.379,2122.965 844.727,2137.488C848.773,2145.5 855.375,2152.672 859.383,2153.418C869.27,2155.262 868.664,2144.758 858.344,2135.418C846.73,2124.91 847.328,2114.977 859.383,2118.207C864.543,2119.586 870.816,2120.746 873.328,2120.773C875.848,2120.809 879.75,2124.98 882.012,2130.043C885.699,2138.309 886.125,2137.773 886.184,2124.832C886.285,2102.137 867.5,2096.57 848.078,2113.543M1936.262,2113.922C1935.082,2116.992 1935.855,2122.152 1937.98,2125.379C1941.184,2130.258 1942.859,2129.914 1947.875,2123.348C1951.195,2118.996 1952.926,2113.844 1951.719,2111.887C1948.328,2106.41 1938.652,2107.68 1936.262,2113.922M2098.102,2112.223C2096.426,2114.938 2098.117,2115.535 2102.605,2113.812C2108.445,2111.57 2109.156,2112.559 2106.398,2119.066C2104.531,2123.477 2102.121,2132.707 2101.043,2139.582C2099.219,2151.246 2099.559,2151.629 2106.168,2145.312C2115.828,2136.082 2116.883,2111.191 2107.691,2109.297C2103.898,2108.512 2099.578,2109.828 2098.102,2112.223M896.387,2118.094C890.195,2125.555 893.789,2128.406 906.359,2126C912.035,2124.918 916.676,2121.434 916.676,2118.262C916.676,2110.887 902.469,2110.766 896.387,2118.094M1514.648,2126.742C1498.824,2143.516 1495.453,2155.656 1507.25,2153.383C1514.938,2151.906 1535.953,2117.883 1531.766,2113.695C1530.402,2112.332 1522.699,2118.203 1514.648,2126.742M762.508,2122.672C762.508,2131.168 770.676,2135.168 776.379,2129.465C780.012,2125.828 779.672,2123.695 774.977,2120.727C766.18,2115.168 762.508,2115.738 762.508,2122.672M1044.543,2119.359C1038.816,2125.082 1041.785,2133.926 1048.969,2132.543C1052.977,2131.766 1056.258,2128.504 1056.258,2125.293C1056.258,2118.715 1048.91,2114.992 1044.543,2119.359M2059.387,2123.641C2054.234,2127.242 2050.012,2131.828 2050.012,2133.844C2050.012,2139.871 2065.266,2137.973 2070.848,2131.25C2073.699,2127.812 2079.664,2125 2084.102,2125C2088.543,2125 2091.012,2123.125 2089.598,2120.832C2085.805,2114.695 2070.121,2116.156 2059.387,2123.641M2232.004,2121.16C2236.902,2126.055 2266.68,2133.848 2266.68,2130.23C2266.68,2129.004 2263.398,2125.512 2259.391,2122.469C2250.379,2115.629 2225.277,2114.43 2232.004,2121.16M715.801,2130.207C701.438,2152.656 704.23,2165.801 719.758,2148.828C731.332,2136.176 735.77,2120.832 727.852,2120.832C724.523,2120.832 719.102,2125.051 715.801,2130.207M989.727,2124.785C988.113,2127.395 990.215,2134.609 994.391,2140.809L1001.992,2152.082L1003.445,2142.176C1005.121,2130.707 994.438,2117.16 989.727,2124.785M1914.941,2124.441C1913.145,2127.348 1912.805,2130.848 1914.18,2132.223C1917.91,2135.949 1921.977,2130.469 1919.957,2124.426C1918.551,2120.191 1917.566,2120.191 1914.941,2124.441M743.285,2130.988C740.215,2138.977 744.043,2150 749.879,2150C755.414,2150 755.5,2130.48 749.98,2127.066C747.672,2125.637 744.66,2127.406 743.285,2130.988M1959.855,2131.25C1958.535,2134.688 1958.664,2140.645 1960.137,2144.492C1962.598,2150.895 1963.375,2150.926 1969.484,2144.812C1976.359,2137.941 1974.527,2125 1966.68,2125C1964.242,2125 1961.172,2127.812 1959.855,2131.25M2216.68,2131.422C2216.68,2141.746 2228.859,2162.5 2234.914,2162.5C2239.285,2162.5 2239.516,2159.551 2236.016,2148.371C2231.105,2132.688 2216.68,2120.043 2216.68,2131.422M802.371,2138.754C796.918,2146.949 795.914,2151.738 799.004,2154.828C804.398,2160.227 813.77,2144.828 811.586,2134.16C810.43,2128.504 808.578,2129.426 802.371,2138.754M1194.602,2131.797C1193.156,2133.246 1193.91,2138.055 1196.281,2142.484C1199.734,2148.938 1201.785,2149.547 1206.602,2145.551C1211.16,2141.766 1211.473,2139.184 1207.883,2134.863C1202.727,2128.652 1198.68,2127.719 1194.602,2131.797M2192.723,2140.445C2183.844,2159.562 2187.488,2169.191 2199.18,2157.5C2204.617,2152.062 2206.133,2129.148 2201.055,2129.199C2199.336,2129.219 2195.59,2134.281 2192.723,2140.445M682.301,2136.203C678.293,2137.254 675.008,2139.852 675.008,2141.973C675.008,2148.16 690.168,2146.422 695.84,2139.582C701.379,2132.91 698.07,2132.082 682.301,2136.203M2133.348,2135.223C2133.348,2140.539 2143.488,2158.332 2146.52,2158.332C2151.789,2158.332 2150.715,2144.035 2145.012,2138.332C2140.059,2133.379 2133.348,2131.59 2133.348,2135.223M820.738,2148.188C818.504,2154.066 816.738,2161.098 816.812,2163.812C817.008,2170.695 833.344,2150.414 833.344,2143.289C833.344,2133.605 825.059,2136.824 820.738,2148.188M958.344,2140.895C958.344,2146.285 979.234,2159.668 982.512,2156.383C986.988,2151.91 976.695,2139.652 967.293,2138.25C962.371,2137.52 958.344,2138.707 958.344,2140.895M1571.512,2142.668C1566.059,2148.121 1564.895,2166.668 1570.012,2166.668C1575.824,2166.668 1583.344,2156.938 1583.344,2149.414C1583.344,2139.891 1577.574,2136.605 1571.512,2142.668M1735.43,2141.668C1731.941,2147.309 1736.645,2154.168 1744.008,2154.168C1747.312,2154.168 1750.012,2150.418 1750.012,2145.832C1750.012,2137.207 1739.957,2134.332 1735.43,2141.668M2168.594,2141.945C2167.082,2144.387 2166.848,2147.387 2168.066,2148.613C2171.055,2151.598 2179.18,2146.34 2179.18,2141.422C2179.18,2136.098 2171.988,2136.449 2168.594,2141.945M768.379,2147.402C764.852,2156.602 769.547,2161.297 775.914,2154.93C779.672,2151.172 779.684,2148.844 775.98,2145.137C772.27,2141.43 770.461,2141.969 768.379,2147.402M1017.312,2146.863C1010.281,2153.895 1011.445,2158.875 1019.801,2157.477C1024.742,2156.648 1026.707,2158.578 1025.883,2163.477C1025.043,2168.496 1026.629,2169.949 1031.094,2168.238C1039.945,2164.844 1039.156,2151.176 1029.812,2146.176C1024.523,2143.344 1020.621,2143.555 1017.312,2146.863M1048.227,2152.367C1044.688,2166.469 1046.961,2168.637 1058.035,2161.746C1068.043,2155.516 1067.883,2144.5 1057.754,2142.547C1053.383,2141.703 1050.039,2145.152 1048.227,2152.367M1763.555,2144.707C1757.492,2146.824 1756.395,2170.832 1762.367,2170.832C1768.695,2170.832 1775.715,2154.652 1772.062,2148.473C1770.25,2145.402 1766.422,2143.707 1763.555,2144.707M1904.18,2147.41C1904.18,2150.562 1906.992,2155.48 1910.43,2158.332C1915.715,2162.723 1916.68,2161.836 1916.68,2152.594C1916.68,2145.66 1914.398,2141.668 1910.43,2141.668C1906.992,2141.668 1904.18,2144.25 1904.18,2147.41M2248.203,2145.398C2246.93,2147.449 2248.965,2150.305 2252.719,2151.746C2260.832,2154.859 2264.422,2152.293 2260.602,2146.113C2257.25,2140.691 2251.32,2140.352 2248.203,2145.398M917.082,2160.871L911.645,2175.91L899.809,2162.953C888.984,2151.102 874.992,2145.555 875.023,2153.125C875.027,2154.848 882.379,2164.688 891.363,2175C907.348,2193.352 907.84,2193.57 914.41,2185.418C929.805,2166.312 934.129,2158.059 931.848,2152.117C927.918,2141.871 922.867,2144.867 917.082,2160.871M1172.953,2149.965C1169.887,2154.926 1177.754,2166.668 1184.145,2166.668C1189.676,2166.668 1186.48,2148.918 1180.602,2146.984C1177.949,2146.109 1174.504,2147.449 1172.953,2149.965M1398.625,2148.613C1393.383,2153.855 1395.844,2166.668 1402.094,2166.668C1405.98,2166.668 1408.344,2162.734 1408.344,2156.25C1408.344,2146.133 1404.285,2142.945 1398.625,2148.613M1931.957,2148.613C1927.754,2152.812 1928.629,2166.668 1933.102,2166.668C1935.258,2166.668 1938.305,2164.594 1939.871,2162.055C1941.859,2158.844 1943.805,2159.156 1946.305,2163.098C1948.809,2167.051 1949.906,2165.305 1949.949,2157.293C1949.996,2148.934 1947.945,2145.836 1942.375,2145.836C1938.172,2145.836 1933.484,2147.086 1931.957,2148.613M2120.848,2149.66C2120.848,2158.16 2126.234,2166.668 2131.621,2166.668C2136.207,2166.668 2136.398,2164.605 2132.59,2156.25C2127.941,2146.055 2120.848,2142.07 2120.848,2149.66M1213.551,2152.758C1210.691,2153.918 1208.344,2158.656 1208.344,2163.293C1208.344,2169.273 1210.266,2170.988 1214.934,2169.195C1218.559,2167.805 1222.309,2166.668 1223.27,2166.668C1224.227,2166.668 1225.012,2162.918 1225.012,2158.336C1225.012,2149.914 1223.016,2148.941 1213.551,2152.758M1973.973,2155.801C1965.961,2161.879 1964.188,2170.832 1970.992,2170.832C1977.262,2170.832 1995.848,2158.012 1995.848,2153.688C1995.848,2148.176 1982.289,2149.488 1973.973,2155.801M2014.598,2154.168C2013.18,2156.457 2014.008,2158.332 2016.434,2158.332C2018.859,2158.332 2020.848,2156.457 2020.848,2154.168C2020.848,2151.875 2020.023,2150 2019.008,2150C2017.996,2150 2016.012,2151.875 2014.598,2154.168M2029.711,2163.543C2030.352,2170.992 2029.555,2177.551 2027.941,2178.125C2020.73,2180.688 2012.617,2178.676 2006.824,2172.883C2002.465,2168.523 1999.672,2168.012 1997.688,2171.223C1993.262,2178.383 2008.746,2190.777 2026.055,2193.922C2041.586,2196.742 2041.68,2196.676 2041.621,2182.754C2041.547,2164.434 2037.547,2150 2032.543,2150C2030.344,2150 2029.066,2156.094 2029.711,2163.543M729.176,2162.5C729.176,2170.281 730.289,2171.387 734.176,2167.5C738.062,2163.613 738.062,2161.387 734.176,2157.5C730.289,2153.613 729.176,2154.723 729.176,2162.5M679.566,2164.113C676.156,2168.219 675.984,2170.941 679.004,2172.809C681.422,2174.305 684.559,2172.516 685.969,2168.836C689.488,2159.668 685.621,2156.816 679.566,2164.113M834.777,2164.762C833.422,2168.301 833.359,2172.238 834.633,2173.512C838.285,2177.164 845.84,2170.977 845.84,2164.34C845.84,2156.344 837.891,2156.652 834.777,2164.762M1375.012,2163.789C1375.012,2166.789 1377.523,2172.676 1380.59,2176.871C1385.887,2184.113 1386.316,2184.125 1388.992,2177.141C1391.824,2169.766 1385.543,2158.336 1378.668,2158.336C1376.656,2158.336 1375.012,2160.789 1375.012,2163.789M1721.539,2163.746C1715.523,2170.996 1719.336,2175 1732.262,2175C1739.547,2175 1741.906,2173.016 1740.895,2167.754C1739.121,2158.551 1727.801,2156.203 1721.539,2163.746M2061.473,2171.195C2047.754,2195.301 2055.105,2205.438 2070.562,2183.734C2075.301,2177.074 2079.18,2168.637 2079.18,2164.984C2079.18,2154.027 2069.262,2157.504 2061.473,2171.195M2163.156,2164.324C2163.949,2168.148 2166.473,2171.176 2168.762,2171.055C2174.945,2170.727 2173.812,2161.406 2167.32,2159.242C2163.816,2158.074 2162.258,2159.98 2163.156,2164.324M2203.332,2167.867C2201.051,2179.793 2203.688,2188.297 2208.703,2185.195C2213.594,2182.176 2213.711,2158.332 2208.836,2158.332C2206.809,2158.332 2204.332,2162.621 2203.332,2167.867M785.84,2169.168C784.359,2173.031 784.082,2177.129 785.23,2178.277C786.375,2179.422 788.523,2177.195 790.008,2173.332C791.492,2169.473 791.766,2165.371 790.621,2164.227C789.477,2163.078 787.324,2165.305 785.84,2169.168M987.508,2166.668C987.508,2168.957 991.258,2170.832 995.844,2170.832C1009.016,2170.832 1005.543,2178.574 990.633,2182.438C976.797,2186.027 973.785,2192.719 984.961,2195.051C994.105,2196.957 1012.508,2183.547 1012.508,2174.969C1012.508,2167.602 1004.699,2162.5 993.418,2162.5C990.168,2162.5 987.508,2164.375 987.508,2166.668M1547.227,2169.074C1544.25,2176.836 1555.59,2189.691 1561.953,2185.762C1565.031,2183.859 1564.953,2179.938 1561.688,2172.766C1556.316,2160.98 1550.867,2159.586 1547.227,2169.074M1590.637,2167.133C1583.305,2171.27 1580.301,2187.5 1586.867,2187.5C1588.805,2187.5 1593.82,2183.703 1598.016,2179.066C1607.016,2169.125 1601.863,2160.801 1590.637,2167.133M2087.512,2166.668C2087.512,2168.957 2092.199,2170.832 2097.93,2170.832C2103.66,2170.832 2108.348,2168.957 2108.348,2166.668C2108.348,2164.375 2103.66,2162.5 2097.93,2162.5C2092.199,2162.5 2087.512,2164.375 2087.512,2166.668M1781.957,2169.445C1777.809,2173.598 1778.605,2204.168 1782.859,2204.168C1784.883,2204.168 1787.547,2199.945 1788.773,2194.793C1790.312,2188.496 1792.027,2182.246 1793.91,2176.043C1796.004,2169.297 1795.125,2166.668 1790.773,2166.668C1787.453,2166.668 1783.484,2167.918 1781.957,2169.445M1882.07,2169.328C1877.148,2174.25 1883.742,2179.168 1895.258,2179.168C1901.543,2179.168 1908.93,2181.418 1911.68,2184.168C1915.566,2188.055 1916.68,2187.625 1916.68,2182.23C1916.68,2171.055 1890.211,2161.191 1882.07,2169.328M2266.68,2170.832C2266.68,2173.125 2268.555,2175 2270.848,2175C2273.141,2175 2275.016,2173.125 2275.016,2170.832C2275.016,2168.543 2273.141,2166.668 2270.848,2166.668C2268.555,2166.668 2266.68,2168.543 2266.68,2170.832M706.258,2175C704.84,2177.293 706.715,2179.168 710.426,2179.168C714.133,2179.168 716.008,2177.293 714.59,2175C713.176,2172.711 711.301,2170.832 710.426,2170.832C709.551,2170.832 707.676,2172.711 706.258,2175M750.008,2175C750.008,2177.293 751.883,2179.168 754.176,2179.168C756.465,2179.168 758.34,2177.293 758.34,2175C758.34,2172.711 756.465,2170.832 754.176,2170.832C751.883,2170.832 750.008,2172.711 750.008,2175M936.293,2179.738C927.297,2184.289 921.684,2189.656 923.254,2192.199C926.926,2198.145 949.484,2193.434 959.109,2184.723C975.961,2169.477 962.418,2166.516 936.293,2179.738M1056.258,2175C1054.844,2177.293 1048.371,2179.168 1041.875,2179.168C1035.008,2179.168 1029.023,2181.891 1027.566,2185.68C1025.035,2192.285 1034.195,2214.129 1041.359,2218.555C1048.273,2222.824 1049.938,2213.984 1043.758,2205.82C1035.734,2195.227 1035.25,2180.441 1043.141,2186.988C1047.25,2190.398 1052.605,2190.438 1062.934,2187.133C1090.785,2178.219 1090.281,2178.555 1081.258,2174.848C1069.566,2170.039 1059.289,2170.102 1056.258,2175M1156.328,2174.887C1154.953,2177.121 1157.652,2182.227 1162.332,2186.234C1172.898,2195.277 1173.676,2205.621 1163.551,2202.43C1154.02,2199.426 1132.25,2205.363 1130.191,2211.535C1127.359,2220.035 1149.508,2222.574 1158.164,2214.746C1164.652,2208.875 1167.594,2208.531 1175.43,2212.727C1184.777,2217.727 1184.715,2217.867 1169.527,2225.66C1161.086,2229.988 1154.176,2236.301 1154.176,2239.684C1154.176,2248.688 1161.219,2247.242 1177.371,2234.922C1193.336,2222.746 1196.168,2208.73 1183.344,2205.375C1178.055,2203.992 1175.012,2199.691 1175.012,2193.605C1175.012,2174.398 1163.66,2163.027 1156.328,2174.887M1408.344,2179.512C1408.344,2189.668 1418.082,2188.234 1420.105,2177.781C1420.906,2173.668 1418.781,2170.832 1414.898,2170.832C1411.035,2170.832 1408.344,2174.395 1408.344,2179.512M860.145,2179.621C857.117,2184.523 865.164,2191.496 873.969,2191.605C881.93,2191.699 880.168,2184.16 871.098,2179.301C865.387,2176.246 862.172,2176.344 860.145,2179.621M1187.656,2183.059C1181.75,2194.098 1182.242,2197.145 1189.484,2194.371C1192.859,2193.074 1197.289,2194.988 1199.324,2198.625C1205.551,2209.754 1210.09,2196.465 1203.965,2185.023C1197.477,2172.898 1193.359,2172.402 1187.656,2183.059M1925.012,2178.82C1925.012,2180.922 1927.348,2183.418 1930.199,2184.367C1933.484,2185.465 1930.426,2191.062 1921.867,2199.621C1906.051,2215.438 1905.668,2216.668 1916.527,2216.668C1927.824,2216.668 1947.258,2187.973 1941.039,2180.477C1935.848,2174.223 1925.012,2173.102 1925.012,2178.82M1954.18,2180.777C1954.18,2186.316 1977.609,2200 1987.102,2200C1997.016,2200 1990.844,2191.41 1975.18,2183.418C1955.605,2173.434 1954.18,2173.254 1954.18,2180.777M2145.848,2178.676C2145.848,2180.969 2147.723,2184 2150.012,2185.418C2152.305,2186.836 2154.18,2186.117 2154.18,2183.824C2154.18,2181.535 2152.305,2178.5 2150.012,2177.086C2147.723,2175.668 2145.848,2176.383 2145.848,2178.676M2227.098,2179.168C2228.516,2181.461 2232.484,2183.336 2235.922,2183.336C2239.359,2183.336 2241.016,2181.461 2239.598,2179.168C2238.18,2176.875 2234.211,2175 2230.773,2175C2227.336,2175 2225.68,2176.875 2227.098,2179.168M685.871,2185.758C684.48,2189.383 683.398,2195.477 683.473,2199.301C683.586,2205.297 684.445,2205.137 689.723,2198.164C696.555,2189.133 697.812,2179.168 692.121,2179.168C690.074,2179.168 687.262,2182.133 685.871,2185.758M1222.398,2185.289C1220.977,2188.996 1221.074,2193.285 1222.609,2194.824C1226.137,2198.352 1239.875,2189.965 1238.773,2184.965C1237.273,2178.191 1225.031,2178.438 1222.398,2185.289M2117.633,2184.117C2120.211,2191.844 2129.18,2193.121 2129.18,2185.762C2129.18,2182.133 2126.215,2179.168 2122.586,2179.168C2118.953,2179.168 2116.727,2181.391 2117.633,2184.117M2181.262,2183.332C2178.227,2188.25 2182.168,2195.832 2187.758,2195.832C2189.918,2195.832 2191.68,2192.082 2191.68,2187.5C2191.68,2178.715 2185.617,2176.289 2181.262,2183.332M2253.039,2181.699C2251.535,2183.199 2252.289,2188.133 2254.715,2192.664C2257.953,2198.715 2260.348,2199.668 2263.766,2196.25C2267.176,2192.84 2266.734,2189.934 2262.09,2185.289C2258.609,2181.812 2254.539,2180.195 2253.039,2181.699M729.176,2187.5C729.176,2189.793 731.051,2191.668 733.34,2191.668C735.633,2191.668 737.508,2189.793 737.508,2187.5C737.508,2185.211 735.633,2183.332 733.34,2183.332C731.051,2183.332 729.176,2185.211 729.176,2187.5M835.426,2187.5C832.023,2193 837.008,2200.801 841.961,2197.738C847.023,2194.613 846.992,2183.332 841.922,2183.332C839.762,2183.332 836.84,2185.211 835.426,2187.5M2081.102,2189.188C2076.613,2192.469 2074.258,2196.469 2075.867,2198.074C2080.402,2202.609 2100.805,2196.129 2099.008,2190.734C2096.508,2183.242 2090,2182.68 2081.102,2189.188M1354.176,2191.203C1354.176,2197.262 1369.902,2214.809 1372.773,2211.949C1378.27,2206.48 1369.953,2187.5 1362.059,2187.5C1357.723,2187.5 1354.176,2189.168 1354.176,2191.203M1525.012,2192.441C1525.012,2198.887 1541.254,2210.145 1545.062,2206.34C1548.93,2202.473 1539.664,2189.777 1531.855,2188.238C1528.09,2187.496 1525.012,2189.387 1525.012,2192.441M1712.512,2193.305C1712.512,2199.297 1721.141,2204.168 1731.75,2204.168C1736.512,2204.168 1736.852,2202.391 1733.344,2195.832C1728.285,2186.383 1712.512,2184.469 1712.512,2193.305M1748.801,2190.102C1744.512,2194.387 1745.176,2208.332 1749.668,2208.332C1751.766,2208.332 1754.273,2205.992 1755.238,2203.125C1756.582,2199.125 1758.688,2199.32 1764.316,2203.969C1770.996,2209.48 1771.516,2209.109 1770.203,2199.801C1768.785,2189.754 1755.27,2183.629 1748.801,2190.102M2160.43,2191.668C2161.848,2193.957 2163.832,2195.832 2164.844,2195.832C2165.855,2195.832 2166.68,2193.957 2166.68,2191.668C2166.68,2189.375 2164.691,2187.5 2162.27,2187.5C2159.844,2187.5 2159.012,2189.375 2160.43,2191.668M870.262,2199.641C864.852,2204.031 861.938,2209.133 863.789,2210.988C867.797,2215.012 888.191,2204.297 890.645,2196.875C893.246,2189.016 881.383,2190.625 870.262,2199.641M1416.723,2197.863C1413.895,2201.27 1412.797,2207.242 1414.289,2211.129C1416.754,2217.543 1417.801,2217.391 1425.676,2209.516C1430.453,2204.746 1433.082,2198.777 1431.52,2196.254C1427.641,2189.98 1422.832,2190.5 1416.723,2197.863M1596.68,2196.668C1593.93,2199.418 1591.68,2205.172 1591.68,2209.449C1591.68,2216.805 1592.371,2216.742 1604.18,2208.332C1611.055,2203.438 1616.68,2197.684 1616.68,2195.551C1616.68,2189.973 1602.586,2190.758 1596.68,2196.668M1082.562,2198.68C1085.566,2199.883 1089.164,2199.734 1090.547,2198.352C1091.93,2196.969 1089.473,2195.984 1085.082,2196.164C1080.227,2196.363 1079.238,2197.352 1082.562,2198.68M1563.395,2200.785C1560.621,2203.559 1558.562,2209.676 1558.828,2214.375C1559.223,2221.406 1559.648,2221.625 1561.215,2215.625C1563.852,2205.531 1570.344,2206.508 1575.062,2217.707C1578.504,2225.875 1578.887,2225.246 1578.055,2212.82C1577.016,2197.379 1571.406,2192.773 1563.395,2200.785M1798.969,2200.336C1791.238,2204.84 1788.801,2220.836 1795.844,2220.836C1798.137,2220.836 1800.012,2219.277 1800.012,2217.371C1800.012,2215.469 1804.699,2211.402 1810.43,2208.336C1816.156,2205.266 1820.844,2201.199 1820.844,2199.297C1820.844,2194.547 1807.844,2195.164 1798.969,2200.336M941.141,2205.473C947.457,2213.234 960.574,2214.836 964.594,2208.336C966.008,2206.043 963.457,2204.168 958.93,2204.168C954.395,2204.168 947.254,2202.879 943.059,2201.305C936.34,2198.785 936.109,2199.285 941.141,2205.473M1096.008,2206.051C1090.012,2213.277 1091.68,2225.699 1098.969,2228.125C1102.488,2229.301 1104.176,2225.02 1104.176,2214.93C1104.176,2198.309 1103.258,2197.312 1096.008,2206.051M1385.844,2203.059C1384.469,2204.43 1383.344,2209.223 1383.344,2213.703C1383.344,2220.477 1384.402,2220.977 1389.594,2216.668C1393.91,2213.086 1395.844,2212.926 1395.844,2216.16C1395.844,2222.75 1402.844,2221.984 1405.484,2215.102C1407.766,2209.16 1390.395,2198.504 1385.844,2203.059M1845.844,2207.688C1845.844,2211.918 1849.598,2218.77 1854.18,2222.918C1861.918,2229.922 1862.512,2229.945 1862.512,2223.289C1862.512,2213.895 1854.965,2200 1849.867,2200C1847.652,2200 1845.844,2203.461 1845.844,2207.688M892.02,2212.156C887.25,2216.93 883.344,2222.555 883.344,2224.66C883.344,2226.762 882.203,2231.449 880.812,2235.074C879.223,2239.227 880.531,2241.668 884.348,2241.668C890.684,2241.668 907.25,2210.016 903.094,2205.859C901.781,2204.547 896.797,2207.379 892.02,2212.156M1000.352,2214.223C997.195,2222.164 996.945,2227.77 999.621,2230.445C1002.301,2233.125 1004.656,2230.793 1006.434,2223.699C1010.547,2207.32 1005.938,2200.145 1000.352,2214.223M1231.035,2208.695C1229.496,2211.188 1229.855,2214.68 1231.832,2216.449C1236.43,2220.578 1262.512,2213.574 1262.512,2208.211C1262.512,2202.648 1234.504,2203.078 1231.035,2208.695M1887.004,2209.156C1879.562,2215.133 1869.359,2241.668 1874.504,2241.668C1881.797,2241.668 1896.445,2221.098 1895.145,2212.688C1893.961,2205.008 1892.797,2204.5 1887.004,2209.152M1944.523,2206.875C1939.574,2211.824 1941.414,2219.59 1949.934,2229.746L1958.191,2239.582L1955.633,2225C1952.816,2208.926 1948.887,2202.512 1944.523,2206.875M1962.512,2215.773C1962.512,2230.09 1968.219,2233.695 1972.637,2222.176C1974.156,2218.223 1972.539,2212.41 1968.918,2208.785C1963.156,2203.023 1962.512,2203.727 1962.512,2215.773M1989.578,2208.363C1988.148,2210.672 1989.922,2213.684 1993.508,2215.062C2002.422,2218.484 2021.781,2213.215 2018.688,2208.211C2015.391,2202.879 1992.895,2202.996 1989.578,2208.363M2062.512,2208.113C2062.512,2213.453 2072,2219.918 2084.414,2223.035C2095.715,2225.871 2100.559,2220.07 2091.543,2214.5C2083.195,2209.344 2062.512,2204.793 2062.512,2208.113M841.676,2214.582C841.676,2218.406 843.691,2220.855 846.156,2220.035C848.617,2219.215 850.633,2216.762 850.633,2214.582C850.633,2212.406 848.617,2209.953 846.156,2209.133C843.691,2208.312 841.676,2210.762 841.676,2214.582M918.543,2220.832C920.062,2228.855 921.406,2239.637 921.516,2244.793C921.844,2259.473 928.496,2255.777 931.609,2239.195C933.91,2226.922 932.734,2222.605 925.094,2215.238L915.766,2206.25L918.543,2220.832ZM1068.812,2212.418C1067.418,2214.672 1070.855,2223.258 1076.449,2231.492C1087.465,2247.695 1092.211,2246.332 1088.699,2227.977C1086.332,2215.59 1073.199,2205.312 1068.812,2212.418M1206.957,2211.113C1201.426,2216.637 1204.355,2232.203 1212.27,2239.367C1225.621,2251.449 1231.59,2244.938 1219.766,2231.191C1210.227,2220.105 1209.895,2218.516 1216.098,2213.797C1222.207,2209.148 1222.23,2208.586 1216.332,2208.469C1212.703,2208.391 1208.48,2209.586 1206.957,2211.113M2028.137,2212.957C2020.543,2217.254 2017.844,2237.5 2024.867,2237.5C2030.254,2237.5 2038.367,2221.852 2036.734,2214.613C2035.777,2210.363 2033.492,2209.922 2028.137,2212.957M1013.598,2227.082C1008.992,2242.082 1011.238,2245.438 1020.008,2236.668C1025.668,2231.008 1026.844,2212.5 1021.543,2212.5C1019.633,2212.5 1016.059,2219.062 1013.598,2227.082M1329.176,2215.254C1329.176,2218.141 1354.371,2241.668 1357.465,2241.668C1361.133,2241.668 1353.324,2218.707 1348.641,2215.73C1342.57,2211.867 1329.176,2211.543 1329.176,2215.254M1610.191,2218.41C1605.746,2221.66 1603.551,2225.758 1605.309,2227.516C1609.566,2231.777 1630.121,2224.309 1632.312,2217.707C1634.66,2210.625 1620.211,2211.082 1610.191,2218.41M2047.93,2221.875C2053.551,2241.82 2059.531,2254.168 2063.562,2254.168C2068.938,2254.168 2064.637,2226.336 2058.039,2218.379C2050.602,2209.418 2044.969,2211.367 2047.93,2221.875M1423.48,2222.98C1422.148,2226.449 1416.324,2231.094 1410.535,2233.293C1404.75,2235.492 1400.012,2238.965 1400.012,2241C1400.012,2247.715 1417.156,2266.668 1423.23,2266.668C1431.258,2266.668 1430.738,2263.703 1420.422,2250.66L1411.672,2239.582L1423.547,2238.176C1437.367,2236.535 1445.844,2230.539 1445.844,2222.41C1445.844,2214.555 1426.523,2215.051 1423.48,2222.98M1508.344,2219.828C1508.344,2225.328 1524.422,2233.297 1530.672,2230.902C1533.969,2229.633 1537.906,2230.602 1539.418,2233.051C1540.934,2235.496 1546.277,2237.555 1551.297,2237.621C1559.723,2237.734 1559.387,2238.691 1546.887,2250.062C1526.355,2268.738 1529.828,2279.273 1551.02,2262.602C1569.668,2247.93 1568.305,2239.227 1545.477,2227.289C1525.684,2216.938 1508.344,2213.453 1508.344,2219.828M1695.844,2220.836C1695.844,2223.125 1701.094,2225 1707.512,2225C1713.93,2225 1721.508,2227.332 1724.352,2230.176C1728.469,2234.293 1730.324,2234.086 1733.453,2229.133C1740.281,2218.336 1738.035,2216.668 1716.68,2216.668C1705.219,2216.668 1695.844,2218.543 1695.844,2220.836M1741.68,2220.488C1741.68,2222.59 1744.023,2225.293 1746.887,2226.496C1750.297,2227.934 1747.418,2232.836 1738.555,2240.688C1724.66,2253 1720.977,2262.594 1730.219,2262.383C1733.086,2262.32 1740.812,2256.785 1747.387,2250.078C1756.641,2240.648 1758.746,2235.488 1756.684,2227.281C1754.223,2217.484 1741.68,2211.805 1741.68,2220.488M1770.844,2221.547C1770.844,2230.316 1788.117,2245.41 1799.707,2246.766C1814.773,2248.535 1814.574,2239.035 1799.43,2233.754C1792.027,2231.176 1782.566,2225.984 1778.406,2222.223C1772.031,2216.449 1770.844,2216.348 1770.844,2221.547M1286.188,2223.543C1281.988,2227.742 1282.73,2249.129 1287.172,2251.875C1292.344,2255.07 1297.695,2229.352 1292.859,2224.52C1290.762,2222.418 1287.754,2221.977 1286.188,2223.543M857.066,2227.664C855.602,2229.129 855.352,2231.863 856.504,2233.734C859.105,2237.938 870.84,2233.836 870.84,2228.723C870.84,2224.445 861.039,2223.691 857.066,2227.664M946.324,2240.625C946.602,2249.449 947.68,2252.625 948.812,2247.918C949.918,2243.336 952.508,2237.801 954.578,2235.625C960.223,2229.691 959.121,2225 952.094,2225C947.562,2225 945.977,2229.301 946.324,2240.625M971.137,2230.898C968.031,2234.637 966.727,2238.938 968.234,2240.445C972.125,2244.34 980.449,2235.07 978.449,2229.074C977.301,2225.625 975.043,2226.188 971.137,2230.898M1041.676,2228.332C1041.676,2234.41 1051.555,2241.668 1059.82,2241.668C1067.707,2241.668 1067.723,2241.395 1060.426,2233.332C1052.898,2225.016 1041.676,2222.02 1041.676,2228.332M1113.293,2233.918C1094.539,2246.004 1102.07,2253.078 1122.961,2242.996C1138.621,2235.438 1142.812,2228.008 1132.523,2226.055C1129.535,2225.488 1120.879,2229.027 1113.293,2233.918M2103.16,2235.418C2104.254,2241.148 2105.871,2245.836 2106.75,2245.836C2107.629,2245.836 2108.348,2241.148 2108.348,2235.418C2108.348,2229.688 2106.73,2225 2104.758,2225C2102.785,2225 2102.062,2229.688 2103.16,2235.418M1304.176,2233.332C1304.176,2235.625 1306.051,2237.5 1308.344,2237.5C1310.637,2237.5 1312.512,2235.625 1312.512,2233.332C1312.512,2231.043 1310.637,2229.168 1308.344,2229.168C1306.051,2229.168 1304.176,2231.043 1304.176,2233.332M1375.012,2234.746C1375.012,2237.816 1370.324,2242.469 1364.594,2245.074C1352.594,2250.543 1350.754,2258.344 1361.469,2258.312C1371.984,2258.285 1393.633,2239.867 1390.02,2234.027C1385.902,2227.363 1375.012,2227.887 1375.012,2234.746M1679.18,2233.578C1679.18,2236.004 1681.055,2236.832 1683.344,2235.418C1685.637,2234 1687.512,2232.016 1687.512,2231.004C1687.512,2229.992 1685.637,2229.168 1683.344,2229.168C1681.055,2229.168 1679.18,2231.156 1679.18,2233.578M1825.012,2235.172C1825.012,2242.672 1827.453,2244.051 1846.887,2247.559C1866.949,2251.18 1868.875,2240.535 1849.391,2233.742C1831.742,2227.59 1825.012,2227.984 1825.012,2235.172M1902.441,2236.012C1901,2239.781 1900.637,2243.68 1901.641,2244.684C1904.473,2247.512 1920.848,2237.711 1920.848,2233.188C1920.848,2226.359 1905.23,2228.758 1902.441,2236.012M1995.848,2237.746C1995.848,2242.465 1997.723,2245.168 2000.012,2243.75C2002.305,2242.336 2004.18,2238.477 2004.18,2235.172C2004.18,2231.867 2002.305,2229.168 2000.012,2229.168C1997.723,2229.168 1995.848,2233.031 1995.848,2237.746M1573.852,2241.477C1572.684,2245.949 1573.871,2252.273 1576.496,2255.527C1582.574,2263.059 1607.48,2271.438 1610.289,2266.895C1612.938,2262.613 1605.094,2256.109 1592.719,2252.312C1581.59,2248.902 1580.297,2238.91 1590.637,2236.207C1595.328,2234.98 1594.016,2234.129 1586.957,2233.816C1579.328,2233.48 1575.332,2235.816 1573.852,2241.477M1639.594,2237.5C1641.012,2239.793 1642.996,2241.668 1644.008,2241.668C1645.02,2241.668 1645.844,2239.793 1645.844,2237.5C1645.844,2235.211 1643.855,2233.332 1641.434,2233.332C1639.008,2233.332 1638.18,2235.211 1639.594,2237.5M1660.406,2238.219C1657.426,2245.906 1664.652,2262.5 1670.992,2262.5C1676.609,2262.5 1675.758,2253.953 1668.914,2241.668C1663.992,2232.82 1662.707,2232.301 1660.406,2238.219M903.148,2242.707C899.688,2252.133 904.336,2259.223 910.582,2254.039C913.664,2251.48 915.156,2246.719 913.898,2243.445C911.082,2236.109 905.711,2235.742 903.148,2242.707M1245.844,2243.727C1245.844,2251.059 1278.547,2275.879 1283.875,2272.59C1289.605,2269.047 1279.727,2254.172 1268.91,2250.059C1263.543,2248.016 1257.922,2244.359 1256.418,2241.926C1252.402,2235.422 1245.844,2236.539 1245.844,2243.727M2079.141,2243.703C2081.977,2247.117 2085.984,2248.863 2088.055,2247.586C2093.371,2244.297 2088.285,2237.5 2080.508,2237.5C2075.211,2237.5 2074.953,2238.66 2079.141,2243.707M1183.703,2250.777C1180.609,2256.934 1179.328,2265.215 1180.848,2269.18C1185.32,2280.84 1192.488,2269.664 1190.801,2253.656L1189.316,2239.586L1183.703,2250.777ZM1475.012,2256.25C1475.012,2266.621 1476.688,2270.973 1480.219,2269.793C1483.086,2268.84 1485.426,2262.742 1485.426,2256.25C1485.426,2249.758 1483.086,2243.664 1480.219,2242.707C1476.688,2241.531 1475.012,2245.879 1475.012,2256.25M1943.762,2245.832C1942.348,2248.125 1943.176,2250 1945.602,2250C1948.023,2250 1950.012,2248.125 1950.012,2245.832C1950.012,2243.543 1949.188,2241.668 1948.176,2241.668C1947.164,2241.668 1945.18,2243.543 1943.762,2245.832M2031.996,2247.508C2029.719,2253.445 2032.305,2258.332 2037.723,2258.332C2039.363,2258.332 2041.688,2254.582 2042.887,2250C2045.387,2240.441 2035.566,2238.195 2031.996,2247.508M858.637,2251.73C855.531,2255.473 854.227,2259.77 855.734,2261.281C859.625,2265.172 867.949,2255.906 865.949,2249.91C864.801,2246.457 862.543,2247.02 858.637,2251.73M1030.59,2252.332C1026.945,2261.816 1032.629,2265 1040.012,2257.613C1045.867,2251.758 1045.844,2250.891 1039.758,2248.559C1035.715,2247.004 1032.055,2248.512 1030.59,2252.336M1231.664,2249.352C1230.223,2251.684 1231.074,2254.848 1233.551,2256.379C1239.961,2260.34 1244.094,2254.918 1238.742,2249.566C1235.75,2246.574 1233.422,2246.504 1231.664,2249.352M1302.332,2255.098C1295.895,2264.285 1293.672,2275 1298.207,2275C1302.664,2275 1329.176,2253.176 1329.176,2249.504C1329.176,2241.859 1308.602,2246.141 1302.332,2255.098M1687.816,2256.812C1678.57,2268.562 1677.555,2271.988 1681.996,2276.426C1686.258,2280.691 1704.18,2262.121 1704.18,2253.441C1704.18,2242.699 1697.895,2243.996 1687.816,2256.812M2008.348,2254.168C2008.348,2259.539 2010.453,2262.492 2013.555,2261.457C2016.422,2260.504 2018.762,2257.223 2018.762,2254.168C2018.762,2251.113 2016.422,2247.828 2013.555,2246.875C2010.453,2245.844 2008.348,2248.797 2008.348,2254.168M1057.301,2256.551C1044.543,2263.473 1041.086,2276.426 1053.133,2272.156C1062.391,2268.871 1075.008,2258.125 1075.008,2253.523C1075.008,2248.598 1070.562,2249.355 1057.301,2256.551M1132.301,2252.871C1121.812,2255.613 1123.328,2261.922 1135.188,2264.898C1148.797,2268.312 1156.203,2263.715 1149.703,2255.879C1147.02,2252.648 1143.648,2250.219 1142.211,2250.484C1140.77,2250.75 1136.309,2251.824 1132.301,2252.871M1202.949,2261.457C1201.734,2267.762 1201.473,2273.656 1202.359,2274.555C1205.773,2278.008 1216.676,2265.266 1216.676,2257.824C1216.676,2245.648 1205.41,2248.629 1202.949,2261.457M1620.844,2255.855C1620.844,2262.996 1656.805,2284.781 1662.637,2281.172C1668.617,2277.48 1664.102,2271.941 1645.578,2260.246C1627.086,2248.574 1620.844,2247.469 1620.844,2255.855M1757.125,2258.391C1754.441,2268.648 1760.152,2283.336 1766.824,2283.336C1772.766,2283.336 1771.703,2265.266 1765.242,2256.43C1759.918,2249.148 1759.516,2249.242 1757.125,2258.395M1815.637,2252.871C1805.934,2255.41 1806.379,2261.316 1816.52,2264.535C1827.637,2268.062 1845.117,2258.902 1837.031,2253.785C1830.945,2249.926 1827.477,2249.781 1815.637,2252.871M1921.629,2254.43C1922.629,2257.434 1925.914,2260.719 1928.922,2261.723C1932.047,2262.762 1933.609,2261.199 1932.566,2258.074C1931.562,2255.066 1928.281,2251.785 1925.273,2250.785C1922.148,2249.742 1920.586,2251.305 1921.629,2254.43M1499.777,2267.598C1487.73,2280.785 1483.875,2291.668 1491.246,2291.668C1495.988,2291.668 1520.844,2263.555 1520.844,2258.188C1520.844,2250.344 1511.879,2254.352 1499.777,2267.598M1779.18,2268.75C1779.18,2282.148 1780.062,2283.621 1785.43,2279.168C1788.867,2276.312 1791.68,2271.625 1791.68,2268.75C1791.68,2265.875 1788.867,2261.188 1785.43,2258.332C1780.062,2253.879 1779.18,2255.355 1779.18,2268.75M1887.641,2257.293C1887.891,2263.242 1908.609,2275.559 1915.754,2274.008C1921.234,2272.816 1919.48,2270.293 1908.348,2263.32C1893.02,2253.734 1887.426,2252.105 1887.641,2257.293M887.508,2266.668C887.508,2268.957 889.383,2270.832 891.676,2270.832C893.969,2270.832 895.844,2268.957 895.844,2266.668C895.844,2264.375 893.969,2262.5 891.676,2262.5C889.383,2262.5 887.508,2264.375 887.508,2266.668M1080.07,2273.957C1071.973,2295.637 1071.219,2299.738 1074.906,2302.02C1080.59,2305.535 1091.676,2287.055 1091.676,2274.07C1091.676,2259.25 1085.594,2259.188 1080.07,2273.957M1379.754,2267.996C1376.199,2272.316 1375.117,2279.031 1376.859,2285.969C1380.719,2301.344 1388.512,2292.59 1386.773,2274.828C1385.574,2262.59 1384.816,2261.848 1379.754,2267.996M1438.539,2267.672C1440.781,2274.391 1465.254,2288.672 1471.16,2286.699C1478.023,2284.414 1454.273,2262.5 1444.926,2262.5C1440.324,2262.5 1437.562,2264.734 1438.539,2267.672M1848.574,2270.121C1841.098,2278.383 1839.266,2291.668 1845.609,2291.668C1850.602,2291.668 1862.512,2274.863 1862.512,2267.82C1862.512,2260.262 1856.617,2261.234 1848.574,2270.121M1875.145,2277.617C1875.066,2287.961 1877.504,2296.879 1881.262,2300C1886.613,2304.438 1887.512,2303.125 1887.512,2290.895C1887.512,2283.027 1884.758,2272.957 1881.395,2268.504C1875.695,2260.969 1875.266,2261.59 1875.145,2277.617M2054.18,2266.668C2054.18,2268.957 2056.055,2270.832 2058.348,2270.832C2060.637,2270.832 2062.512,2268.957 2062.512,2266.668C2062.512,2264.375 2060.637,2262.5 2058.348,2262.5C2056.055,2262.5 2054.18,2264.375 2054.18,2266.668M868.629,2272.918C867.555,2276.355 865.738,2282.137 864.586,2285.766C863.352,2289.684 864.531,2291.688 867.488,2290.699C873.613,2288.66 880.047,2266.668 874.516,2266.668C872.352,2266.668 869.699,2269.48 868.629,2272.918M1108.344,2272.297C1108.344,2282.121 1115.875,2295.832 1121.273,2295.832C1126.723,2295.832 1121.953,2279.188 1114.148,2270.984C1109.078,2265.652 1108.344,2265.816 1108.344,2272.297M1162.512,2272.672C1162.512,2276.242 1164.387,2279.168 1166.676,2279.168C1168.969,2279.168 1170.844,2277.406 1170.844,2275.246C1170.844,2273.09 1168.969,2270.168 1166.676,2268.75C1164.387,2267.336 1162.512,2269.102 1162.512,2272.672M1230.191,2271.875C1231.137,2274.742 1237.387,2277.598 1244.082,2278.223C1255.699,2279.305 1255.891,2279.062 1248.172,2273.012C1238.398,2265.344 1227.828,2264.676 1230.191,2271.875M1395.844,2281.25C1395.844,2295.445 1400.91,2300.324 1406.406,2291.43C1410.035,2285.555 1405.098,2266.668 1399.93,2266.668C1397.68,2266.668 1395.844,2273.23 1395.844,2281.25M1711.469,2271.168C1703.098,2276.043 1701.617,2287.566 1709.387,2287.367C1717.879,2287.152 1730.238,2275.918 1727.266,2271.113C1723.902,2265.672 1720.887,2265.684 1711.469,2271.168M908.344,2275C908.344,2277.293 910.219,2279.168 912.508,2279.168C914.801,2279.168 916.676,2277.293 916.676,2275C916.676,2272.711 914.801,2270.832 912.508,2270.832C910.219,2270.832 908.344,2272.711 908.344,2275M1323.621,2273.613C1318.016,2279.223 1321.102,2283.332 1330.918,2283.332C1343.676,2283.332 1354.176,2279.371 1354.176,2274.555C1354.176,2270.262 1327.785,2269.449 1323.621,2273.613M1562.512,2278.145C1562.512,2282.73 1565.324,2288.812 1568.762,2291.668C1573.961,2295.984 1575.012,2295.453 1575.012,2288.52C1575.012,2283.938 1572.199,2277.855 1568.762,2275C1563.562,2270.684 1562.512,2271.215 1562.512,2278.145M2070.848,2276.594C2070.848,2280.031 2072.723,2284 2075.012,2285.418C2077.305,2286.832 2079.18,2285.18 2079.18,2281.742C2079.18,2278.305 2077.305,2274.332 2075.012,2272.918C2072.723,2271.5 2070.848,2273.156 2070.848,2276.594M1133.344,2281.25C1133.344,2285.07 1135.359,2287.52 1137.82,2286.699C1140.285,2285.879 1142.301,2283.43 1142.301,2281.25C1142.301,2279.07 1140.285,2276.621 1137.82,2275.801C1135.359,2274.98 1133.344,2277.43 1133.344,2281.25M1531.262,2279.98C1515.59,2288.867 1511.211,2302.297 1525.457,2297.777C1537.176,2294.055 1550.102,2282.688 1547.469,2278.426C1544.695,2273.938 1541.352,2274.258 1531.262,2279.98M1583.344,2281.004C1583.344,2284.309 1585.023,2288.047 1587.074,2289.312C1591.367,2291.965 1596.535,2281.246 1592.777,2277.492C1588.309,2273.023 1583.344,2274.867 1583.344,2281.004M1818.762,2279.168C1817.102,2281.859 1817.613,2285.934 1819.902,2288.227C1822.684,2291.004 1825.078,2290.762 1827.098,2287.5C1828.758,2284.809 1828.246,2280.734 1825.953,2278.441C1823.176,2275.664 1820.777,2275.906 1818.762,2279.168M1049.926,2285.516C1047.027,2289.008 1045.949,2293.164 1047.531,2294.746C1051.008,2298.223 1063.449,2290.93 1065.734,2284.082C1068.109,2276.953 1056.125,2278.047 1049.926,2285.516M1257.301,2287.98C1245.277,2296.953 1241.957,2308.336 1251.367,2308.336C1258.074,2308.336 1275.012,2290.977 1275.012,2284.109C1275.012,2277.148 1270.508,2278.129 1257.301,2287.98M1420.844,2287.055C1420.844,2291.305 1430.957,2295.836 1440.445,2295.836C1445.676,2295.836 1445.906,2294.68 1441.676,2289.586C1436.07,2282.824 1420.844,2280.977 1420.844,2287.055M1614.594,2287.5C1616.012,2289.793 1621.746,2291.668 1627.34,2291.668C1632.938,2291.668 1637.512,2289.793 1637.512,2287.5C1637.512,2285.211 1631.773,2283.336 1624.766,2283.336C1617.328,2283.336 1613.09,2285.07 1614.594,2287.5M1200.012,2291.668C1200.012,2293.961 1201.887,2295.836 1204.176,2295.836C1206.469,2295.836 1208.344,2293.961 1208.344,2291.668C1208.344,2289.375 1206.469,2287.5 1204.176,2287.5C1201.887,2287.5 1200.012,2289.375 1200.012,2291.668M1304.312,2296.23C1304.238,2302.176 1307.926,2310.438 1312.512,2314.586C1320.586,2321.895 1320.844,2321.863 1320.844,2313.609C1320.844,2308.922 1317.156,2300.664 1312.648,2295.254L1304.457,2285.418L1304.312,2296.23ZM1744.109,2291.109C1742.312,2294.012 1741.969,2297.512 1743.344,2298.887C1747.074,2302.617 1751.141,2297.133 1749.125,2291.094C1747.715,2286.859 1746.734,2286.859 1744.109,2291.109M1900.922,2292.309C1901.945,2295.398 1906.129,2298.562 1910.211,2299.359C1914.961,2300.277 1916.969,2298.777 1915.77,2295.191C1914.746,2292.105 1910.562,2288.938 1906.48,2288.145C1901.73,2287.227 1899.727,2288.727 1900.922,2292.309M1223.621,2294.445C1222.094,2295.973 1220.844,2299.949 1220.844,2303.289C1220.844,2308.211 1222.023,2308.375 1227.094,2304.168C1230.531,2301.312 1233.344,2297.336 1233.344,2295.324C1233.344,2291.008 1227.578,2290.488 1223.621,2294.445M1281.957,2294.445C1277.82,2298.582 1278.594,2328.316 1282.906,2330.98C1287.91,2334.074 1291.676,2323.312 1291.676,2305.91C1291.676,2292.422 1288.145,2288.254 1281.957,2294.445M1358.344,2295.59C1358.344,2297.746 1360.219,2300.668 1362.512,2302.086C1364.801,2303.5 1366.676,2301.734 1366.676,2298.164C1366.676,2294.594 1364.801,2291.668 1362.512,2291.668C1360.219,2291.668 1358.344,2293.43 1358.344,2295.59M1645.844,2300C1637.219,2308.625 1634.602,2320.832 1641.375,2320.832C1645.828,2320.832 1662.512,2300.656 1662.512,2295.27C1662.512,2289.059 1654.52,2291.324 1645.844,2300M1691.816,2298.312C1691.742,2303.113 1695.43,2310.438 1700.012,2314.582C1707.047,2320.949 1708.344,2321.121 1708.344,2315.691C1708.344,2312.152 1704.656,2304.828 1700.148,2299.422C1692.172,2289.844 1691.953,2289.812 1691.816,2298.312M1857.023,2294.375C1852.871,2298.535 1853.543,2312.5 1857.898,2312.5C1863.344,2312.5 1867.551,2299.203 1863.414,2295.066C1861.469,2293.121 1858.594,2292.809 1857.023,2294.375M1095.844,2303.922C1095.844,2308.371 1097.719,2313.168 1100.008,2314.582C1102.371,2316.047 1104.176,2312.543 1104.176,2306.496C1104.176,2300.633 1102.301,2295.832 1100.008,2295.832C1097.719,2295.832 1095.844,2299.473 1095.844,2303.922M1335.699,2299.562C1334.426,2301.617 1336.133,2304.348 1339.484,2305.633C1345.992,2308.129 1351.555,2302.934 1347.117,2298.496C1343.352,2294.73 1338.398,2295.191 1335.699,2299.562M1448.641,2304.352C1442.52,2309.168 1437.512,2314.844 1437.512,2316.973C1437.512,2323.246 1447.164,2321.234 1458.344,2312.633C1465.801,2306.891 1467.484,2303.336 1464.266,2300.105C1461.043,2296.871 1456.625,2298.07 1448.641,2304.352M1719.57,2298.496C1716.242,2301.824 1720.004,2308.332 1725.258,2308.332C1727.414,2308.332 1729.18,2305.52 1729.18,2302.082C1729.18,2295.641 1724.262,2293.805 1719.57,2298.496M1764.594,2300C1763.18,2302.293 1764.008,2304.168 1766.434,2304.168C1768.859,2304.168 1770.844,2302.293 1770.844,2300C1770.844,2297.711 1770.02,2295.832 1769.008,2295.832C1767.996,2295.832 1766.012,2297.711 1764.594,2300M1554.18,2306.004C1554.18,2309.574 1556.055,2312.5 1558.344,2312.5C1560.637,2312.5 1562.512,2310.738 1562.512,2308.578C1562.512,2306.422 1560.637,2303.5 1558.344,2302.082C1556.055,2300.668 1554.18,2302.434 1554.18,2306.004M1597.93,2304.168C1599.344,2306.457 1601.328,2308.332 1602.34,2308.332C1603.352,2308.332 1604.18,2306.457 1604.18,2304.168C1604.18,2301.875 1602.191,2300 1599.766,2300C1597.34,2300 1596.512,2301.875 1597.93,2304.168M1673.688,2302.719C1667.238,2309.164 1672.875,2347.648 1679.652,2343.457C1684.246,2340.621 1684.406,2312.293 1679.871,2305.145C1678.031,2302.246 1675.25,2301.156 1673.688,2302.719M1495.844,2308.824C1495.844,2316.746 1511.398,2331.672 1515.441,2327.625C1517.023,2326.043 1513.262,2319.691 1507.082,2313.508C1498.848,2305.281 1495.844,2304.027 1495.844,2308.824M1829.18,2308.332C1829.18,2310.625 1831.992,2312.5 1835.43,2312.5C1838.867,2312.5 1841.68,2310.625 1841.68,2308.332C1841.68,2306.043 1838.867,2304.168 1835.43,2304.168C1831.992,2304.168 1829.18,2306.043 1829.18,2308.332M1054.176,2314.582C1054.176,2318.406 1056.191,2320.855 1058.656,2320.035C1061.117,2319.215 1063.133,2316.762 1063.133,2314.582C1063.133,2312.406 1061.117,2309.953 1058.656,2309.133C1056.191,2308.312 1054.176,2310.762 1054.176,2314.582M1414.422,2312.781C1412.91,2315.223 1412.676,2318.223 1413.898,2319.445C1416.887,2322.43 1425.012,2317.172 1425.012,2312.254C1425.012,2306.93 1417.82,2307.285 1414.422,2312.781M1473.676,2320.215C1471.062,2333.297 1474.156,2350 1479.199,2350C1483.727,2350 1488.215,2323.352 1485.066,2315.141C1481.105,2304.828 1476.328,2306.957 1473.676,2320.211M1529.18,2312.5C1529.18,2314.793 1531.988,2316.668 1535.43,2316.668C1538.867,2316.668 1541.68,2314.793 1541.68,2312.5C1541.68,2310.211 1538.867,2308.332 1535.43,2308.332C1531.988,2308.332 1529.18,2310.211 1529.18,2312.5M1616.68,2314.582C1616.68,2318.023 1618.555,2320.832 1620.844,2320.832C1623.137,2320.832 1625.012,2318.023 1625.012,2314.582C1625.012,2311.145 1623.137,2308.332 1620.844,2308.332C1618.555,2308.332 1616.68,2311.145 1616.68,2314.582M1233.344,2325C1233.344,2332.602 1235.074,2336.926 1237.512,2335.418C1239.801,2334 1241.676,2329.312 1241.676,2325C1241.676,2320.688 1239.801,2316 1237.512,2314.582C1235.074,2313.074 1233.344,2317.402 1233.344,2325M1258.223,2318.895C1250.984,2327.617 1257.02,2332.277 1265.094,2324.203C1268.988,2320.309 1269.984,2316.629 1267.547,2315.121C1265.297,2313.73 1261.102,2315.43 1258.223,2318.895M1873.262,2316.125C1871.984,2318.195 1873.73,2322.203 1877.141,2325.039C1882.188,2329.227 1883.348,2328.973 1883.348,2323.672C1883.348,2315.895 1876.551,2310.809 1873.262,2316.125M1900.012,2316.914C1900.012,2319.34 1901.887,2320.168 1904.18,2318.75C1906.473,2317.332 1908.348,2315.352 1908.348,2314.34C1908.348,2313.324 1906.473,2312.5 1904.18,2312.5C1901.887,2312.5 1900.012,2314.488 1900.012,2316.914M1079.176,2322.918C1079.176,2326.355 1081.051,2329.168 1083.344,2329.168C1085.633,2329.168 1087.508,2326.355 1087.508,2322.918C1087.508,2319.48 1085.633,2316.668 1083.344,2316.668C1081.051,2316.668 1079.176,2319.48 1079.176,2322.918M1649.82,2329.527C1647.262,2334.305 1646.215,2339.258 1647.492,2340.535C1650.934,2343.977 1662.512,2333.215 1662.512,2326.574C1662.512,2317.945 1655.094,2319.672 1649.82,2329.527M1065.289,2327.781C1060.965,2332.102 1062.023,2345.836 1066.676,2345.836C1068.969,2345.836 1070.844,2341.148 1070.844,2335.418C1070.844,2324.508 1069.879,2323.184 1065.289,2327.781M1300.793,2329.43C1301.793,2332.434 1305.078,2335.719 1308.086,2336.723C1311.211,2337.762 1312.773,2336.199 1311.73,2333.074C1310.727,2330.066 1307.441,2326.785 1304.438,2325.785C1301.312,2324.742 1299.75,2326.305 1300.793,2329.43M1454.844,2330.168C1448.328,2336.684 1448.746,2341.668 1455.816,2341.668C1462.418,2341.668 1468.031,2330.496 1462.992,2327.383C1461.168,2326.254 1457.504,2327.508 1454.844,2330.168M1887.574,2328.125C1887.613,2329.848 1889.383,2334.008 1891.516,2337.379C1896.316,2344.973 1901.949,2340.223 1898.574,2331.43C1896.082,2324.938 1887.457,2322.348 1887.574,2328.125M1544.457,2331.945C1542.926,2333.473 1541.676,2336.66 1541.676,2339.031C1541.676,2341.637 1543.617,2341.395 1546.605,2338.406C1549.32,2335.691 1550.57,2332.504 1549.387,2331.32C1548.203,2330.137 1545.98,2330.418 1544.457,2331.945M1691.676,2332.824C1691.676,2338.152 1703.926,2347.473 1706.957,2344.445C1709.98,2341.418 1700.66,2329.168 1695.336,2329.168C1694.852,2329.168 1694.387,2329.262 1693.938,2329.449C1693.488,2329.633 1693.094,2329.898 1692.75,2330.242C1692.41,2330.586 1692.145,2330.98 1691.957,2331.426C1691.773,2331.875 1691.68,2332.34 1691.676,2332.824M1628.047,2335.852C1626.379,2337.523 1625.012,2341.766 1625.012,2345.281C1625.012,2349.969 1626.242,2350.434 1629.645,2347.031C1632.195,2344.484 1633.566,2340.238 1632.688,2337.605C1631.805,2334.973 1629.719,2334.18 1628.047,2335.852M1268.762,2341.668C1267.344,2343.957 1268.172,2345.836 1270.598,2345.836C1273.023,2345.836 1275.012,2343.957 1275.012,2341.668C1275.012,2339.375 1274.184,2337.5 1273.172,2337.5C1272.16,2337.5 1270.176,2339.375 1268.762,2341.668M1428.152,2342.711C1425.461,2350.035 1429.133,2358.855 1433.699,2356.031C1438.605,2352.996 1438.68,2337.5 1433.789,2337.5C1431.742,2337.5 1429.207,2339.848 1428.152,2342.711M1495.844,2343.305C1495.844,2349.227 1507.844,2356.055 1511.621,2352.285C1514.277,2349.621 1504.34,2337.5 1499.504,2337.5C1497.488,2337.5 1495.844,2340.113 1495.844,2343.305M1660.949,2353.324C1659.82,2355.156 1660.617,2359.371 1662.723,2362.699C1665.711,2367.426 1666.566,2366.695 1666.617,2359.375C1666.68,2349.738 1664.562,2347.477 1660.949,2353.324M1689.941,2353.609C1688.145,2356.512 1687.805,2360.012 1689.18,2361.387C1692.906,2365.117 1696.973,2359.633 1694.957,2353.594C1693.551,2349.359 1692.566,2349.359 1689.941,2353.609M1458.344,2362.5C1458.344,2364.793 1460.219,2366.668 1462.512,2366.668C1464.801,2366.668 1466.676,2364.793 1466.676,2362.5C1466.676,2360.211 1464.801,2358.336 1462.512,2358.336C1460.219,2358.336 1458.344,2360.211 1458.344,2362.5M1489.594,2366.668C1491.012,2368.957 1492.996,2370.836 1494.008,2370.836C1495.02,2370.836 1495.844,2368.957 1495.844,2366.668C1495.844,2364.375 1493.855,2362.5 1491.434,2362.5C1489.008,2362.5 1488.176,2364.375 1489.594,2366.668M1675.074,2378.125C1675.125,2387.055 1676.031,2388.203 1679.18,2383.336C1684.445,2375.18 1684.445,2366.668 1679.18,2366.668C1676.887,2366.668 1675.039,2371.82 1675.074,2378.125M1472.859,2375.789C1471.371,2379.66 1472.051,2386.223 1474.383,2390.371C1478.285,2397.324 1478.832,2397.363 1481.328,2390.879C1482.82,2387.008 1482.137,2380.445 1479.809,2376.297C1475.902,2369.344 1475.355,2369.305 1472.859,2375.789" style="fill:rgb(88,29,51);"/>
        </g>
    </g>
</svg>
